<svg width="1440" height="157" viewBox="0 0 1440 157" fill="none" xmlns="http://www.w3.org/2000/svg">
<g clip-path="url(#clip0_196_6459)">
<rect width="1440" height="157" fill="url(#paint0_linear_196_6459)"/>
<rect width="1440" height="157" fill="#142AED"/>
<path d="M599.949 552.144C624.969 464.358 720.847 274.85 904.197 219.103C1133.38 149.419 1382.3 -114.762 1399.52 -165.741" stroke="white" stroke-opacity="0.62"/>
<path d="M586.101 534.996C614.353 448.516 717.298 263.488 903.057 215.218C1135.25 154.88 1394.27 -98.4798 1413.37 -148.594" stroke="white" stroke-opacity="0.62"/>
<path d="M572.844 517.36C604.288 432.309 714.153 252.025 902.054 211.301C1136.93 160.397 1405.67 -81.7803 1426.63 -130.958" stroke="white" stroke-opacity="0.62"/>
<path d="M560.198 499.26C594.79 415.759 711.417 240.478 901.192 207.359C1138.41 165.959 1416.49 -64.6877 1439.28 -112.859" stroke="white" stroke-opacity="0.62"/>
<path d="M548.181 480.722C585.87 398.891 709.093 228.863 900.47 203.396C1139.69 171.561 1426.72 -47.2262 1451.29 -94.3213" stroke="white" stroke-opacity="0.62"/>
<path d="M536.809 461.774C577.542 381.73 707.184 217.198 899.89 199.419C1140.77 177.195 1436.33 -29.4204 1462.67 -75.3724" stroke="white" stroke-opacity="0.62"/>
<path d="M526.1 442.44C569.818 364.298 705.694 205.498 899.453 195.432C1141.65 182.85 1445.32 -11.2967 1473.38 -56.0398" stroke="white" stroke-opacity="0.62"/>
<path d="M516.068 422.751C562.709 346.622 704.625 193.78 899.16 191.443C1142.33 188.521 1453.67 7.1199 1483.41 -36.3504" stroke="white" stroke-opacity="0.62"/>
<path d="M506.728 402.733C556.225 328.727 703.978 182.062 899.011 187.456C1142.8 194.199 1461.38 25.8025 1492.75 -16.3328" stroke="white" stroke-opacity="0.62"/>
<path d="M498.092 382.416C550.375 310.637 703.753 170.36 899.005 183.478C1143.07 199.875 1468.42 44.7246 1501.39 3.98455" stroke="white" stroke-opacity="0.62"/>
<path d="M490.175 361.828C545.168 292.38 703.953 158.69 899.143 179.513C1143.13 205.541 1474.79 63.8591 1509.3 24.5726" stroke="white" stroke-opacity="0.62"/>
<path d="M482.986 340.999C540.612 273.981 704.575 147.07 899.426 175.568C1142.99 211.19 1480.49 83.1786 1516.49 45.4018" stroke="white" stroke-opacity="0.62"/>
<path d="M476.536 319.958C536.711 255.466 705.619 135.516 899.851 171.648C1142.64 216.813 1485.49 102.655 1522.94 66.4423" stroke="white" stroke-opacity="0.62"/>
<path d="M470.835 298.736C533.473 236.863 707.084 124.044 900.421 167.759C1142.09 222.403 1489.8 122.262 1528.65 87.6643" stroke="white" stroke-opacity="0.62"/>
<path d="M854.445 710.464C828.544 622.934 807.982 411.551 932.938 266.255C1089.13 84.6352 1157.8 -271.788 1145.03 -324.06" stroke="white" stroke-opacity="0.58"/>
<path d="M833.566 703.404C811.094 615.245 798.899 403.858 929.895 263.586C1093.64 88.2452 1176.62 -264.449 1165.91 -317" stroke="white" stroke-opacity="0.58"/>
<path d="M812.924 695.614C793.913 606.951 790.102 395.864 926.95 260.815C1098.01 92.0054 1195.2 -256.456 1186.55 -309.21" stroke="white" stroke-opacity="0.58"/>
<path d="M792.55 687.104C777.027 598.065 781.606 387.579 924.11 257.948C1102.24 95.9097 1213.49 -247.821 1206.92 -300.702" stroke="white" stroke-opacity="0.58"/>
<path d="M772.471 677.889C760.458 588.601 773.421 379.017 921.377 254.989C1106.32 99.9538 1231.48 -238.553 1227 -291.487" stroke="white" stroke-opacity="0.58"/>
<path d="M752.717 667.981C744.232 578.571 765.56 370.189 918.757 251.941C1110.25 104.132 1249.14 -228.669 1246.76 -281.579" stroke="white" stroke-opacity="0.58"/>
<path d="M733.318 657.393C728.372 567.989 758.035 361.107 916.253 248.809C1114.03 108.436 1266.44 -218.181 1266.16 -270.992" stroke="white" stroke-opacity="0.58"/>
<path d="M714.299 646.141C712.9 556.872 750.854 351.786 913.868 245.598C1117.63 112.862 1283.35 -207.105 1285.18 -259.741" stroke="white" stroke-opacity="0.58"/>
<path d="M695.688 634.242C697.838 545.234 744.03 342.238 911.606 242.311C1121.07 117.403 1299.87 -195.456 1303.79 -247.842" stroke="white" stroke-opacity="0.58"/>
<path d="M677.512 621.712C683.207 533.094 737.572 332.477 909.469 238.955C1124.34 122.052 1315.95 -183.251 1321.96 -235.312" stroke="white" stroke-opacity="0.58"/>
<path d="M659.798 608.569C669.03 520.467 731.489 322.516 907.463 235.533C1127.43 126.803 1331.58 -170.508 1339.68 -222.17" stroke="white" stroke-opacity="0.58"/>
<path d="M642.569 594.832C655.326 507.371 725.789 312.371 905.588 232.05C1130.34 131.649 1346.74 -157.245 1356.91 -208.433" stroke="white" stroke-opacity="0.58"/>
<path d="M625.851 580.52C642.114 493.827 720.48 302.055 903.847 228.512C1133.06 136.584 1361.4 -143.48 1373.63 -194.122" stroke="white" stroke-opacity="0.58"/>
<path d="M609.669 565.655C629.414 479.853 715.572 291.583 902.244 224.924C1135.58 141.599 1375.55 -129.234 1389.81 -179.257" stroke="white" stroke-opacity="0.58"/>
<path d="M1154.16 707.814C1085.39 647.779 954.791 480.302 982.468 290.673C1017.06 53.6377 884.101 -284.109 845.316 -321.407" stroke="white" stroke-opacity="0.45"/>
<path d="M1132.74 713.037C1066.54 650.634 943 478.672 978.467 290.05C1022.8 54.2726 903.93 -287.998 866.73 -326.632" stroke="white" stroke-opacity="0.45"/>
<path d="M1111.14 717.517C1047.59 652.835 931.29 476.634 974.497 289.289C1028.51 55.1067 923.896 -291.199 888.333 -331.112" stroke="white" stroke-opacity="0.45"/>
<path d="M1089.38 721.247C1028.57 654.378 919.677 474.19 970.563 288.389C1034.17 56.1374 943.97 -293.708 910.096 -334.843" stroke="white" stroke-opacity="0.45"/>
<path d="M1067.49 724.222C1009.51 655.262 908.179 471.345 966.67 287.354C1039.78 57.3651 964.123 -295.519 931.987 -337.818" stroke="white" stroke-opacity="0.45"/>
<path d="M1045.5 726.438C990.435 655.485 896.812 468.102 962.824 286.184C1045.34 58.7871 984.328 -296.631 953.974 -340.034" stroke="white" stroke-opacity="0.45"/>
<path d="M1023.45 727.89C971.374 655.047 885.592 464.465 959.032 284.881C1050.83 60.4005 1004.56 -297.044 976.028 -341.488" stroke="white" stroke-opacity="0.45"/>
<path d="M1001.36 728.578C952.354 653.948 874.536 460.441 955.298 283.447C1056.25 62.2047 1024.77 -296.754 998.115 -342.176" stroke="white" stroke-opacity="0.45"/>
<path d="M979.269 728.499C933.401 652.19 863.659 456.034 951.627 281.883C1061.59 64.1956 1044.96 -295.764 1020.2 -342.099" stroke="white" stroke-opacity="0.45"/>
<path d="M957.209 727.656C914.543 649.776 852.976 451.251 948.025 280.194C1066.84 66.3717 1065.08 -294.075 1042.26 -341.256" stroke="white" stroke-opacity="0.45"/>
<path d="M935.209 726.048C895.808 646.709 842.503 446.1 944.498 278.379C1071.99 68.7286 1085.1 -291.689 1064.26 -339.649" stroke="white" stroke-opacity="0.45"/>
<path d="M913.303 723.678C877.221 642.993 832.255 440.586 941.049 276.443C1077.04 71.2636 1105.01 -288.609 1086.17 -337.28" stroke="white" stroke-opacity="0.45"/>
<path d="M891.519 720.55C858.809 638.634 822.247 434.72 937.684 274.388C1081.98 73.9739 1124.76 -284.839 1107.96 -334.151" stroke="white" stroke-opacity="0.45"/>
<path d="M869.891 716.667C840.598 633.638 812.492 428.507 934.408 272.216C1086.8 76.8537 1144.34 -280.387 1129.58 -330.269" stroke="white" stroke-opacity="0.45"/>
<path d="M1405.81 545.017C1315.59 531.16 1115.59 459.708 1037.37 284.759C939.601 66.0725 646.393 -147.891 593.662 -158.609" stroke="white" stroke-opacity="0.5"/>
<path d="M1390.53 560.899C1301.2 543.671 1104.76 464.648 1033.66 286.376C944.786 63.5347 661.053 -161.798 608.944 -174.492" stroke="white" stroke-opacity="0.5"/>
<path d="M1374.69 576.255C1286.37 555.682 1093.78 469.201 1029.9 287.86C950.05 61.183 676.197 -175.196 624.786 -189.848" stroke="white" stroke-opacity="0.5"/>
<path d="M1358.31 591.063C1271.14 567.174 1082.66 473.358 1026.1 289.207C955.385 59.0194 691.804 -188.069 641.164 -204.657" stroke="white" stroke-opacity="0.5"/>
<path d="M1341.42 605.302C1255.52 578.131 1071.43 477.115 1022.25 290.419C960.783 57.0486 707.851 -200.395 658.055 -218.897" stroke="white" stroke-opacity="0.5"/>
<path d="M1324.04 618.952C1239.53 588.538 1060.09 480.466 1018.38 291.491C966.237 55.2725 724.317 -212.158 675.434 -232.547" stroke="white" stroke-opacity="0.5"/>
<path d="M1306.2 631.992C1223.2 598.379 1048.67 483.406 1014.48 292.422C971.738 53.6929 741.175 -223.342 693.277 -245.589" stroke="white" stroke-opacity="0.5"/>
<path d="M1287.91 644.406C1206.55 607.641 1037.18 485.931 1010.56 293.212C977.28 52.3135 758.404 -233.93 711.559 -258.002" stroke="white" stroke-opacity="0.5"/>
<path d="M1269.22 656.173C1189.61 616.309 1025.63 488.037 1006.62 293.858C982.854 51.1351 775.978 -243.907 730.253 -269.771" stroke="white" stroke-opacity="0.5"/>
<path d="M1250.14 667.279C1172.39 624.373 1014.05 489.722 1002.67 294.361C988.452 50.1605 793.872 -253.258 749.332 -280.877" stroke="white" stroke-opacity="0.5"/>
<path d="M1230.7 677.706C1154.93 631.82 1002.45 490.982 998.724 294.719C994.067 49.3898 812.06 -261.972 768.77 -291.305" stroke="white" stroke-opacity="0.5"/>
<path d="M1210.93 687.441C1137.24 638.64 990.842 491.816 994.774 294.931C999.689 48.825 830.517 -270.035 788.538 -301.041" stroke="white" stroke-opacity="0.5"/>
<path d="M1190.86 696.469C1119.36 644.823 979.248 492.224 990.832 294.999C1005.31 48.4677 849.216 -277.433 808.608 -310.068" stroke="white" stroke-opacity="0.5"/>
<path d="M1170.52 704.777C1101.31 650.359 967.683 492.203 986.902 294.92C1010.93 48.3161 868.13 -284.16 828.951 -318.377" stroke="white" stroke-opacity="0.5"/>
<path d="M0 78L83 139L167 114.5L355 139L456 92L704 173L594 204H0V78Z" fill="#80B1FF" fill-opacity="0.34"/>
<path d="M-12.9136 55L64.7634 123.345L153.017 109.821L341.667 155.628L449.743 122.546L693.159 229.653L577.71 246.324L-26.9998 175.824L-12.9136 55Z" fill="url(#paint1_linear_196_6459)"/>
<path d="M1531.1 272.736C1447.49 309.368 1240.33 356.178 1080.56 250.352C880.854 118.07 518.645 94.4741 468.378 113.673" stroke="url(#paint2_linear_196_6459)"/>
<path d="M1526.7 294.333C1442.04 327.643 1233.83 366.151 1078.3 253.706C883.873 113.149 523.574 74.8776 472.774 92.0742" stroke="url(#paint3_linear_196_6459)"/>
<path d="M1521.55 315.787C1435.96 345.725 1227 375.877 1075.92 256.973C887.058 108.344 529.184 55.451 477.924 70.6207" stroke="url(#paint4_linear_196_6459)"/>
<path d="M1515.66 337.064C1429.25 363.589 1219.84 385.342 1073.43 260.149C890.403 103.659 535.467 36.2209 483.82 49.3419" stroke="url(#paint5_linear_196_6459)"/>
<path d="M1509.02 358.137C1421.93 381.211 1212.37 394.532 1070.83 263.23C893.905 99.103 542.414 17.2161 490.454 28.2698" stroke="url(#paint6_linear_196_6459)"/>
<path d="M1501.66 378.973C1414.01 398.562 1204.59 403.434 1068.13 266.211C897.559 94.6813 550.016 -1.53737 497.817 7.43308" stroke="url(#paint7_linear_196_6459)"/>
<path d="M1493.58 399.544C1405.49 415.62 1196.52 412.036 1065.34 269.087C901.359 90.4003 558.26 -20.0126 505.897 -13.1381" stroke="url(#paint8_linear_196_6459)"/>
<path d="M1484.79 419.82C1396.39 432.36 1188.17 420.324 1062.45 271.854C905.299 86.2667 567.136 -38.1825 514.685 -33.4139" stroke="url(#paint9_linear_196_6459)"/>
<path d="M1475.31 439.771C1386.73 448.758 1179.55 428.287 1059.47 274.509C909.374 82.2856 576.63 -56.0219 524.165 -53.366" stroke="url(#paint10_linear_196_6459)"/>
<path d="M1465.15 459.37C1376.51 464.79 1170.67 435.915 1056.41 277.048C913.579 78.4636 586.73 -73.5043 534.326 -72.9649" stroke="url(#paint11_linear_196_6459)"/>
<path d="M1454.32 478.587C1365.75 480.434 1161.55 443.195 1053.27 279.466C917.907 74.8053 597.42 -90.6057 545.152 -92.1836" stroke="url(#paint12_linear_196_6459)"/>
<path d="M1442.84 497.397C1354.47 495.667 1152.2 450.117 1050.04 281.761C922.352 71.3163 608.686 -107.301 556.628 -110.994" stroke="url(#paint13_linear_196_6459)"/>
<path d="M1430.73 515.772C1342.69 510.468 1142.63 456.673 1046.75 283.931C926.908 68.0025 620.512 -123.566 568.739 -129.369" stroke="url(#paint14_linear_196_6459)"/>
<path d="M1418 533.685C1330.41 524.814 1132.85 462.851 1043.39 285.969C931.568 64.8667 632.879 -139.379 581.466 -147.283" stroke="url(#paint15_linear_196_6459)"/>
</g>
<defs>
<linearGradient id="paint0_linear_196_6459" x1="0" y1="78.5" x2="1440" y2="78.5" gradientUnits="userSpaceOnUse">
<stop stop-color="white" stop-opacity="0.78"/>
<stop offset="1" stop-color="#999999" stop-opacity="0.03"/>
</linearGradient>
<linearGradient id="paint1_linear_196_6459" x1="226.5" y1="60" x2="224" y2="200.5" gradientUnits="userSpaceOnUse">
<stop stop-color="#1378FC"/>
<stop offset="1" stop-color="#041AE5"/>
</linearGradient>
<linearGradient id="paint2_linear_196_6459" x1="1042.41" y1="83.1866" x2="957.066" y2="303.222" gradientUnits="userSpaceOnUse">
<stop offset="0.336538" stop-color="white"/>
<stop offset="1" stop-color="#999999" stop-opacity="0"/>
</linearGradient>
<linearGradient id="paint3_linear_196_6459" x1="1046.19" y1="84.7423" x2="951.847" y2="301.037" gradientUnits="userSpaceOnUse">
<stop offset="0.336538" stop-color="white"/>
<stop offset="1" stop-color="#999999" stop-opacity="0"/>
</linearGradient>
<linearGradient id="paint4_linear_196_6459" x1="1049.9" y1="86.4538" x2="946.758" y2="298.584" gradientUnits="userSpaceOnUse">
<stop offset="0.336538" stop-color="white"/>
<stop offset="1" stop-color="#999999" stop-opacity="0"/>
</linearGradient>
<linearGradient id="paint5_linear_196_6459" x1="1053.54" y1="88.3175" x2="941.819" y2="295.875" gradientUnits="userSpaceOnUse">
<stop offset="0.336538" stop-color="white"/>
<stop offset="1" stop-color="#999999" stop-opacity="0"/>
</linearGradient>
<linearGradient id="paint6_linear_196_6459" x1="1057.11" y1="90.3319" x2="937.051" y2="292.924" gradientUnits="userSpaceOnUse">
<stop offset="0.336538" stop-color="white"/>
<stop offset="1" stop-color="#999999" stop-opacity="0"/>
</linearGradient>
<linearGradient id="paint7_linear_196_6459" x1="1060.59" y1="92.4931" x2="932.471" y2="289.747" gradientUnits="userSpaceOnUse">
<stop offset="0.336538" stop-color="white"/>
<stop offset="1" stop-color="#999999" stop-opacity="0"/>
</linearGradient>
<linearGradient id="paint8_linear_196_6459" x1="1063.98" y1="94.7981" x2="928.093" y2="286.36" gradientUnits="userSpaceOnUse">
<stop offset="0.336538" stop-color="white"/>
<stop offset="1" stop-color="#999999" stop-opacity="0"/>
</linearGradient>
<linearGradient id="paint9_linear_196_6459" x1="1067.29" y1="97.2442" x2="923.933" y2="282.784" gradientUnits="userSpaceOnUse">
<stop offset="0.336538" stop-color="white"/>
<stop offset="1" stop-color="#999999" stop-opacity="0"/>
</linearGradient>
<linearGradient id="paint10_linear_196_6459" x1="1070.49" y1="99.827" x2="920.001" y2="279.037" gradientUnits="userSpaceOnUse">
<stop offset="0.336538" stop-color="white"/>
<stop offset="1" stop-color="#999999" stop-opacity="0"/>
</linearGradient>
<linearGradient id="paint11_linear_196_6459" x1="1073.6" y1="102.544" x2="916.307" y2="275.141" gradientUnits="userSpaceOnUse">
<stop offset="0.336538" stop-color="white"/>
<stop offset="1" stop-color="#999999" stop-opacity="0"/>
</linearGradient>
<linearGradient id="paint12_linear_196_6459" x1="1076.6" y1="105.39" x2="912.857" y2="271.116" gradientUnits="userSpaceOnUse">
<stop offset="0.336538" stop-color="white"/>
<stop offset="1" stop-color="#999999" stop-opacity="0"/>
</linearGradient>
<linearGradient id="paint13_linear_196_6459" x1="1079.49" y1="108.362" x2="909.656" y2="266.982" gradientUnits="userSpaceOnUse">
<stop offset="0.336538" stop-color="white"/>
<stop offset="1" stop-color="#999999" stop-opacity="0"/>
</linearGradient>
<linearGradient id="paint14_linear_196_6459" x1="1082.26" y1="111.456" x2="906.707" y2="262.762" gradientUnits="userSpaceOnUse">
<stop offset="0.336538" stop-color="white"/>
<stop offset="1" stop-color="#999999" stop-opacity="0"/>
</linearGradient>
<linearGradient id="paint15_linear_196_6459" x1="1084.92" y1="114.666" x2="904.009" y2="258.474" gradientUnits="userSpaceOnUse">
<stop offset="0.336538" stop-color="white"/>
<stop offset="1" stop-color="#999999" stop-opacity="0"/>
</linearGradient>
<clipPath id="clip0_196_6459">
<rect width="1440" height="157" fill="white"/>
</clipPath>
</defs>
</svg>
