<svg width="1447" height="80" viewBox="0 0 1447 80" fill="none" xmlns="http://www.w3.org/2000/svg">
<g opacity="0.9" clip-path="url(#clip0_196_6543)">
<path d="M1186.52 436.9L77.9998 79.9273C197.06 6.44137 551.659 19.8801 685.084 35.4177C865.5 56.4273 929.407 -10.5176 1028 27.9273C1107.5 58.9273 1430 37.9176 1522.5 -11.0728L1186.52 436.9Z" fill="#80B1FF" fill-opacity="0.72"/>
<path d="M263 43.9272C73.5 21.9272 -303.5 -81.5728 0.499924 79.9271L955 127.427C942.443 96.463 772.5 -0.572815 647.924 28.2881C501.617 62.1836 327.892 51.4608 263 43.9272Z" fill="#2A3FFF"/>
<path d="M1335.9 223.061L607 207.852C648.543 104.438 862.049 79.3738 947.5 76.9396C1032.95 74.5054 1100.8 37.6737 1174.5 16.9396C1376.15 -39.794 1472.49 118.445 1540.73 84.56L1552 76.9395C1548.32 80.1368 1544.57 82.6528 1540.73 84.56L1335.9 223.061Z" fill="#1378FC"/>
<path d="M1023 111.427C1100.75 71.5856 1425 -21.5727 1493.74 91.9273L1493.74 129.824L392 178.427C402.068 124.365 723.072 10.6791 835.452 63.884C975.926 130.39 949.892 148.891 1023 111.427Z" fill="#1336E5"/>
</g>
<defs>
<clipPath id="clip0_196_6543">
<rect width="1447" height="80" fill="white"/>
</clipPath>
</defs>
</svg>
