<svg width="1440" height="213" viewBox="0 0 1440 213" fill="none" xmlns="http://www.w3.org/2000/svg">
<g clip-path="url(#clip0_218_6622)">
<rect width="1440" height="213" fill="#2A3FFF"/>
<path d="M1404.5 44C1426.5 -5.6 1498.67 -31.3333 1532 -38L1580.5 253H1020.5C1022.83 249.333 1041.9 236.2 1099.5 213C1171.5 184 1166 175.5 1259 177C1352 178.5 1377 106 1404.5 44Z" fill="#80B1FF" fill-opacity="0.72"/>
<path d="M980 191.5C902 186 653.5 262 506 276.5L1553.5 206.5V-5C1505.5 41.3333 1395.3 142.6 1338.5 177C1267.5 220 1066.44 197.595 980 191.5Z" fill="#3859FE"/>
<g filter="url(#filter0_f_218_6622)">
<path d="M-53.8233 282.067L759.557 -282.277" stroke="url(#paint0_linear_218_6622)" stroke-opacity="0.53"/>
<path d="M-141.948 13.1987L847.681 -13.4087" stroke="url(#paint1_linear_218_6622)" stroke-opacity="0.53"/>
<path d="M-68.398 -260.016L774.131 259.807" stroke="url(#paint2_linear_218_6622)" stroke-opacity="0.53"/>
<path d="M142.818 -448.314L562.965 448.095" stroke="url(#paint3_linear_218_6622)" stroke-opacity="0.53"/>
<path d="M422.65 -490.162L283.136 489.944" stroke="url(#paint4_linear_218_6622)" stroke-opacity="0.53"/>
<path d="M679.687 -371.892L26.0974 371.675" stroke="url(#paint5_linear_218_6622)" stroke-opacity="0.53"/>
<path d="M829.949 -132.148L-124.165 131.93" stroke="url(#paint6_linear_218_6622)" stroke-opacity="0.53"/>
<path d="M824.338 150.739L-118.558 -150.955" stroke="url(#paint7_linear_218_6622)" stroke-opacity="0.53"/>
<path d="M664.665 384.342L41.0659 -384.55" stroke="url(#paint8_linear_218_6622)" stroke-opacity="0.53"/>
<path d="M403.142 492.329L302.591 -492.538" stroke="url(#paint9_linear_218_6622)" stroke-opacity="0.53"/>
<path d="M125.19 439.419L580.541 -439.63" stroke="url(#paint10_linear_218_6622)" stroke-opacity="0.53"/>
<path d="M-78.3712 242.902L784.102 -243.113" stroke="url(#paint11_linear_218_6622)" stroke-opacity="0.53"/>
<path d="M-141.031 -33.0144L846.764 32.8027" stroke="url(#paint12_linear_218_6622)" stroke-opacity="0.53"/>
<path d="M-42.3177 -298.177L748.051 297.967" stroke="url(#paint13_linear_218_6622)" stroke-opacity="0.53"/>
<path d="M185.542 -465.955L520.243 465.736" stroke="url(#paint14_linear_218_6622)" stroke-opacity="0.53"/>
<path d="M468.056 -481.519L237.73 481.301" stroke="url(#paint15_linear_218_6622)" stroke-opacity="0.53"/>
<path d="M712.941 -339.789L-7.15597 339.573" stroke="url(#paint16_linear_218_6622)" stroke-opacity="0.53"/>
<path d="M840.185 -87.0725L-134.402 86.8588" stroke="url(#paint17_linear_218_6622)" stroke-opacity="0.53"/>
<path d="M808.212 194.057L-102.433 -194.271" stroke="url(#paint18_linear_218_6622)" stroke-opacity="0.53"/>
<path d="M627.444 411.75L78.2826 -411.957" stroke="url(#paint19_linear_218_6622)" stroke-opacity="0.53"/>
<path d="M356.988 494.87L348.74 -495.081" stroke="url(#paint20_linear_218_6622)" stroke-opacity="0.53"/>
<path d="M85.1836 416.264L620.544 -416.479" stroke="url(#paint21_linear_218_6622)" stroke-opacity="0.53"/>
<path d="M-99.1566 201.616L804.89 -201.832" stroke="url(#paint22_linear_218_6622)" stroke-opacity="0.53"/>
<path d="M-135.808 -78.9414L841.542 78.7263" stroke="url(#paint23_linear_218_6622)" stroke-opacity="0.53"/>
<path d="M-12.7653 -333.745L718.552 333.523" stroke="url(#paint24_linear_218_6622)" stroke-opacity="0.53"/>
<path d="M229.725 -479.533L476.063 479.315" stroke="url(#paint25_linear_218_6622)" stroke-opacity="0.53"/>
<path d="M512.458 -468.677L193.328 468.461" stroke="url(#paint26_linear_218_6622)" stroke-opacity="0.53"/>
<path d="M743.055 -304.723L-37.2702 304.509" stroke="url(#paint27_linear_218_6622)" stroke-opacity="0.53"/>
<path d="M846.171 -41.2408L-140.39 41.0267" stroke="url(#paint28_linear_218_6622)" stroke-opacity="0.53"/>
</g>
<path d="M13 59C-9 9.4 -81.1667 -16.3333 -114.5 -23L-163 268H397C394.667 264.333 375.6 251.2 318 228C246 199 251.5 190.5 158.5 192C65.5 193.5 40.5 121 13 59Z" fill="#80B1FF" fill-opacity="0.72"/>
</g>
<defs>
<filter id="filter0_f_218_6622" x="-144.861" y="-497.985" width="995.455" height="995.759" filterUnits="userSpaceOnUse" color-interpolation-filters="sRGB">
<feFlood flood-opacity="0" result="BackgroundImageFix"/>
<feBlend mode="normal" in="SourceGraphic" in2="BackgroundImageFix" result="shape"/>
<feGaussianBlur stdDeviation="1.45" result="effect1_foregroundBlur_218_6622"/>
</filter>
<linearGradient id="paint0_linear_218_6622" x1="315.516" y1="-198.811" x2="390.218" y2="198.6" gradientUnits="userSpaceOnUse">
<stop offset="0.0192308" stop-color="white"/>
<stop offset="1" stop-color="#999999"/>
</linearGradient>
<linearGradient id="paint1_linear_218_6622" x1="430.462" y1="-186.808" x2="275.271" y2="186.598" gradientUnits="userSpaceOnUse">
<stop offset="0.0192308" stop-color="white"/>
<stop offset="1" stop-color="#999999"/>
</linearGradient>
<linearGradient id="paint2_linear_218_6622" x1="520.055" y1="-113.802" x2="185.679" y2="113.593" gradientUnits="userSpaceOnUse">
<stop offset="0.0192308" stop-color="white"/>
<stop offset="1" stop-color="#999999"/>
</linearGradient>
<linearGradient id="paint3_linear_218_6622" x1="555.046" y1="-3.65259" x2="150.737" y2="3.4344" gradientUnits="userSpaceOnUse">
<stop offset="0.0192308" stop-color="white"/>
<stop offset="1" stop-color="#999999"/>
</linearGradient>
<linearGradient id="paint4_linear_218_6622" x1="523.963" y1="107.659" x2="181.823" y2="-107.878" gradientUnits="userSpaceOnUse">
<stop offset="0.0192308" stop-color="white"/>
<stop offset="1" stop-color="#999999"/>
</linearGradient>
<linearGradient id="paint5_linear_218_6622" x1="436.983" y1="183.761" x2="268.801" y2="-183.977" gradientUnits="userSpaceOnUse">
<stop offset="0.0192308" stop-color="white"/>
<stop offset="1" stop-color="#999999"/>
</linearGradient>
<linearGradient id="paint6_linear_218_6622" x1="322.528" y1="199.783" x2="383.256" y2="-200.002" gradientUnits="userSpaceOnUse">
<stop offset="0.0192308" stop-color="white"/>
<stop offset="1" stop-color="#999999"/>
</linearGradient>
<linearGradient id="paint7_linear_218_6622" x1="217.993" y1="150.496" x2="487.788" y2="-150.712" gradientUnits="userSpaceOnUse">
<stop offset="0.0192308" stop-color="white"/>
<stop offset="1" stop-color="#999999"/>
</linearGradient>
<linearGradient id="paint8_linear_218_6622" x1="157.51" y1="52.0043" x2="548.221" y2="-52.212" gradientUnits="userSpaceOnUse">
<stop offset="0.0192308" stop-color="white"/>
<stop offset="1" stop-color="#999999"/>
</linearGradient>
<linearGradient id="paint9_linear_218_6622" x1="160.883" y1="-63.518" x2="544.85" y2="63.3091" gradientUnits="userSpaceOnUse">
<stop offset="0.0192308" stop-color="white"/>
<stop offset="1" stop-color="#999999"/>
</linearGradient>
<linearGradient id="paint10_linear_218_6622" x1="226.981" y1="-158.321" x2="478.749" y2="158.11" gradientUnits="userSpaceOnUse">
<stop offset="0.0192308" stop-color="white"/>
<stop offset="1" stop-color="#999999"/>
</linearGradient>
<linearGradient id="paint11_linear_218_6622" x1="334.212" y1="-201.429" x2="371.519" y2="201.218" gradientUnits="userSpaceOnUse">
<stop offset="0.0192308" stop-color="white"/>
<stop offset="1" stop-color="#999999"/>
</linearGradient>
<linearGradient id="paint12_linear_218_6622" x1="447.538" y1="-178.757" x2="258.194" y2="178.545" gradientUnits="userSpaceOnUse">
<stop offset="0.0192308" stop-color="white"/>
<stop offset="1" stop-color="#999999"/>
</linearGradient>
<linearGradient id="paint13_linear_218_6622" x1="529.931" y1="-97.7125" x2="175.803" y2="97.5024" gradientUnits="userSpaceOnUse">
<stop offset="0.0192308" stop-color="white"/>
<stop offset="1" stop-color="#999999"/>
</linearGradient>
<linearGradient id="paint14_linear_218_6622" x1="554.496" y1="15.2187" x2="151.288" y2="-15.4375" gradientUnits="userSpaceOnUse">
<stop offset="0.0192308" stop-color="white"/>
<stop offset="1" stop-color="#999999"/>
</linearGradient>
<linearGradient id="paint15_linear_218_6622" x1="513.165" y1="123.146" x2="192.621" y2="-123.365" gradientUnits="userSpaceOnUse">
<stop offset="0.0192308" stop-color="white"/>
<stop offset="1" stop-color="#999999"/>
</linearGradient>
<linearGradient id="paint16_linear_218_6622" x1="419.466" y1="190.803" x2="286.319" y2="-191.019" gradientUnits="userSpaceOnUse">
<stop offset="0.0192308" stop-color="white"/>
<stop offset="1" stop-color="#999999"/>
</linearGradient>
<linearGradient id="paint17_linear_218_6622" x1="304.015" y1="196.082" x2="401.768" y2="-196.296" gradientUnits="userSpaceOnUse">
<stop offset="0.0192308" stop-color="white"/>
<stop offset="1" stop-color="#999999"/>
</linearGradient>
<linearGradient id="paint18_linear_218_6622" x1="204.532" y1="137.258" x2="501.247" y2="-137.472" gradientUnits="userSpaceOnUse">
<stop offset="0.0192308" stop-color="white"/>
<stop offset="1" stop-color="#999999"/>
</linearGradient>
<linearGradient id="paint19_linear_218_6622" x1="153.499" y1="33.5559" x2="552.228" y2="-33.7621" gradientUnits="userSpaceOnUse">
<stop offset="0.0192308" stop-color="white"/>
<stop offset="1" stop-color="#999999"/>
</linearGradient>
<linearGradient id="paint20_linear_218_6622" x1="167.632" y1="-81.1503" x2="538.095" y2="80.9388" gradientUnits="userSpaceOnUse">
<stop offset="0.0192308" stop-color="white"/>
<stop offset="1" stop-color="#999999"/>
</linearGradient>
<linearGradient id="paint21_linear_218_6622" x1="242.286" y1="-169.375" x2="463.441" y2="169.161" gradientUnits="userSpaceOnUse">
<stop offset="0.0192308" stop-color="white"/>
<stop offset="1" stop-color="#999999"/>
</linearGradient>
<linearGradient id="paint22_linear_218_6622" x1="353.073" y1="-202.294" x2="352.66" y2="202.077" gradientUnits="userSpaceOnUse">
<stop offset="0.0192308" stop-color="white"/>
<stop offset="1" stop-color="#999999"/>
</linearGradient>
<linearGradient id="paint23_linear_218_6622" x1="463.79" y1="-169.149" x2="241.944" y2="168.934" gradientUnits="userSpaceOnUse">
<stop offset="0.0192308" stop-color="white"/>
<stop offset="1" stop-color="#999999"/>
</linearGradient>
<linearGradient id="paint24_linear_218_6622" x1="538.29" y1="-80.7771" x2="167.497" y2="80.5551" gradientUnits="userSpaceOnUse">
<stop offset="0.0192308" stop-color="white"/>
<stop offset="1" stop-color="#999999"/>
</linearGradient>
<linearGradient id="paint25_linear_218_6622" x1="552.189" y1="33.9567" x2="153.599" y2="-34.1754" gradientUnits="userSpaceOnUse">
<stop offset="0.0192308" stop-color="white"/>
<stop offset="1" stop-color="#999999"/>
</linearGradient>
<linearGradient id="paint26_linear_218_6622" x1="500.97" y1="137.56" x2="204.817" y2="-137.775" gradientUnits="userSpaceOnUse">
<stop offset="0.0192308" stop-color="white"/>
<stop offset="1" stop-color="#999999"/>
</linearGradient>
<linearGradient id="paint27_linear_218_6622" x1="401.369" y1="196.181" x2="304.417" y2="-196.395" gradientUnits="userSpaceOnUse">
<stop offset="0.0192308" stop-color="white"/>
<stop offset="1" stop-color="#999999"/>
</linearGradient>
<linearGradient id="paint28_linear_218_6622" x1="285.927" y1="190.667" x2="419.854" y2="-190.882" gradientUnits="userSpaceOnUse">
<stop offset="0.0192308" stop-color="white"/>
<stop offset="1" stop-color="#999999"/>
</linearGradient>
<clipPath id="clip0_218_6622">
<rect width="1440" height="213" fill="white"/>
</clipPath>
</defs>
</svg>
