<svg width="281" height="84" viewBox="0 0 281 84" fill="none" xmlns="http://www.w3.org/2000/svg">
<rect x="1.5" y="1.5" width="278" height="81" rx="8.5" stroke="#EB6727" stroke-width="3"/>
<path d="M51.49 48.54H58.21V52.5H46.36V31.44H51.49V48.54ZM63.2369 34.02C62.3369 34.02 61.5969 33.76 61.0169 33.24C60.4569 32.7 60.1769 32.04 60.1769 31.26C60.1769 30.46 60.4569 29.8 61.0169 29.28C61.5969 28.74 62.3369 28.47 63.2369 28.47C64.1169 28.47 64.8369 28.74 65.3969 29.28C65.9769 29.8 66.2669 30.46 66.2669 31.26C66.2669 32.04 65.9769 32.7 65.3969 33.24C64.8369 33.76 64.1169 34.02 63.2369 34.02ZM65.7869 35.76V52.5H60.6569V35.76H65.7869ZM79.7945 35.58C81.7145 35.58 83.2545 36.22 84.4145 37.5C85.5745 38.76 86.1545 40.5 86.1545 42.72V52.5H81.0545V43.41C81.0545 42.29 80.7645 41.42 80.1845 40.8C79.6045 40.18 78.8245 39.87 77.8445 39.87C76.8645 39.87 76.0845 40.18 75.5045 40.8C74.9245 41.42 74.6345 42.29 74.6345 43.41V52.5H69.5045V30.3H74.6345V38.01C75.1545 37.27 75.8645 36.68 76.7645 36.24C77.6645 35.8 78.6745 35.58 79.7945 35.58ZM88.6994 44.1C88.6994 42.38 89.0194 40.87 89.6594 39.57C90.3194 38.27 91.2094 37.27 92.3294 36.57C93.4494 35.87 94.6994 35.52 96.0794 35.52C97.2594 35.52 98.2894 35.76 99.1694 36.24C100.069 36.72 100.759 37.35 101.239 38.13V35.76H106.369V52.5H101.239V50.13C100.739 50.91 100.039 51.54 99.1394 52.02C98.2594 52.5 97.2294 52.74 96.0494 52.74C94.6894 52.74 93.4494 52.39 92.3294 51.69C91.2094 50.97 90.3194 49.96 89.6594 48.66C89.0194 47.34 88.6994 45.82 88.6994 44.1ZM101.239 44.13C101.239 42.85 100.879 41.84 100.159 41.1C99.4594 40.36 98.5994 39.99 97.5794 39.99C96.5594 39.99 95.6894 40.36 94.9694 41.1C94.2694 41.82 93.9194 42.82 93.9194 44.1C93.9194 45.38 94.2694 46.4 94.9694 47.16C95.6894 47.9 96.5594 48.27 97.5794 48.27C98.5994 48.27 99.4594 47.9 100.159 47.16C100.879 46.42 101.239 45.41 101.239 44.13ZM119.411 48.15V52.5H116.801C114.941 52.5 113.491 52.05 112.451 51.15C111.411 50.23 110.891 48.74 110.891 46.68V40.02H108.851V35.76H110.891V31.68H116.021V35.76H119.381V40.02H116.021V46.74C116.021 47.24 116.141 47.6 116.381 47.82C116.621 48.04 117.021 48.15 117.581 48.15H119.411ZM136.246 52.71C134.706 52.71 133.326 52.46 132.106 51.96C130.886 51.46 129.906 50.72 129.166 49.74C128.446 48.76 128.066 47.58 128.026 46.2H133.486C133.566 46.98 133.836 47.58 134.296 48C134.756 48.4 135.356 48.6 136.096 48.6C136.856 48.6 137.456 48.43 137.896 48.09C138.336 47.73 138.556 47.24 138.556 46.62C138.556 46.1 138.376 45.67 138.016 45.33C137.676 44.99 137.246 44.71 136.726 44.49C136.226 44.27 135.506 44.02 134.566 43.74C133.206 43.32 132.096 42.9 131.236 42.48C130.376 42.06 129.636 41.44 129.016 40.62C128.396 39.8 128.086 38.73 128.086 37.41C128.086 35.45 128.796 33.92 130.216 32.82C131.636 31.7 133.486 31.14 135.766 31.14C138.086 31.14 139.956 31.7 141.376 32.82C142.796 33.92 143.556 35.46 143.656 37.44H138.106C138.066 36.76 137.816 36.23 137.356 35.85C136.896 35.45 136.306 35.25 135.586 35.25C134.966 35.25 134.466 35.42 134.086 35.76C133.706 36.08 133.516 36.55 133.516 37.17C133.516 37.85 133.836 38.38 134.476 38.76C135.116 39.14 136.116 39.55 137.476 39.99C138.836 40.45 139.936 40.89 140.776 41.31C141.636 41.73 142.376 42.34 142.996 43.14C143.616 43.94 143.926 44.97 143.926 46.23C143.926 47.43 143.616 48.52 142.996 49.5C142.396 50.48 141.516 51.26 140.356 51.84C139.196 52.42 137.826 52.71 136.246 52.71ZM162.863 43.86C162.863 44.34 162.833 44.84 162.773 45.36H151.163C151.243 46.4 151.573 47.2 152.153 47.76C152.753 48.3 153.483 48.57 154.343 48.57C155.623 48.57 156.513 48.03 157.013 46.95H162.473C162.193 48.05 161.683 49.04 160.943 49.92C160.223 50.8 159.313 51.49 158.213 51.99C157.113 52.49 155.883 52.74 154.523 52.74C152.883 52.74 151.423 52.39 150.143 51.69C148.863 50.99 147.863 49.99 147.143 48.69C146.423 47.39 146.063 45.87 146.063 44.13C146.063 42.39 146.413 40.87 147.113 39.57C147.833 38.27 148.833 37.27 150.113 36.57C151.393 35.87 152.863 35.52 154.523 35.52C156.143 35.52 157.583 35.86 158.843 36.54C160.103 37.22 161.083 38.19 161.783 39.45C162.503 40.71 162.863 42.18 162.863 43.86ZM157.613 42.51C157.613 41.63 157.313 40.93 156.713 40.41C156.113 39.89 155.363 39.63 154.463 39.63C153.603 39.63 152.873 39.88 152.273 40.38C151.693 40.88 151.333 41.59 151.193 42.51H157.613ZM186.929 35.58C189.009 35.58 190.659 36.21 191.879 37.47C193.119 38.73 193.739 40.48 193.739 42.72V52.5H188.639V43.41C188.639 42.33 188.349 41.5 187.769 40.92C187.209 40.32 186.429 40.02 185.429 40.02C184.429 40.02 183.639 40.32 183.059 40.92C182.499 41.5 182.219 42.33 182.219 43.41V52.5H177.119V43.41C177.119 42.33 176.829 41.5 176.249 40.92C175.689 40.32 174.909 40.02 173.909 40.02C172.909 40.02 172.119 40.32 171.539 40.92C170.979 41.5 170.699 42.33 170.699 43.41V52.5H165.569V35.76H170.699V37.86C171.219 37.16 171.899 36.61 172.739 36.21C173.579 35.79 174.529 35.58 175.589 35.58C176.849 35.58 177.969 35.85 178.949 36.39C179.949 36.93 180.729 37.7 181.289 38.7C181.869 37.78 182.659 37.03 183.659 36.45C184.659 35.87 185.749 35.58 186.929 35.58ZM213.857 35.76V52.5H208.727V50.22C208.207 50.96 207.497 51.56 206.597 52.02C205.717 52.46 204.737 52.68 203.657 52.68C202.377 52.68 201.247 52.4 200.267 51.84C199.287 51.26 198.527 50.43 197.987 49.35C197.447 48.27 197.177 47 197.177 45.54V35.76H202.277V44.85C202.277 45.97 202.567 46.84 203.147 47.46C203.727 48.08 204.507 48.39 205.487 48.39C206.487 48.39 207.277 48.08 207.857 47.46C208.437 46.84 208.727 45.97 208.727 44.85V35.76H213.857ZM216.522 44.1C216.522 42.38 216.842 40.87 217.482 39.57C218.142 38.27 219.032 37.27 220.152 36.57C221.272 35.87 222.522 35.52 223.902 35.52C225.082 35.52 226.112 35.76 226.992 36.24C227.892 36.72 228.582 37.35 229.062 38.13V35.76H234.192V52.5H229.062V50.13C228.562 50.91 227.862 51.54 226.962 52.02C226.082 52.5 225.052 52.74 223.872 52.74C222.512 52.74 221.272 52.39 220.152 51.69C219.032 50.97 218.142 49.96 217.482 48.66C216.842 47.34 216.522 45.82 216.522 44.1ZM229.062 44.13C229.062 42.85 228.702 41.84 227.982 41.1C227.282 40.36 226.422 39.99 225.402 39.99C224.382 39.99 223.512 40.36 222.792 41.1C222.092 41.82 221.742 42.82 221.742 44.1C221.742 45.38 222.092 46.4 222.792 47.16C223.512 47.9 224.382 48.27 225.402 48.27C226.422 48.27 227.282 47.9 227.982 47.16C228.702 46.42 229.062 45.41 229.062 44.13Z" fill="#EB6727"/>
</svg>
