<svg width="89" height="74" viewBox="0 0 89 74" fill="none" xmlns="http://www.w3.org/2000/svg">
<rect width="89" height="74" rx="5" fill="#EB6727" fill-opacity="0.14"/>
<path d="M60.0115 34.27L41.8332 52.4483V58.6667H30.9998C28.5948 58.6667 26.6665 56.7383 26.6665 54.3333V19.6667C26.6665 18.5174 27.1231 17.4152 27.9357 16.6025C28.7484 15.7899 29.8506 15.3333 30.9998 15.3333H33.1665V30.5L38.5832 27.25L43.9998 30.5V15.3333H56.9998C58.1491 15.3333 59.2513 15.7899 60.064 16.6025C60.8766 17.4152 61.3332 18.5174 61.3332 19.6667V33.3167C60.8565 33.5767 60.4015 33.88 60.0115 34.27ZM46.1665 54.2467V58.6667H50.5865L63.8682 45.4067L59.4482 40.965L46.1665 54.2467ZM67.5082 40.185L64.6482 37.325C64.2148 36.8917 63.4998 36.8917 63.0882 37.325L60.9648 39.4483L65.3848 43.8683L67.5082 41.745C67.9415 41.3333 67.9415 40.6183 67.5082 40.185Z" fill="#EB6727"/>
</svg>
