<svg width="126" height="48" viewBox="0 0 126 48" fill="none" xmlns="http://www.w3.org/2000/svg">
<rect x="1" y="1" width="124" height="46" rx="9" stroke="#2A3FFF" stroke-width="2"/>
<path d="M20.796 29.16H25.496V31H18.516V17.1H20.796V29.16ZM27.4427 25.44C27.4427 24.3333 27.6694 23.3533 28.1227 22.5C28.5894 21.6467 29.2161 20.9867 30.0027 20.52C30.8027 20.04 31.6827 19.8 32.6427 19.8C33.5094 19.8 34.2627 19.9733 34.9027 20.32C35.5561 20.6533 36.0761 21.0733 36.4627 21.58V19.98H38.7627V31H36.4627V29.36C36.0761 29.88 35.5494 30.3133 34.8827 30.66C34.2161 31.0067 33.4561 31.18 32.6027 31.18C31.6561 31.18 30.7894 30.94 30.0027 30.46C29.2161 29.9667 28.5894 29.2867 28.1227 28.42C27.6694 27.54 27.4427 26.5467 27.4427 25.44ZM36.4627 25.48C36.4627 24.72 36.3027 24.06 35.9827 23.5C35.6761 22.94 35.2694 22.5133 34.7627 22.22C34.2561 21.9267 33.7094 21.78 33.1227 21.78C32.5361 21.78 31.9894 21.9267 31.4827 22.22C30.9761 22.5 30.5627 22.92 30.2427 23.48C29.9361 24.0267 29.7827 24.68 29.7827 25.44C29.7827 26.2 29.9361 26.8667 30.2427 27.44C30.5627 28.0133 30.9761 28.4533 31.4827 28.76C32.0027 29.0533 32.5494 29.2 33.1227 29.2C33.7094 29.2 34.2561 29.0533 34.7627 28.76C35.2694 28.4667 35.6761 28.04 35.9827 27.48C36.3027 26.9067 36.4627 26.24 36.4627 25.48ZM52.4774 19.98L45.7174 36.18H43.3574L45.5974 30.82L41.2574 19.98H43.7974L46.8974 28.38L50.1174 19.98H52.4774ZM54.238 25.44C54.238 24.3333 54.4647 23.3533 54.918 22.5C55.3847 21.6467 56.0114 20.9867 56.798 20.52C57.598 20.04 58.478 19.8 59.438 19.8C60.3047 19.8 61.058 19.9733 61.698 20.32C62.3514 20.6533 62.8714 21.0733 63.258 21.58V19.98H65.558V31H63.258V29.36C62.8714 29.88 62.3447 30.3133 61.678 30.66C61.0114 31.0067 60.2514 31.18 59.398 31.18C58.4514 31.18 57.5847 30.94 56.798 30.46C56.0114 29.9667 55.3847 29.2867 54.918 28.42C54.4647 27.54 54.238 26.5467 54.238 25.44ZM63.258 25.48C63.258 24.72 63.098 24.06 62.778 23.5C62.4714 22.94 62.0647 22.5133 61.558 22.22C61.0514 21.9267 60.5047 21.78 59.918 21.78C59.3314 21.78 58.7847 21.9267 58.278 22.22C57.7714 22.5 57.358 22.92 57.038 23.48C56.7314 24.0267 56.578 24.68 56.578 25.44C56.578 26.2 56.7314 26.8667 57.038 27.44C57.358 28.0133 57.7714 28.4533 58.278 28.76C58.798 29.0533 59.3447 29.2 59.918 29.2C60.5047 29.2 61.0514 29.0533 61.558 28.76C62.0647 28.4667 62.4714 28.04 62.778 27.48C63.098 26.9067 63.258 26.24 63.258 25.48ZM74.9127 19.8C75.7794 19.8 76.5527 19.98 77.2327 20.34C77.9261 20.7 78.4661 21.2333 78.8527 21.94C79.2394 22.6467 79.4327 23.5 79.4327 24.5V31H77.1727V24.84C77.1727 23.8533 76.9261 23.1 76.4327 22.58C75.9394 22.0467 75.2661 21.78 74.4127 21.78C73.5594 21.78 72.8794 22.0467 72.3727 22.58C71.8794 23.1 71.6327 23.8533 71.6327 24.84V31H69.3527V19.98H71.6327V21.24C72.0061 20.7867 72.4794 20.4333 73.0527 20.18C73.6394 19.9267 74.2594 19.8 74.9127 19.8ZM82.381 25.44C82.381 24.3333 82.6077 23.3533 83.061 22.5C83.5277 21.6467 84.1543 20.9867 84.941 20.52C85.741 20.04 86.621 19.8 87.581 19.8C88.4477 19.8 89.201 19.9733 89.841 20.32C90.4943 20.6533 91.0143 21.0733 91.401 21.58V19.98H93.701V31H91.401V29.36C91.0143 29.88 90.4877 30.3133 89.821 30.66C89.1543 31.0067 88.3943 31.18 87.541 31.18C86.5943 31.18 85.7277 30.94 84.941 30.46C84.1543 29.9667 83.5277 29.2867 83.061 28.42C82.6077 27.54 82.381 26.5467 82.381 25.44ZM91.401 25.48C91.401 24.72 91.241 24.06 90.921 23.5C90.6143 22.94 90.2077 22.5133 89.701 22.22C89.1943 21.9267 88.6477 21.78 88.061 21.78C87.4743 21.78 86.9277 21.9267 86.421 22.22C85.9143 22.5 85.501 22.92 85.181 23.48C84.8743 24.0267 84.721 24.68 84.721 25.44C84.721 26.2 84.8743 26.8667 85.181 27.44C85.501 28.0133 85.9143 28.4533 86.421 28.76C86.941 29.0533 87.4877 29.2 88.061 29.2C88.6477 29.2 89.1943 29.0533 89.701 28.76C90.2077 28.4667 90.6143 28.04 90.921 27.48C91.241 26.9067 91.401 26.24 91.401 25.48ZM103.056 19.8C103.922 19.8 104.696 19.98 105.376 20.34C106.069 20.7 106.609 21.2333 106.996 21.94C107.382 22.6467 107.576 23.5 107.576 24.5V31H105.316V24.84C105.316 23.8533 105.069 23.1 104.576 22.58C104.082 22.0467 103.409 21.78 102.556 21.78C101.702 21.78 101.022 22.0467 100.516 22.58C100.022 23.1 99.7757 23.8533 99.7757 24.84V31H97.4957V19.98H99.7757V21.24C100.149 20.7867 100.622 20.4333 101.196 20.18C101.782 19.9267 102.402 19.8 103.056 19.8Z" fill="#2A3FFF"/>
</svg>
