<svg width="89" height="74" viewBox="0 0 89 74" fill="none" xmlns="http://www.w3.org/2000/svg">
<rect width="89" height="74" rx="5" fill="#EB6727" fill-opacity="0.14"/>
<path d="M50.8148 29.9244V26.8262C52.6148 25.92 54.5422 25.2404 56.5968 24.7874C58.6515 24.3343 60.7609 24.1078 62.925 24.1078C64.1623 24.1078 65.3504 24.1866 66.4894 24.3443C67.6262 24.5042 68.8009 24.7285 70.0136 25.0172V28.0422C68.8433 27.6713 67.7043 27.4136 66.5966 27.2693C65.4844 27.1271 64.2605 27.0561 62.925 27.0561C60.7587 27.0561 58.6459 27.2981 56.5868 27.7823C54.5232 28.2665 52.5981 28.9805 50.8114 29.9244M50.8114 48.1205V44.889C52.5266 43.9851 54.4439 43.3066 56.5633 42.8536C58.6828 42.4005 60.8033 42.174 62.925 42.174C64.1623 42.174 65.3504 42.2539 66.4894 42.4138C67.6262 42.5693 68.8009 42.7925 70.0136 43.0834V46.1083C68.8433 45.7374 67.7043 45.4798 66.5966 45.3355C65.4844 45.1933 64.2605 45.1222 62.925 45.1222C60.7587 45.1222 58.6459 45.3832 56.5868 45.9051C54.5232 46.4248 52.5981 47.1633 50.8114 48.1205ZM50.8114 39.0857V35.8576C52.6115 34.9515 54.5388 34.273 56.5935 33.8221C58.6482 33.3713 60.7587 33.1447 62.925 33.1425C64.1623 33.1425 65.3493 33.2203 66.486 33.3757C67.625 33.5356 68.7998 33.7611 70.0102 34.052V37.0769C68.8422 36.7038 67.7032 36.4462 66.5932 36.304C65.4833 36.1597 64.2605 36.0875 62.925 36.0875C60.7587 36.0875 58.6459 36.3518 56.5868 36.8804C54.5232 37.4067 52.5981 38.1418 50.8114 39.0857ZM46.175 55.6695C48.8907 54.1637 51.6299 53.0754 54.3925 52.4047C57.1552 51.734 59.9993 51.4008 62.925 51.4053C64.935 51.4053 66.7418 51.5285 68.3453 51.7751C69.9488 52.0216 71.3636 52.3503 72.5897 52.7612C73.1034 52.9744 73.5758 52.9422 74.0068 52.6645C74.4378 52.3869 74.6522 51.9494 74.65 51.352V21.316C74.65 20.9318 74.5428 20.5898 74.3284 20.29C74.114 19.9924 73.7488 19.737 73.2329 19.5238C71.3904 18.873 69.7143 18.4288 68.2046 18.1912C66.6949 17.9536 64.935 17.8325 62.925 17.8281C59.9993 17.8281 57.0815 18.2567 54.1714 19.114C51.2592 19.9735 48.5937 21.2616 46.175 22.9784V55.6695ZM44.5 60.5C41.7753 58.6477 38.8497 57.2241 35.723 56.2291C32.5963 55.2342 29.3803 54.7367 26.075 54.7367C24.333 54.7367 22.62 54.881 20.9361 55.1698C19.2544 55.4607 17.6174 55.9271 16.025 56.5689C14.8101 57.0509 13.6688 56.9054 12.6013 56.1325C11.5338 55.3596 11 54.2903 11 52.9244V20.7264C11 19.9024 11.2177 19.1373 11.6532 18.4311C12.0887 17.7248 12.6996 17.234 13.4857 16.9586C15.4667 16.108 17.5169 15.4861 19.6363 15.093C21.7557 14.6999 23.902 14.5022 26.075 14.5C29.358 14.5 32.5584 14.9697 35.6761 15.9092C38.7983 16.8486 41.7396 18.2145 44.5 20.0068C47.2626 18.2145 50.2039 16.8486 53.3239 15.9092C56.4439 14.9697 59.6442 14.5 62.925 14.5C65.098 14.5 67.2443 14.6977 69.3637 15.093C71.4854 15.4861 73.5356 16.108 75.5143 16.9586C76.3004 17.2362 76.9112 17.727 77.3467 18.4311C77.7822 19.1351 78 19.9002 78 20.7264V52.9244C78 54.288 77.4238 55.3352 76.2714 56.0659C75.1168 56.7944 73.8884 56.9176 72.5864 56.4357C71.0387 55.836 69.4553 55.403 67.8361 55.1364C66.2192 54.8677 64.5821 54.7333 62.925 54.7333C59.6197 54.7333 56.4037 55.2308 53.277 56.2258C50.1503 57.2208 47.2247 58.6444 44.5 60.4967" fill="#EB6727"/>
</svg>
