<svg width="89" height="74" viewBox="0 0 89 74" fill="none" xmlns="http://www.w3.org/2000/svg">
<rect width="89" height="74" rx="5" fill="#EB6727" fill-opacity="0.14"/>
<path d="M46.6665 37H65.3332V41H46.6665M46.6665 30.3333H65.3332V34.3333H46.6665M46.6665 43.6667H65.3332V47.6667H46.6665M67.9998 15.6667H19.9998C18.5853 15.6667 17.2288 16.2286 16.2286 17.2288C15.2284 18.2289 14.6665 19.5855 14.6665 21V55.6667C14.6665 57.0811 15.2284 58.4377 16.2286 59.4379C17.2288 60.4381 18.5853 61 19.9998 61H67.9998C69.4143 61 70.7709 60.4381 71.7711 59.4379C72.7713 58.4377 73.3332 57.0811 73.3332 55.6667V21C73.3332 19.5855 72.7713 18.2289 71.7711 17.2288C70.7709 16.2286 69.4143 15.6667 67.9998 15.6667ZM67.9998 55.6667H43.9998V21H67.9998" fill="#EB6727"/>
</svg>
