<svg width="229" height="55" viewBox="0 0 229 55" fill="none" xmlns="http://www.w3.org/2000/svg">
<rect x="1" y="1" width="227" height="53" rx="9" stroke="#2A3FFF" stroke-width="2"/>
<path fill-rule="evenodd" clip-rule="evenodd" d="M29 18.681C27.075 18.6815 25.2291 19.4465 23.8681 20.8078C22.507 22.169 21.7423 24.015 21.742 25.94V27.682C21.742 27.913 21.6502 28.1345 21.4869 28.2979C21.3235 28.4612 21.102 28.553 20.871 28.553C20.64 28.553 20.4185 28.4612 20.2551 28.2979C20.0918 28.1345 20 27.913 20 27.682V25.94C20 23.5531 20.9482 21.2639 22.636 19.576C24.3239 17.8882 26.6131 16.94 29 16.94C31.3869 16.94 33.6761 17.8882 35.364 19.576C37.0518 21.2639 38 23.5531 38 25.94V30.585C37.9997 31.7398 37.5408 32.8473 36.7241 33.6638C35.9074 34.4803 34.7998 34.939 33.645 34.939H31.012C30.61 35.46 29.86 35.811 29 35.811C27.717 35.811 26.677 35.031 26.677 34.069C26.677 33.107 27.717 32.327 29 32.327C29.86 32.327 30.61 32.677 31.012 33.197H33.645C34.3378 33.197 35.0023 32.9218 35.4923 32.432C35.9823 31.9422 36.2577 31.2778 36.258 30.585V25.94C36.258 24.0149 35.4934 22.1686 34.1323 20.8071C32.7712 19.4457 30.9251 18.6815 29 18.681ZM24.935 24.778C24.3191 24.7783 23.7285 25.0231 23.293 25.4587C22.8576 25.8944 22.613 26.4851 22.613 27.101V28.843C22.6133 29.4588 22.858 30.0492 23.2934 30.4846C23.7288 30.92 24.3192 31.1647 24.935 31.165H25.516C26.157 31.165 26.677 30.645 26.677 30.004V25.94C26.677 25.298 26.157 24.778 25.517 24.778H24.935ZM33.065 24.778C33.6809 24.7783 34.2715 25.0231 34.707 25.4587C35.1424 25.8944 35.387 26.4851 35.387 27.101V28.843C35.3867 29.4589 35.1419 30.0495 34.7063 30.485C34.2706 30.9204 33.6799 31.165 33.064 31.165H32.484C32.3315 31.1651 32.1805 31.1352 32.0395 31.0769C31.8986 31.0186 31.7706 30.9331 31.6628 30.8252C31.5549 30.7174 31.4694 30.5894 31.4111 30.4485C31.3528 30.3075 31.3229 30.1565 31.323 30.004V25.94C31.323 25.298 31.843 24.778 32.483 24.778H33.065Z" fill="#2A3FFF"/>
<path d="M62.6 20.1V34H60.32V27.92H53.78V34H51.5V20.1H53.78V26.06H60.32V20.1H62.6ZM77.3816 22.98V34H75.1016V32.7C74.7416 33.1533 74.2682 33.5133 73.6816 33.78C73.1082 34.0333 72.4949 34.16 71.8416 34.16C70.9749 34.16 70.1949 33.98 69.5016 33.62C68.8216 33.26 68.2816 32.7267 67.8816 32.02C67.4949 31.3133 67.3016 30.46 67.3016 29.46V22.98H69.5616V29.12C69.5616 30.1067 69.8082 30.8667 70.3016 31.4C70.7949 31.92 71.4682 32.18 72.3216 32.18C73.1749 32.18 73.8482 31.92 74.3416 31.4C74.8482 30.8667 75.1016 30.1067 75.1016 29.12V22.98H77.3816ZM84.4698 24.62C84.8565 24.0867 85.3832 23.6533 86.0498 23.32C86.7298 22.9733 87.4832 22.8 88.3098 22.8C89.2832 22.8 90.1632 23.0333 90.9498 23.5C91.7365 23.9667 92.3565 24.6333 92.8098 25.5C93.2632 26.3533 93.4898 27.3333 93.4898 28.44C93.4898 29.5467 93.2632 30.54 92.8098 31.42C92.3565 32.2867 91.7298 32.9667 90.9298 33.46C90.1432 33.94 89.2698 34.18 88.3098 34.18C87.4565 34.18 86.6965 34.0133 86.0298 33.68C85.3765 33.3467 84.8565 32.92 84.4698 32.4V34H82.1898V19.2H84.4698V24.62ZM91.1698 28.44C91.1698 27.68 91.0098 27.0267 90.6898 26.48C90.3832 25.92 89.9698 25.5 89.4498 25.22C88.9432 24.9267 88.3965 24.78 87.8098 24.78C87.2365 24.78 86.6898 24.9267 86.1698 25.22C85.6632 25.5133 85.2498 25.94 84.9298 26.5C84.6232 27.06 84.4698 27.72 84.4698 28.48C84.4698 29.24 84.6232 29.9067 84.9298 30.48C85.2498 31.04 85.6632 31.4667 86.1698 31.76C86.6898 32.0533 87.2365 32.2 87.8098 32.2C88.3965 32.2 88.9432 32.0533 89.4498 31.76C89.9698 31.4533 90.3832 31.0133 90.6898 30.44C91.0098 29.8667 91.1698 29.2 91.1698 28.44ZM107.525 22.98V34H105.245V32.7C104.885 33.1533 104.411 33.5133 103.825 33.78C103.251 34.0333 102.638 34.16 101.985 34.16C101.118 34.16 100.338 33.98 99.6445 33.62C98.9645 33.26 98.4245 32.7267 98.0245 32.02C97.6379 31.3133 97.4445 30.46 97.4445 29.46V22.98H99.7045V29.12C99.7045 30.1067 99.9512 30.8667 100.445 31.4C100.938 31.92 101.611 32.18 102.465 32.18C103.318 32.18 103.991 31.92 104.485 31.4C104.991 30.8667 105.245 30.1067 105.245 29.12V22.98H107.525ZM117.893 22.8C118.759 22.8 119.533 22.98 120.213 23.34C120.906 23.7 121.446 24.2333 121.833 24.94C122.219 25.6467 122.413 26.5 122.413 27.5V34H120.153V27.84C120.153 26.8533 119.906 26.1 119.413 25.58C118.919 25.0467 118.246 24.78 117.393 24.78C116.539 24.78 115.859 25.0467 115.353 25.58C114.859 26.1 114.613 26.8533 114.613 27.84V34H112.333V22.98H114.613V24.24C114.986 23.7867 115.459 23.4333 116.033 23.18C116.619 22.9267 117.239 22.8 117.893 22.8ZM131.561 22.8C132.414 22.8 133.168 22.9733 133.821 23.32C134.488 23.6533 135.008 24.0733 135.381 24.58V22.98H137.681V34.18C137.681 35.1933 137.468 36.0933 137.041 36.88C136.614 37.68 135.994 38.3067 135.181 38.76C134.381 39.2133 133.421 39.44 132.301 39.44C130.808 39.44 129.568 39.0867 128.581 38.38C127.594 37.6867 127.034 36.74 126.901 35.54H129.161C129.334 36.1133 129.701 36.5733 130.261 36.92C130.834 37.28 131.514 37.46 132.301 37.46C133.221 37.46 133.961 37.18 134.521 36.62C135.094 36.06 135.381 35.2467 135.381 34.18V32.34C134.994 32.86 134.468 33.3 133.801 33.66C133.148 34.0067 132.401 34.18 131.561 34.18C130.601 34.18 129.721 33.94 128.921 33.46C128.134 32.9667 127.508 32.2867 127.041 31.42C126.588 30.54 126.361 29.5467 126.361 28.44C126.361 27.3333 126.588 26.3533 127.041 25.5C127.508 24.6467 128.134 23.9867 128.921 23.52C129.721 23.04 130.601 22.8 131.561 22.8ZM135.381 28.48C135.381 27.72 135.221 27.06 134.901 26.5C134.594 25.94 134.188 25.5133 133.681 25.22C133.174 24.9267 132.628 24.78 132.041 24.78C131.454 24.78 130.908 24.9267 130.401 25.22C129.894 25.5 129.481 25.92 129.161 26.48C128.854 27.0267 128.701 27.68 128.701 28.44C128.701 29.2 128.854 29.8667 129.161 30.44C129.481 31.0133 129.894 31.4533 130.401 31.76C130.921 32.0533 131.468 32.2 132.041 32.2C132.628 32.2 133.174 32.0533 133.681 31.76C134.188 31.4667 134.594 31.04 134.901 30.48C135.221 29.9067 135.381 29.24 135.381 28.48ZM143.636 21.52C143.222 21.52 142.876 21.38 142.596 21.1C142.316 20.82 142.176 20.4733 142.176 20.06C142.176 19.6467 142.316 19.3 142.596 19.02C142.876 18.74 143.222 18.6 143.636 18.6C144.036 18.6 144.376 18.74 144.656 19.02C144.936 19.3 145.076 19.6467 145.076 20.06C145.076 20.4733 144.936 20.82 144.656 21.1C144.376 21.38 144.036 21.52 143.636 21.52ZM144.756 22.98V34H142.476V22.98H144.756ZM164.205 34L158.825 27.78V34H156.545V20.1H158.825V26.44L164.225 20.1H167.085L161.045 27.06L167.185 34H164.205ZM170.241 28.44C170.241 27.3333 170.467 26.3533 170.921 25.5C171.387 24.6467 172.014 23.9867 172.801 23.52C173.601 23.04 174.481 22.8 175.441 22.8C176.307 22.8 177.061 22.9733 177.701 23.32C178.354 23.6533 178.874 24.0733 179.261 24.58V22.98H181.561V34H179.261V32.36C178.874 32.88 178.347 33.3133 177.681 33.66C177.014 34.0067 176.254 34.18 175.401 34.18C174.454 34.18 173.587 33.94 172.801 33.46C172.014 32.9667 171.387 32.2867 170.921 31.42C170.467 30.54 170.241 29.5467 170.241 28.44ZM179.261 28.48C179.261 27.72 179.101 27.06 178.781 26.5C178.474 25.94 178.067 25.5133 177.561 25.22C177.054 24.9267 176.507 24.78 175.921 24.78C175.334 24.78 174.787 24.9267 174.281 25.22C173.774 25.5 173.361 25.92 173.041 26.48C172.734 27.0267 172.581 27.68 172.581 28.44C172.581 29.2 172.734 29.8667 173.041 30.44C173.361 31.0133 173.774 31.4533 174.281 31.76C174.801 32.0533 175.347 32.2 175.921 32.2C176.507 32.2 177.054 32.0533 177.561 31.76C178.067 31.4667 178.474 31.04 178.781 30.48C179.101 29.9067 179.261 29.24 179.261 28.48ZM199.695 22.8C200.562 22.8 201.335 22.98 202.015 23.34C202.709 23.7 203.249 24.2333 203.635 24.94C204.035 25.6467 204.235 26.5 204.235 27.5V34H201.975V27.84C201.975 26.8533 201.729 26.1 201.235 25.58C200.742 25.0467 200.069 24.78 199.215 24.78C198.362 24.78 197.682 25.0467 197.175 25.58C196.682 26.1 196.435 26.8533 196.435 27.84V34H194.175V27.84C194.175 26.8533 193.929 26.1 193.435 25.58C192.942 25.0467 192.269 24.78 191.415 24.78C190.562 24.78 189.882 25.0467 189.375 25.58C188.882 26.1 188.635 26.8533 188.635 27.84V34H186.355V22.98H188.635V24.24C189.009 23.7867 189.482 23.4333 190.055 23.18C190.629 22.9267 191.242 22.8 191.895 22.8C192.775 22.8 193.562 22.9867 194.255 23.36C194.949 23.7333 195.482 24.2733 195.855 24.98C196.189 24.3133 196.709 23.7867 197.415 23.4C198.122 23 198.882 22.8 199.695 22.8ZM210.097 21.52C209.683 21.52 209.337 21.38 209.057 21.1C208.777 20.82 208.637 20.4733 208.637 20.06C208.637 19.6467 208.777 19.3 209.057 19.02C209.337 18.74 209.683 18.6 210.097 18.6C210.497 18.6 210.837 18.74 211.117 19.02C211.397 19.3 211.537 19.6467 211.537 20.06C211.537 20.4733 211.397 20.82 211.117 21.1C210.837 21.38 210.497 21.52 210.097 21.52ZM211.217 22.98V34H208.937V22.98H211.217Z" fill="#2A3FFF"/>
</svg>
