<svg width="18" height="19" viewBox="0 0 18 19" fill="none" xmlns="http://www.w3.org/2000/svg">
<path fill-rule="evenodd" clip-rule="evenodd" d="M9 1.741C7.07505 1.74153 5.2291 2.50652 3.86805 3.86776C2.507 5.229 1.74227 7.07505 1.742 9V10.742C1.742 10.973 1.65023 11.1945 1.48689 11.3579C1.32355 11.5212 1.102 11.613 0.871 11.613C0.639996 11.613 0.418454 11.5212 0.25511 11.3579C0.0917658 11.1945 0 10.973 0 10.742V9C3.55683e-08 6.61305 0.948211 4.32387 2.63604 2.63604C4.32387 0.948211 6.61305 0 9 0C11.3869 0 13.6761 0.948211 15.364 2.63604C17.0518 4.32387 18 6.61305 18 9V13.645C17.9997 14.7998 17.5408 15.9073 16.7241 16.7238C15.9074 17.5403 14.7998 17.999 13.645 17.999H11.012C10.61 18.52 9.86 18.871 9 18.871C7.717 18.871 6.677 18.091 6.677 17.129C6.677 16.167 7.717 15.387 9 15.387C9.86 15.387 10.61 15.737 11.012 16.257H13.645C14.3378 16.257 15.0023 15.9818 15.4923 15.492C15.9823 15.0022 16.2577 14.3378 16.258 13.645V9C16.258 7.07487 15.4934 5.22857 14.1323 3.86711C12.7712 2.50566 10.9251 1.74153 9 1.741ZM4.935 7.838C4.31908 7.83826 3.72847 8.08313 3.29304 8.51874C2.85761 8.95436 2.613 9.54507 2.613 10.161V11.903C2.61326 12.5188 2.85799 13.1092 3.29339 13.5446C3.72879 13.98 4.31925 14.2247 4.935 14.225H5.516C6.157 14.225 6.677 13.705 6.677 13.064V9C6.677 8.358 6.157 7.838 5.517 7.838H4.935ZM13.065 7.838C13.6809 7.83826 14.2715 8.08313 14.707 8.51874C15.1424 8.95436 15.387 9.54507 15.387 10.161V11.903C15.3867 12.5189 15.1419 13.1095 14.7063 13.545C14.2706 13.9804 13.6799 14.225 13.064 14.225H12.484C12.3315 14.2251 12.1805 14.1952 12.0395 14.1369C11.8986 14.0786 11.7706 13.9931 11.6628 13.8852C11.5549 13.7774 11.4694 13.6494 11.4111 13.5085C11.3528 13.3675 11.3229 13.2165 11.323 13.064V9C11.323 8.358 11.843 7.838 12.483 7.838H13.065Z" fill="#EB6727"/>
</svg>
