<svg width="24" height="24" viewBox="0 0 24 24" fill="none" xmlns="http://www.w3.org/2000/svg">
<path fill-rule="evenodd" clip-rule="evenodd" d="M12 3.681C10.075 3.68153 8.2291 4.44652 6.86805 5.80776C5.507 7.169 4.74227 9.01505 4.742 10.94V12.682C4.742 12.913 4.65023 13.1345 4.48689 13.2979C4.32355 13.4612 4.102 13.553 3.871 13.553C3.64 13.553 3.41845 13.4612 3.25511 13.2979C3.09177 13.1345 3 12.913 3 12.682V10.94C3 8.55305 3.94821 6.26387 5.63604 4.57604C7.32387 2.88821 9.61305 1.94 12 1.94C14.3869 1.94 16.6761 2.88821 18.364 4.57604C20.0518 6.26387 21 8.55305 21 10.94V15.585C20.9997 16.7398 20.5408 17.8473 19.7241 18.6638C18.9074 19.4803 17.7998 19.939 16.645 19.939H14.012C13.61 20.46 12.86 20.811 12 20.811C10.717 20.811 9.677 20.031 9.677 19.069C9.677 18.107 10.717 17.327 12 17.327C12.86 17.327 13.61 17.677 14.012 18.197H16.645C17.3378 18.197 18.0023 17.9218 18.4923 17.432C18.9823 16.9422 19.2577 16.2778 19.258 15.585V10.94C19.258 9.01488 18.4934 7.16857 17.1323 5.80711C15.7712 4.44566 13.9251 3.68153 12 3.681ZM7.935 9.778C7.31908 9.77827 6.72847 10.0231 6.29304 10.4587C5.85761 10.8944 5.613 11.4851 5.613 12.101V13.843C5.61326 14.4588 5.85799 15.0492 6.29339 15.4846C6.72879 15.92 7.31925 16.1647 7.935 16.165H8.516C9.157 16.165 9.677 15.645 9.677 15.004V10.94C9.677 10.298 9.157 9.778 8.517 9.778H7.935ZM16.065 9.778C16.6809 9.77827 17.2715 10.0231 17.707 10.4587C18.1424 10.8944 18.387 11.4851 18.387 12.101V13.843C18.3867 14.4589 18.1419 15.0495 17.7063 15.485C17.2706 15.9204 16.6799 16.165 16.064 16.165H15.484C15.3315 16.1651 15.1805 16.1352 15.0395 16.0769C14.8986 16.0186 14.7706 15.9331 14.6628 15.8252C14.5549 15.7174 14.4694 15.5894 14.4111 15.4485C14.3528 15.3075 14.3229 15.1565 14.323 15.004V10.94C14.323 10.298 14.843 9.778 15.483 9.778H16.065Z" fill="#2A3FFF"/>
</svg>
