<svg width="50" height="50" viewBox="0 0 50 50" fill="none" xmlns="http://www.w3.org/2000/svg">
<rect width="50" height="50" rx="5" fill="#EB6727" fill-opacity="0.14"/>
<path d="M30.2548 32.9507C30.5615 30.4453 28.9482 28.848 24.6882 27.488C22.6242 26.784 21.6522 25.8613 21.6748 24.5933C21.7615 23.1853 23.0722 22.16 24.8108 22.1267C26.1801 22.1414 27.5155 22.5537 28.6548 23.3133C28.8095 23.4093 28.9175 23.3933 29.0055 23.26C29.1255 23.068 29.4255 22.6027 29.5255 22.4333C29.5935 22.3267 29.6068 22.1853 29.4348 22.06C29.1882 21.8773 28.4962 21.5067 28.1242 21.3507C27.0647 20.9023 25.9266 20.6693 24.7762 20.6653C22.2295 20.676 20.2255 22.2853 20.0562 24.4333C19.9477 25.9853 20.7166 27.2418 22.3628 28.2027C22.7135 28.4053 24.6028 29.1573 25.3548 29.392C27.7202 30.128 28.9482 31.448 28.6588 32.988C28.3962 34.384 26.9268 35.2867 24.9015 35.3133C23.2975 35.252 21.8522 34.5973 20.7322 33.7267L20.5442 33.58C20.4055 33.4733 20.2535 33.48 20.1615 33.62C20.0948 33.7227 19.6602 34.3493 19.5508 34.5133C19.4482 34.6573 19.5042 34.7373 19.6108 34.8253C20.0775 35.216 20.7002 35.6427 21.1228 35.8587C22.2936 36.4553 23.5815 36.7862 24.8948 36.828C25.8403 36.873 26.7843 36.7119 27.6615 36.356C29.1215 35.736 30.0655 34.4973 30.2548 32.9507ZM25.0002 10.868C22.2428 10.868 19.9948 13.468 19.8895 16.7213H30.1095C30.0015 13.4667 27.7548 10.8667 25.0002 10.8667M35.4682 40.9973L35.3615 40.9987L14.3162 40.996C12.8842 40.9427 11.8322 39.7827 11.6882 38.3413L11.6748 38.0813L10.7322 17.38C10.726 17.2968 10.7368 17.2133 10.764 17.1345C10.7912 17.0556 10.8342 16.9832 10.8904 16.9215C10.9465 16.8599 11.0147 16.8103 11.0906 16.7759C11.1666 16.7415 11.2488 16.7229 11.3322 16.7213H17.9655C18.1268 12.424 21.2135 9 25.0002 9C28.7868 9 31.8708 12.4253 32.0335 16.72H38.6575C38.7405 16.7203 38.8225 16.7373 38.8987 16.7702C38.9749 16.8031 39.0436 16.8511 39.1006 16.9113C39.1577 16.9715 39.202 17.0427 39.2308 17.1205C39.2596 17.1983 39.2723 17.2811 39.2682 17.364L38.2375 38.148L38.2282 38.3227C38.1028 39.7813 36.9228 40.9587 35.4682 40.9973Z" fill="#EB6727"/>
</svg>
