<svg width="50" height="50" viewBox="0 0 50 50" fill="none" xmlns="http://www.w3.org/2000/svg">
<rect width="50" height="50" rx="5" fill="#EB6727" fill-opacity="0.14"/>
<g filter="url(#filter0_d_89_297)">
<circle cx="25" cy="25" r="16" fill="white"/>
</g>
<path d="M37.4618 16.8448C33.0218 9.99977 23.9568 7.96477 16.9268 12.2198C10.0818 16.4748 7.86179 25.7248 12.3018 32.5698L12.6718 33.1248L11.1918 38.6748L16.7418 37.1948L17.2968 37.5648C19.7018 38.8598 22.2918 39.5998 24.8818 39.5998C27.6568 39.5998 30.4318 38.8598 32.8368 37.3798C39.6818 32.9398 41.7168 23.8748 37.4618 16.8448ZM33.5768 31.0898C32.8368 32.1998 31.9118 32.9398 30.6168 33.1248C29.8768 33.1248 28.9518 33.4948 25.2518 32.0148C22.1068 30.5348 19.5168 28.1298 17.6668 25.3548C16.5568 24.0598 16.0018 22.3948 15.8168 20.7298C15.8168 19.2498 16.3718 17.9548 17.2968 17.0298C17.6668 16.6598 18.0368 16.4748 18.4068 16.4748H19.3318C19.7018 16.4748 20.0718 16.4748 20.2568 17.2148C20.6268 18.1398 21.5518 20.3598 21.5518 20.5448C21.7368 20.7298 21.7368 21.0998 21.5518 21.2848C21.7368 21.6548 21.5518 22.0248 21.3668 22.2098C21.1818 22.3948 20.9968 22.7648 20.8118 22.9498C20.4418 23.1348 20.2568 23.5048 20.4418 23.8748C21.1818 24.9848 22.1068 26.0948 23.0318 27.0198C24.1418 27.9448 25.2518 28.6848 26.5468 29.2398C26.9168 29.4248 27.2868 29.4248 27.4718 29.0548C27.6568 28.6848 28.5818 27.7598 28.9518 27.3898C29.3218 27.0198 29.5068 27.0198 29.8768 27.2048L32.8368 28.6848C33.2068 28.8698 33.5768 29.0548 33.7618 29.2398C33.9468 29.7948 33.9468 30.5348 33.5768 31.0898Z" fill="#EB6727"/>
<defs>
<filter id="filter0_d_89_297" x="9" y="9" width="32.9" height="33.9" filterUnits="userSpaceOnUse" color-interpolation-filters="sRGB">
<feFlood flood-opacity="0" result="BackgroundImageFix"/>
<feColorMatrix in="SourceAlpha" type="matrix" values="0 0 0 0 0 0 0 0 0 0 0 0 0 0 0 0 0 0 127 0" result="hardAlpha"/>
<feMorphology radius="2" operator="erode" in="SourceAlpha" result="effect1_dropShadow_89_297"/>
<feOffset dx="2" dy="3"/>
<feGaussianBlur stdDeviation="0.45"/>
<feComposite in2="hardAlpha" operator="out"/>
<feColorMatrix type="matrix" values="0 0 0 0 0 0 0 0 0 0 0 0 0 0 0 0 0 0 0.25 0"/>
<feBlend mode="normal" in2="BackgroundImageFix" result="effect1_dropShadow_89_297"/>
<feBlend mode="normal" in="SourceGraphic" in2="effect1_dropShadow_89_297" result="shape"/>
</filter>
</defs>
</svg>
