<svg width="29" height="37" viewBox="0 0 29 37" fill="none" xmlns="http://www.w3.org/2000/svg">
<ellipse cx="14.5" cy="11.5" rx="10.5" ry="11.5" fill="#EB6727"/>
<ellipse cx="14.5" cy="10.5" rx="7.5" ry="8.5" fill="white"/>
<path d="M0 35.5V10.5C0 9.94772 0.447716 9.5 1 9.5H28C28.5523 9.5 29 9.94761 29 10.4999V29C29 32.5062 24.5733 35.3485 22.1869 36.418C22.0634 36.4734 21.9302 36.5 21.7947 36.5H1C0.447715 36.5 0 36.0523 0 35.5Z" fill="#EB6727"/>
<circle cx="7.5" cy="19.5" r="5.5" fill="white"/>
<circle cx="8" cy="20" r="4" fill="#252323"/>
<circle cx="21.5" cy="19.5" r="5.5" fill="white"/>
<circle cx="21" cy="20" r="4" fill="#252323"/>
<circle cx="19" cy="18" r="2" fill="white"/>
<circle cx="6" cy="17" r="2" fill="white"/>
<path d="M14.2727 33L11 29.4718C13.7273 23.0034 17 27.1198 17 29.4718L14.2727 33Z" fill="#7C2900"/>
<path d="M14.2667 31L10 28.9807C12.6667 23.4274 18 26.9613 18 28.9806L14.2667 31Z" fill="#FDA77D"/>
</svg>
