<svg width="87" height="87" viewBox="0 0 87 87" fill="none" xmlns="http://www.w3.org/2000/svg">
<rect width="87" height="87" rx="43.5" fill="#C13584"/>
<path d="M32.475 17.25H54.525C62.925 17.25 69.75 24.075 69.75 32.475V54.525C69.75 58.5629 68.1459 62.4355 65.2907 65.2907C62.4355 68.1459 58.5629 69.75 54.525 69.75H32.475C24.075 69.75 17.25 62.925 17.25 54.525V32.475C17.25 28.4371 18.8541 24.5645 21.7093 21.7093C24.5645 18.8541 28.4371 17.25 32.475 17.25ZM31.95 22.5C29.4437 22.5 27.0401 23.4956 25.2678 25.2678C23.4956 27.0401 22.5 29.4437 22.5 31.95V55.05C22.5 60.2737 26.7262 64.5 31.95 64.5H55.05C57.5563 64.5 59.9599 63.5044 61.7322 61.7322C63.5044 59.9599 64.5 57.5563 64.5 55.05V31.95C64.5 26.7262 60.2737 22.5 55.05 22.5H31.95ZM57.2812 26.4375C58.1515 26.4375 58.9861 26.7832 59.6014 27.3986C60.2168 28.0139 60.5625 28.8485 60.5625 29.7188C60.5625 30.589 60.2168 31.4236 59.6014 32.0389C58.9861 32.6543 58.1515 33 57.2812 33C56.411 33 55.5764 32.6543 54.9611 32.0389C54.3457 31.4236 54 30.589 54 29.7188C54 28.8485 54.3457 28.0139 54.9611 27.3986C55.5764 26.7832 56.411 26.4375 57.2812 26.4375ZM43.5 30.375C46.981 30.375 50.3194 31.7578 52.7808 34.2192C55.2422 36.6806 56.625 40.019 56.625 43.5C56.625 46.981 55.2422 50.3194 52.7808 52.7808C50.3194 55.2422 46.981 56.625 43.5 56.625C40.019 56.625 36.6806 55.2422 34.2192 52.7808C31.7578 50.3194 30.375 46.981 30.375 43.5C30.375 40.019 31.7578 36.6806 34.2192 34.2192C36.6806 31.7578 40.019 30.375 43.5 30.375ZM43.5 35.625C41.4114 35.625 39.4084 36.4547 37.9315 37.9315C36.4547 39.4084 35.625 41.4114 35.625 43.5C35.625 45.5886 36.4547 47.5916 37.9315 49.0685C39.4084 50.5453 41.4114 51.375 43.5 51.375C45.5886 51.375 47.5916 50.5453 49.0685 49.0685C50.5453 47.5916 51.375 45.5886 51.375 43.5C51.375 41.4114 50.5453 39.4084 49.0685 37.9315C47.5916 36.4547 45.5886 35.625 43.5 35.625Z" fill="white"/>
</svg>
