<svg width="87" height="87" viewBox="0 0 87 87" fill="none" xmlns="http://www.w3.org/2000/svg">
<rect width="87" height="87" rx="43.5" fill="#25D366"/>
<path d="M62.8001 25.0933C60.355 22.6242 57.4429 20.6665 54.2335 19.3342C51.0241 18.002 47.5817 17.3218 44.1068 17.3333C29.5468 17.3333 17.6801 29.1999 17.6801 43.7599C17.6801 48.4266 18.9068 52.9599 21.2001 56.9599L17.4668 70.6666L31.4668 66.9866C35.3335 69.0933 39.6801 70.2133 44.1068 70.2133C58.6668 70.2133 70.5335 58.3466 70.5335 43.7866C70.5335 36.7199 67.7868 30.0799 62.8001 25.0933ZM44.1068 65.7333C40.1601 65.7333 36.2935 64.6666 32.9068 62.6666L32.1068 62.1866L23.7868 64.3733L26.0001 56.2666L25.4668 55.4399C23.2736 51.9388 22.1093 47.8913 22.1068 43.7599C22.1068 31.6533 31.9735 21.7866 44.0801 21.7866C49.9468 21.7866 55.4668 24.0799 59.6001 28.2399C61.6471 30.2769 63.2692 32.7001 64.3725 35.3688C65.4757 38.0376 66.038 40.8988 66.0268 43.7866C66.0801 55.8933 56.2135 65.7333 44.1068 65.7333ZM56.1601 49.3066C55.4935 48.9866 52.2401 47.3866 51.6535 47.1466C51.0401 46.9333 50.6135 46.8266 50.1601 47.4666C49.7068 48.1333 48.4535 49.6266 48.0801 50.0533C47.7068 50.5066 47.3068 50.5599 46.6401 50.2133C45.9735 49.8933 43.8401 49.1733 41.3335 46.9333C39.3601 45.1733 38.0535 43.0133 37.6535 42.3466C37.2801 41.6799 37.6001 41.3333 37.9468 40.9866C38.2401 40.6933 38.6135 40.2133 38.9335 39.8399C39.2535 39.4666 39.3868 39.1733 39.6001 38.7466C39.8135 38.2933 39.7068 37.9199 39.5468 37.5999C39.3868 37.2799 38.0535 34.0266 37.5201 32.6933C36.9868 31.4133 36.4268 31.5733 36.0268 31.5466H34.7468C34.2935 31.5466 33.6001 31.7066 32.9868 32.3733C32.4001 33.0399 30.6935 34.6399 30.6935 37.8933C30.6935 41.1466 33.0668 44.2933 33.3868 44.7199C33.7068 45.1733 38.0535 51.8399 44.6668 54.6933C46.2401 55.3866 47.4668 55.7866 48.4268 56.0799C50.0001 56.5866 51.4401 56.5066 52.5868 56.3466C53.8668 56.1599 56.5068 54.7466 57.0401 53.1999C57.6001 51.6533 57.6001 50.3466 57.4135 50.0533C57.2268 49.7599 56.8268 49.6266 56.1601 49.3066Z" fill="white"/>
</svg>
