<svg width="50" height="50" viewBox="0 0 50 50" fill="none" xmlns="http://www.w3.org/2000/svg">
<rect width="50" height="50" rx="5" fill="#EB6727" fill-opacity="0.14"/>
<ellipse cx="24.5" cy="18.25" rx="10.5" ry="11.5" fill="#EB6727"/>
<ellipse cx="24.5" cy="17.25" rx="7.5" ry="8.5" fill="white"/>
<path d="M10 42.25V17.25C10 16.6977 10.4477 16.25 11 16.25H38C38.5523 16.25 39 16.6976 39 17.2499V35.75C39 39.2562 34.5733 42.0985 32.1869 43.168C32.0634 43.2234 31.9302 43.25 31.7947 43.25H11C10.4477 43.25 10 42.8023 10 42.25Z" fill="#EB6727"/>
<circle cx="17.5" cy="26.25" r="5.5" fill="white"/>
<circle cx="18" cy="26.75" r="4" fill="#252323"/>
<circle cx="31.5" cy="26.25" r="5.5" fill="white"/>
<circle cx="31" cy="26.75" r="4" fill="#252323"/>
<circle cx="29" cy="24.75" r="2" fill="white"/>
<circle cx="16" cy="23.75" r="2" fill="white"/>
<path d="M24.2727 39.75L21 36.2218C23.7273 29.7534 27 33.8698 27 36.2218L24.2727 39.75Z" fill="#7C2900"/>
<path d="M24.2667 37.75L20 35.7307C22.6667 30.1774 28 33.7113 28 35.7306L24.2667 37.75Z" fill="#FDA77D"/>
</svg>
