<svg width="33" height="34" viewBox="0 0 33 34" fill="none" xmlns="http://www.w3.org/2000/svg">
<g filter="url(#filter0_d_248_1416)">
<circle cx="16" cy="16" r="16" fill="white"/>
</g>
<path d="M28.4618 7.84477C24.0218 0.999774 14.9568 -1.03523 7.92679 3.21977C1.08179 7.47477 -1.13821 16.7248 3.30179 23.5698L3.67179 24.1248L2.19179 29.6748L7.74179 28.1948L8.29679 28.5648C10.7018 29.8598 13.2918 30.5998 15.8818 30.5998C18.6568 30.5998 21.4318 29.8598 23.8368 28.3798C30.6818 23.9398 32.7168 14.8748 28.4618 7.84477ZM24.5768 22.0898C23.8368 23.1998 22.9118 23.9398 21.6168 24.1248C20.8768 24.1248 19.9518 24.4948 16.2518 23.0148C13.1068 21.5348 10.5168 19.1298 8.66679 16.3548C7.55679 15.0598 7.00179 13.3948 6.81679 11.7298C6.81679 10.2498 7.37179 8.95477 8.29679 8.02977C8.66679 7.65977 9.03679 7.47477 9.40679 7.47477H10.3318C10.7018 7.47477 11.0718 7.47477 11.2568 8.21477C11.6268 9.13977 12.5518 11.3598 12.5518 11.5448C12.7368 11.7298 12.7368 12.0998 12.5518 12.2848C12.7368 12.6548 12.5518 13.0248 12.3668 13.2098C12.1818 13.3948 11.9968 13.7648 11.8118 13.9498C11.4418 14.1348 11.2568 14.5048 11.4418 14.8748C12.1818 15.9848 13.1068 17.0948 14.0318 18.0198C15.1418 18.9448 16.2518 19.6848 17.5468 20.2398C17.9168 20.4248 18.2868 20.4248 18.4718 20.0548C18.6568 19.6848 19.5818 18.7598 19.9518 18.3898C20.3218 18.0198 20.5068 18.0198 20.8768 18.2048L23.8368 19.6848C24.2068 19.8698 24.5768 20.0548 24.7618 20.2398C24.9468 20.7948 24.9468 21.5348 24.5768 22.0898Z" fill="#EB6727"/>
<defs>
<filter id="filter0_d_248_1416" x="0" y="0" width="32.9" height="33.9" filterUnits="userSpaceOnUse" color-interpolation-filters="sRGB">
<feFlood flood-opacity="0" result="BackgroundImageFix"/>
<feColorMatrix in="SourceAlpha" type="matrix" values="0 0 0 0 0 0 0 0 0 0 0 0 0 0 0 0 0 0 127 0" result="hardAlpha"/>
<feMorphology radius="2" operator="erode" in="SourceAlpha" result="effect1_dropShadow_248_1416"/>
<feOffset dx="2" dy="3"/>
<feGaussianBlur stdDeviation="0.45"/>
<feComposite in2="hardAlpha" operator="out"/>
<feColorMatrix type="matrix" values="0 0 0 0 0 0 0 0 0 0 0 0 0 0 0 0 0 0 0.25 0"/>
<feBlend mode="normal" in2="BackgroundImageFix" result="effect1_dropShadow_248_1416"/>
<feBlend mode="normal" in="SourceGraphic" in2="effect1_dropShadow_248_1416" result="shape"/>
</filter>
</defs>
</svg>
