<svg width="87" height="87" viewBox="0 0 87 87" fill="none" xmlns="http://www.w3.org/2000/svg">
<rect width="87" height="87" rx="43.5" fill="black"/>
<path d="M57.4917 24.7025C55.4129 22.3286 54.2672 19.2804 54.2675 16.125H44.8687V53.8417C44.7978 55.8832 43.9365 57.8174 42.4668 59.2361C40.997 60.6548 39.0336 61.4471 36.9908 61.4458C32.6717 61.4458 29.0825 57.9175 29.0825 53.5375C29.0825 48.3058 34.1317 44.3821 39.3329 45.9942V36.3825C28.8392 34.9833 19.6533 43.135 19.6533 53.5375C19.6533 63.6663 28.0483 70.875 36.9604 70.875C46.5112 70.875 54.2675 63.1188 54.2675 53.5375V34.4054C58.0787 37.1425 62.6545 38.611 67.3467 38.6029V29.2042C67.3467 29.2042 61.6283 29.4779 57.4917 24.7025Z" fill="white"/>
</svg>
