<svg width="29" height="32" viewBox="0 0 29 32" fill="none" xmlns="http://www.w3.org/2000/svg">
<path d="M19.5244 23.9507C19.831 21.4453 18.2177 19.848 13.9577 18.488C11.8937 17.784 10.9217 16.8613 10.9444 15.5933C11.031 14.1853 12.3417 13.16 14.0804 13.1267C15.4496 13.1414 16.7851 13.5537 17.9244 14.3133C18.079 14.4093 18.187 14.3933 18.275 14.26C18.395 14.068 18.695 13.6027 18.795 13.4333C18.863 13.3267 18.8764 13.1853 18.7044 13.06C18.4577 12.8773 17.7657 12.5067 17.3937 12.3507C16.3342 11.9023 15.1961 11.6693 14.0457 11.6653C11.499 11.676 9.49502 13.2853 9.32569 15.4333C9.21724 16.9853 9.98613 18.2418 11.6324 19.2027C11.983 19.4053 13.8724 20.1573 14.6244 20.392C16.9897 21.128 18.2177 22.448 17.9284 23.988C17.6657 25.384 16.1964 26.2867 14.171 26.3133C12.567 26.252 11.1217 25.5973 10.0017 24.7267L9.81369 24.58C9.67502 24.4733 9.52302 24.48 9.43102 24.62C9.36435 24.7227 8.92969 25.3493 8.82035 25.5133C8.71769 25.6573 8.77369 25.7373 8.88035 25.8253C9.34702 26.216 9.96969 26.6427 10.3924 26.8587C11.5631 27.4553 12.851 27.7862 14.1644 27.828C15.1099 27.873 16.0539 27.7119 16.931 27.356C18.391 26.736 19.335 25.4973 19.5244 23.9507ZM14.2697 1.868C11.5124 1.868 9.26435 4.468 9.15902 7.72133H19.379C19.271 4.46667 17.0244 1.86667 14.2697 1.86667M24.7377 31.9973L24.631 31.9987L3.58569 31.996C2.15369 31.9427 1.10169 30.7827 0.957686 29.3413L0.944353 29.0813L0.00168592 8.38C-0.00449289 8.29684 0.00635225 8.21329 0.0335587 8.13446C0.0607651 8.05563 0.103761 7.98318 0.159919 7.92153C0.216077 7.85988 0.284217 7.81033 0.360173 7.77591C0.43613 7.74149 0.518309 7.72292 0.601686 7.72133H7.23502C7.39635 3.424 10.483 0 14.2697 0C18.0564 0 21.1404 3.42533 21.303 7.72H27.927C28.01 7.72026 28.092 7.73734 28.1682 7.77023C28.2444 7.80311 28.3131 7.85111 28.3702 7.91131C28.4273 7.97151 28.4715 8.04267 28.5003 8.12048C28.5291 8.19829 28.5418 8.28114 28.5377 8.364L27.507 29.148L27.4977 29.3227C27.3724 30.7813 26.1924 31.9587 24.7377 31.9973Z" fill="#EB6727"/>
</svg>
