<svg width="218" height="218" viewBox="0 0 218 218" fill="none" xmlns="http://www.w3.org/2000/svg">
<g clip-path="url(#clip0_229_1317)">
<g filter="url(#filter0_d_229_1317)">
<ellipse cx="109" cy="109.5" rx="103" ry="102.5" fill="white"/>
</g>
<circle cx="109" cy="110" r="91.5" stroke="#286FB7" stroke-width="15"/>
<path d="M74 128.5L47 99L30 113L76 163.5L161 57L146 44L74 128.5Z" fill="#4CD3F7"/>
<path d="M104 135.5C107.333 143.667 120 163.5 135.5 167C146 162.5 162.254 151.265 167 137.5C172 123 171 102.5 171 95.5L144 83" stroke="#286FB7" stroke-width="7"/>
<path d="M140 89.5L108.5 129C111.3 142.6 127 155.667 134.5 160.5C142.5 159.5 156 144 160 137.5C163.2 132.3 164.333 110 164.5 99.5L140 89.5Z" fill="#EB6727"/>
</g>
<defs>
<filter id="filter0_d_229_1317" x="4" y="7" width="214" height="213" filterUnits="userSpaceOnUse" color-interpolation-filters="sRGB">
<feFlood flood-opacity="0" result="BackgroundImageFix"/>
<feColorMatrix in="SourceAlpha" type="matrix" values="0 0 0 0 0 0 0 0 0 0 0 0 0 0 0 0 0 0 127 0" result="hardAlpha"/>
<feOffset dx="2" dy="4"/>
<feGaussianBlur stdDeviation="2"/>
<feComposite in2="hardAlpha" operator="out"/>
<feColorMatrix type="matrix" values="0 0 0 0 0 0 0 0 0 0 0 0 0 0 0 0 0 0 0.25 0"/>
<feBlend mode="normal" in2="BackgroundImageFix" result="effect1_dropShadow_229_1317"/>
<feBlend mode="normal" in="SourceGraphic" in2="effect1_dropShadow_229_1317" result="shape"/>
</filter>
<clipPath id="clip0_229_1317">
<rect width="218" height="218" fill="white"/>
</clipPath>
</defs>
</svg>
