<svg width="428" height="97" viewBox="0 0 428 97" fill="none" xmlns="http://www.w3.org/2000/svg">
<path d="M22.14 11.1C25.22 11.1 27.96 11.64 30.36 12.72C32.76 13.8 34.78 15.26 36.42 17.1C38.06 18.94 39.3 21.08 40.14 23.52C41.02 25.96 41.46 28.52 41.46 31.2C41.46 33.76 41.08 36.24 40.32 38.64C39.56 41 38.42 43.12 36.9 45C35.42 46.84 33.58 48.36 31.38 49.56C29.18 50.76 26.64 51.44 23.76 51.6C25.8 51.64 27.6 51.88 29.16 52.32C30.72 52.8 32.18 53.3 33.54 53.82C34.94 54.38 36.32 54.88 37.68 55.32C39.04 55.76 40.5 55.98 42.06 55.98C42.62 55.98 43.28 55.9 44.04 55.74C44.84 55.62 45.68 55.3 46.56 54.78L46.74 54.9L47.58 56.58L47.52 56.82C46.6 57.98 45.48 58.96 44.16 59.76C42.84 60.56 41.36 60.96 39.72 60.96C38.36 60.96 36.96 60.64 35.52 60C34.12 59.4 32.64 58.72 31.08 57.96C29.52 57.24 27.9 56.56 26.22 55.92C24.54 55.32 22.78 55.02 20.94 55.02C19.38 55.02 17.86 55.28 16.38 55.8C14.94 56.32 13.88 56.88 13.2 57.48L13.02 57.42L12.36 55.08L12.42 54.9C13.3 54.3 14.48 53.64 15.96 52.92C17.44 52.2 19.04 51.78 20.76 51.66C17.8 51.62 15.2 51.06 12.96 49.98C10.72 48.9 8.84 47.46 7.32 45.66C5.84 43.82 4.72 41.7 3.96 39.3C3.2 36.9 2.82 34.36 2.82 31.68C2.82 28.84 3.26 26.18 4.14 23.7C5.02 21.18 6.28 19 7.92 17.16C9.56 15.28 11.58 13.8 13.98 12.72C16.38 11.64 19.1 11.1 22.14 11.1ZM22.08 46.68C24.04 46.68 25.78 46.28 27.3 45.48C28.86 44.64 30.16 43.54 31.2 42.18C32.24 40.78 33.04 39.16 33.6 37.32C34.16 35.44 34.44 33.44 34.44 31.32C34.44 29.16 34.14 27.16 33.54 25.32C32.98 23.44 32.14 21.82 31.02 20.46C29.94 19.1 28.62 18.04 27.06 17.28C25.5 16.48 23.74 16.08 21.78 16.08C19.86 16.08 18.16 16.46 16.68 17.22C15.2 17.98 13.96 19.04 12.96 20.4C11.96 21.76 11.2 23.38 10.68 25.26C10.16 27.1 9.9 29.1 9.9 31.26C9.9 33.62 10.2 35.76 10.8 37.68C11.4 39.56 12.24 41.18 13.32 42.54C14.4 43.86 15.68 44.88 17.16 45.6C18.64 46.32 20.28 46.68 22.08 46.68ZM54.6183 29.76C55.0183 29 55.4583 28.2 55.9383 27.36C56.4583 26.52 57.0383 25.74 57.6783 25.02C58.3183 24.3 59.0383 23.7 59.8383 23.22C60.6783 22.74 61.6183 22.5 62.6583 22.5C62.9783 22.5 63.3583 22.54 63.7983 22.62C64.2783 22.66 64.7383 22.74 65.1783 22.86C65.6583 22.98 66.1183 23.12 66.5583 23.28C66.9983 23.44 67.3383 23.62 67.5783 23.82L67.9983 24.18L67.2783 30.66H64.6983C64.5783 30.18 64.2583 29.7 63.7383 29.22C63.2583 28.7 62.4983 28.44 61.4583 28.44C60.5383 28.44 59.6983 28.68 58.9383 29.16C58.1783 29.6 57.5183 30.16 56.9583 30.84C56.3983 31.52 55.9583 32.26 55.6383 33.06C55.3183 33.82 55.1583 34.52 55.1583 35.16V39.3C55.1583 40.82 55.1583 41.96 55.1583 42.72C55.1983 43.48 55.2383 44.14 55.2783 44.7C55.3583 45.58 55.4583 46.3 55.5783 46.86C55.7383 47.38 55.9783 47.78 56.2983 48.06C56.4583 48.22 56.6983 48.36 57.0183 48.48C57.3783 48.56 57.7383 48.62 58.0983 48.66C58.4583 48.7 58.7983 48.72 59.1183 48.72C59.4783 48.72 59.7583 48.72 59.9583 48.72L60.2583 49.02L60.3783 51L60.2583 51.24C60.0183 51.24 59.6183 51.22 59.0583 51.18C58.4983 51.14 57.8983 51.1 57.2583 51.06C56.6183 51.06 56.0183 51.04 55.4583 51C54.8983 51 54.4983 51 54.2583 51H50.4183C50.1383 51 49.6983 51 49.0983 51C48.5383 51.04 47.9383 51.06 47.2983 51.06C46.6583 51.1 46.0383 51.14 45.4383 51.18C44.8783 51.22 44.4583 51.24 44.1783 51.24L44.1183 51L44.2383 48.96L44.4183 48.72C45.0983 48.72 45.7383 48.7 46.3383 48.66C46.9383 48.58 47.3983 48.38 47.7183 48.06C48.0383 47.78 48.2583 47.42 48.3783 46.98C48.5383 46.54 48.6583 45.78 48.7383 44.7C48.7783 44.22 48.7983 43.58 48.7983 42.78C48.7983 41.98 48.7983 40.86 48.7983 39.42V35.04C48.7983 34.2 48.7983 33.5 48.7983 32.94C48.7983 32.34 48.7783 31.82 48.7383 31.38C48.7383 30.94 48.7183 30.54 48.6783 30.18C48.6783 29.82 48.6583 29.44 48.6183 29.04C48.5383 28.64 48.4183 28.26 48.2583 27.9C48.0983 27.54 47.9583 27.3 47.8383 27.18C47.4383 26.66 46.9383 26.36 46.3383 26.28C45.7383 26.2 45.1183 26.16 44.4783 26.16L44.2383 25.92V23.88L44.4783 23.7H45.5583C46.4383 23.7 47.5783 23.7 48.9783 23.7C50.3783 23.66 51.5983 23.58 52.6383 23.46L54.7383 23.16L55.0983 24.3C54.8583 25.06 54.6783 25.92 54.5583 26.88C54.4783 27.84 54.4383 28.78 54.4383 29.7L54.6183 29.76ZM84.3441 51.24C84.0641 51.24 83.6441 51.22 83.0841 51.18C82.5241 51.14 81.9241 51.1 81.2841 51.06C80.6441 51.06 80.0441 51.04 79.4841 51C78.9241 51 78.5041 51 78.2241 51H74.9841C74.7041 51 74.2641 51 73.6641 51C73.1041 51.04 72.5041 51.06 71.8641 51.06C71.2641 51.1 70.6641 51.14 70.0641 51.18C69.5041 51.22 69.0841 51.24 68.8041 51.24L68.7441 51L68.8641 48.96L69.0441 48.72C69.6441 48.72 70.2641 48.7 70.9041 48.66C71.5441 48.58 72.0241 48.38 72.3441 48.06C72.6241 47.78 72.8241 47.42 72.9441 46.98C73.0641 46.54 73.1641 45.92 73.2441 45.12C73.2841 44.84 73.3041 44.56 73.3041 44.28C73.3441 44 73.3641 43.7 73.3641 43.38C73.4041 43.06 73.4241 42.68 73.4241 42.24C73.4241 41.8 73.4241 41.26 73.4241 40.62V33.84C73.4241 33.08 73.4241 32.48 73.4241 32.04C73.4241 31.56 73.4041 31.16 73.3641 30.84C73.3641 30.52 73.3441 30.24 73.3041 30C73.3041 29.72 73.2841 29.4 73.2441 29.04C73.1641 28.64 73.0441 28.26 72.8841 27.9C72.7241 27.54 72.5841 27.3 72.4641 27.18C72.0641 26.66 71.5641 26.36 70.9641 26.28C70.3641 26.2 69.7441 26.16 69.1041 26.16L68.8641 25.92V23.88L69.1041 23.7H72.1641C73.0841 23.7 74.0641 23.7 75.1041 23.7C76.1441 23.66 77.0641 23.58 77.8641 23.46L79.9641 23.16L80.3241 24.3C80.2441 24.46 80.1641 24.72 80.0841 25.08C80.0441 25.4 80.0041 25.76 79.9641 26.16C79.9641 26.52 79.9441 26.9 79.9041 27.3C79.9041 27.66 79.9041 27.96 79.9041 28.2C79.9041 28.52 79.8841 28.82 79.8441 29.1C79.8441 29.34 79.8441 29.64 79.8441 30C79.8441 30.32 79.8241 30.74 79.7841 31.26C79.7841 31.78 79.7841 32.42 79.7841 33.18V39.9C79.7841 40.7 79.7841 41.36 79.7841 41.88C79.8241 42.36 79.8441 42.78 79.8441 43.14C79.8841 43.5 79.9041 43.84 79.9041 44.16C79.9441 44.44 79.9841 44.76 80.0241 45.12C80.1041 45.96 80.1841 46.6 80.2641 47.04C80.3841 47.44 80.6041 47.78 80.9241 48.06C81.2441 48.38 81.6841 48.58 82.2441 48.66C82.8441 48.7 83.4441 48.72 84.0441 48.72L84.3441 49.02L84.4641 51L84.3441 51.24ZM72.1641 14.22C72.1641 13.74 72.2641 13.26 72.4641 12.78C72.6641 12.3 72.9441 11.88 73.3041 11.52C73.6641 11.12 74.0641 10.82 74.5041 10.62C74.9841 10.38 75.4841 10.26 76.0041 10.26C77.0041 10.26 77.9041 10.68 78.7041 11.52C79.5441 12.32 79.9641 13.22 79.9641 14.22C79.9641 14.74 79.8441 15.24 79.6041 15.72C79.4041 16.16 79.1041 16.56 78.7041 16.92C78.3441 17.28 77.9241 17.56 77.4441 17.76C76.9641 17.96 76.4841 18.06 76.0041 18.06C74.9641 18.06 74.0641 17.68 73.3041 16.92C72.5441 16.16 72.1641 15.26 72.1641 14.22ZM99.3839 34.2C101.064 34.6 102.424 35.14 103.464 35.82C104.504 36.5 105.284 37.24 105.804 38.04C106.364 38.84 106.724 39.66 106.884 40.5C107.084 41.34 107.184 42.12 107.184 42.84C107.184 44.12 106.924 45.3 106.404 46.38C105.884 47.46 105.124 48.4 104.124 49.2C103.164 49.96 101.984 50.56 100.584 51C99.1839 51.44 97.6039 51.66 95.8439 51.66C94.0039 51.66 92.2839 51.46 90.6839 51.06C89.0839 50.7 87.8239 50.26 86.9039 49.74L86.1839 48.96L87.0839 41.58H89.0639L89.2439 41.82C89.2439 43.58 89.7839 44.98 90.8639 46.02C91.9439 47.02 93.5439 47.52 95.6639 47.52C96.7839 47.52 97.7239 47.42 98.4839 47.22C99.2839 46.98 99.9039 46.7 100.344 46.38C100.824 46.02 101.164 45.64 101.364 45.24C101.564 44.8 101.664 44.4 101.664 44.04C101.664 43.76 101.644 43.46 101.604 43.14C101.564 42.82 101.444 42.5 101.244 42.18C101.044 41.82 100.744 41.48 100.344 41.16C99.9439 40.8 99.3639 40.5 98.6039 40.26L92.8439 38.82C91.5239 38.5 90.4439 38.04 89.6039 37.44C88.7639 36.84 88.0839 36.18 87.5639 35.46C87.0839 34.7 86.7439 33.9 86.5439 33.06C86.3839 32.22 86.3039 31.38 86.3039 30.54C86.3039 29.22 86.5639 28.06 87.0839 27.06C87.6039 26.02 88.3039 25.18 89.1839 24.54C90.1039 23.86 91.1639 23.36 92.3639 23.04C93.5639 22.68 94.8639 22.5 96.2639 22.5C98.0239 22.5 99.6439 22.72 101.124 23.16C102.604 23.56 103.744 24 104.544 24.48L105.324 25.2L104.664 31.02H102.804L102.564 30.84C102.564 29.96 102.324 29.24 101.844 28.68C101.404 28.08 100.844 27.62 100.164 27.3C99.5239 26.94 98.8439 26.7 98.1239 26.58C97.4039 26.42 96.7639 26.34 96.2039 26.34C94.6039 26.34 93.4639 26.68 92.7839 27.36C92.1039 28.04 91.7639 28.8 91.7639 29.64C91.7639 30.36 91.9839 31.06 92.4239 31.74C92.9039 32.42 93.8039 32.92 95.1239 33.24L99.3839 34.2ZM135.549 35.7L134.109 36.78C131.949 36.78 129.809 36.8 127.689 36.84C125.609 36.88 123.469 36.9 121.269 36.9H116.349C116.309 37.18 116.289 37.46 116.289 37.74C116.289 37.98 116.289 38.22 116.289 38.46C116.289 39.5 116.469 40.54 116.829 41.58C117.189 42.62 117.749 43.56 118.509 44.4C119.309 45.2 120.309 45.86 121.509 46.38C122.709 46.86 124.169 47.1 125.889 47.1C127.129 47.1 128.429 46.94 129.789 46.62C131.189 46.26 132.489 45.8 133.689 45.24L134.709 45.66V47.82L134.109 48.48C133.149 49.24 131.729 49.96 129.849 50.64C128.009 51.32 126.009 51.66 123.849 51.66C121.729 51.66 119.789 51.32 118.029 50.64C116.309 49.92 114.809 48.92 113.529 47.64C112.289 46.36 111.309 44.84 110.589 43.08C109.909 41.32 109.569 39.36 109.569 37.2C109.569 35 109.929 33 110.649 31.2C111.369 29.4 112.349 27.86 113.589 26.58C114.869 25.3 116.349 24.3 118.029 23.58C119.749 22.86 121.589 22.5 123.549 22.5C124.589 22.5 125.749 22.64 127.029 22.92C128.349 23.2 129.609 23.74 130.809 24.54C132.009 25.3 133.089 26.4 134.049 27.84C135.009 29.24 135.669 31.1 136.029 33.42L135.549 35.7ZM123.609 27C121.649 27 120.069 27.6 118.869 28.8C117.709 29.96 116.969 31.32 116.649 32.88H119.649C121.049 32.88 122.429 32.86 123.789 32.82C125.149 32.74 126.529 32.7 127.929 32.7C128.449 32.7 128.829 32.56 129.069 32.28C129.309 31.96 129.429 31.64 129.429 31.32C129.429 30.12 128.849 29.1 127.689 28.26C126.529 27.42 125.169 27 123.609 27ZM154.5 27H147.9C147.9 29.32 147.88 31.48 147.84 33.48C147.84 35.44 147.84 37.16 147.84 38.64C147.84 40.08 147.82 41.26 147.78 42.18C147.78 43.1 147.78 43.66 147.78 43.86C147.78 45.42 148.08 46.46 148.68 46.98C149.28 47.5 149.98 47.76 150.78 47.76C151.38 47.76 152.06 47.7 152.82 47.58C153.58 47.46 154.22 47.3 154.74 47.1L155.1 47.76L154.5 49.74C153.42 50.34 152.3 50.8 151.14 51.12C150.02 51.48 148.98 51.66 148.02 51.66C145.58 51.66 143.84 51.1 142.8 49.98C141.76 48.86 141.24 47.42 141.24 45.66C141.24 45.3 141.26 44.6 141.3 43.56C141.34 42.48 141.38 41.14 141.42 39.54C141.46 37.9 141.5 36.02 141.54 33.9C141.58 31.78 141.6 29.48 141.6 27H138.48L138.24 26.7V24.06L138.48 23.82L141.6 22.98C141.6 21.7 141.56 20.4 141.48 19.08C141.44 17.72 141.38 16.4 141.3 15.12L141.72 14.76L142.56 14.7C142.84 14.7 143.22 14.68 143.7 14.64C144.22 14.6 144.76 14.56 145.32 14.52C145.88 14.44 146.4 14.36 146.88 14.28C147.4 14.2 147.78 14.12 148.02 14.04L148.56 14.28C148.36 15.28 148.2 16.62 148.08 18.3C147.96 19.94 147.9 21.5 147.9 22.98L154.5 22.62L154.8 22.86V26.7L154.5 27ZM186.668 11.64L186.488 13.92L186.248 14.16C185.608 14.16 185.008 14.2 184.448 14.28C183.888 14.32 183.408 14.48 183.008 14.76C182.648 15.04 182.308 15.4 181.988 15.84C181.708 16.28 181.568 17.06 181.568 18.18C181.528 18.74 181.488 19.26 181.448 19.74C181.448 20.22 181.428 20.78 181.388 21.42C181.388 22.06 181.388 22.84 181.388 23.76C181.388 24.68 181.388 25.86 181.388 27.3V35.94C181.388 37.38 181.388 38.56 181.388 39.48C181.388 40.36 181.388 41.1 181.388 41.7C181.428 42.3 181.448 42.82 181.448 43.26C181.488 43.66 181.528 44.1 181.568 44.58C181.648 45.7 181.828 46.48 182.108 46.92C182.388 47.36 182.688 47.72 183.008 48C183.368 48.28 183.828 48.46 184.388 48.54C184.988 48.58 185.608 48.6 186.248 48.6L186.488 48.84L186.668 51.12L186.548 51.36C186.268 51.36 185.808 51.34 185.168 51.3C184.528 51.26 183.868 51.22 183.188 51.18C182.508 51.14 181.848 51.1 181.208 51.06C180.568 51.02 180.108 51 179.828 51H176.288C176.008 51 175.548 51.02 174.908 51.06C174.268 51.1 173.608 51.14 172.928 51.18C172.248 51.22 171.588 51.26 170.948 51.3C170.308 51.34 169.848 51.36 169.568 51.36L169.448 51.12L169.628 48.84L169.928 48.6C170.568 48.6 171.168 48.58 171.728 48.54C172.328 48.46 172.788 48.28 173.108 48C173.428 47.72 173.708 47.36 173.948 46.92C174.228 46.48 174.448 45.7 174.608 44.58C174.608 44.3 174.608 43.98 174.608 43.62C174.648 43.22 174.668 42.74 174.668 42.18C174.708 41.62 174.728 40.94 174.728 40.14C174.728 39.34 174.728 38.34 174.728 37.14V27.36C174.728 25.96 174.728 24.78 174.728 23.82C174.728 22.86 174.708 22.04 174.668 21.36C174.668 20.68 174.648 20.1 174.608 19.62C174.608 19.14 174.588 18.66 174.548 18.18C174.468 17.14 174.288 16.38 174.008 15.9C173.728 15.42 173.428 15.04 173.108 14.76C172.748 14.48 172.288 14.32 171.728 14.28C171.168 14.2 170.568 14.16 169.928 14.16L169.628 13.92L169.448 11.64L169.568 11.4C169.848 11.4 170.308 11.42 170.948 11.46C171.588 11.5 172.248 11.54 172.928 11.58C173.608 11.62 174.268 11.66 174.908 11.7C175.548 11.74 176.008 11.76 176.288 11.76H179.828C180.108 11.76 180.568 11.74 181.208 11.7C181.848 11.66 182.508 11.62 183.188 11.58C183.868 11.54 184.528 11.5 185.168 11.46C185.808 11.42 186.268 11.4 186.548 11.4L186.668 11.64ZM200.12 28.62C201.04 26.86 202.3 25.4 203.9 24.24C205.5 23.08 207.38 22.5 209.54 22.5C210.78 22.5 212 22.66 213.2 22.98C214.4 23.3 215.48 23.8 216.44 24.48C217.44 25.16 218.26 26.04 218.9 27.12C219.58 28.16 220.02 29.4 220.22 30.84C220.34 31.88 220.4 32.98 220.4 34.14C220.44 35.3 220.46 36.46 220.46 37.62C220.5 38.98 220.52 40.24 220.52 41.4C220.52 42.52 220.52 43.76 220.52 45.12C220.52 46.04 220.62 46.74 220.82 47.22C221.06 47.66 221.34 47.96 221.66 48.12C222.1 48.36 222.56 48.52 223.04 48.6C223.56 48.68 224.14 48.72 224.78 48.72L224.96 48.96L225.08 51L224.96 51.24C224.12 51.16 223.18 51.1 222.14 51.06C221.14 51.02 220.16 51 219.2 51C218.24 51 217.28 51 216.32 51C215.36 51.04 214.46 51.1 213.62 51.18L213.2 49.98C213.32 49.46 213.42 48.68 213.5 47.64C213.62 46.6 213.7 45.76 213.74 45.12C213.82 43.6 213.88 42.18 213.92 40.86C213.96 39.54 213.98 38.36 213.98 37.32C213.98 36.4 213.96 35.4 213.92 34.32C213.88 33.24 213.74 32.3 213.5 31.5C213.18 30.22 212.52 29.28 211.52 28.68C210.56 28.04 209.44 27.72 208.16 27.72C206.96 27.72 205.86 27.94 204.86 28.38C203.86 28.82 203 29.36 202.28 30C201.6 30.6 201.06 31.24 200.66 31.92C200.26 32.6 200.06 33.2 200.06 33.72V39.9C200.06 40.7 200.06 41.36 200.06 41.88C200.06 42.36 200.06 42.78 200.06 43.14C200.1 43.5 200.12 43.84 200.12 44.16C200.16 44.44 200.2 44.76 200.24 45.12C200.32 45.96 200.48 46.6 200.72 47.04C201 47.44 201.3 47.78 201.62 48.06C201.94 48.38 202.32 48.58 202.76 48.66C203.2 48.7 203.72 48.72 204.32 48.72L204.62 49.02L204.74 51L204.62 51.24C204.34 51.24 203.92 51.22 203.36 51.18C202.8 51.14 202.2 51.1 201.56 51.06C200.92 51.06 200.32 51.04 199.76 51C199.2 51 198.78 51 198.5 51H195.2C194.92 51 194.48 51 193.88 51C193.32 51.04 192.72 51.06 192.08 51.06C191.48 51.1 190.88 51.14 190.28 51.18C189.72 51.22 189.3 51.24 189.02 51.24L188.96 51L189.08 48.96L189.26 48.72C189.9 48.72 190.46 48.7 190.94 48.66C191.46 48.58 191.88 48.38 192.2 48.06C192.48 47.78 192.74 47.42 192.98 46.98C193.22 46.54 193.38 45.92 193.46 45.12C193.5 44.84 193.52 44.56 193.52 44.28C193.56 44 193.58 43.7 193.58 43.38C193.62 43.06 193.64 42.68 193.64 42.24C193.64 41.8 193.64 41.26 193.64 40.62V34.44C193.64 33.68 193.64 33.04 193.64 32.52C193.64 32 193.62 31.54 193.58 31.14C193.58 30.74 193.56 30.38 193.52 30.06C193.52 29.74 193.5 29.4 193.46 29.04C193.38 28.64 193.26 28.26 193.1 27.9C192.94 27.54 192.8 27.3 192.68 27.18C192.28 26.66 191.78 26.36 191.18 26.28C190.58 26.2 189.96 26.16 189.32 26.16L189.08 25.92V23.88L189.32 23.7H192.38C193.3 23.7 194.28 23.7 195.32 23.7C196.4 23.66 197.34 23.58 198.14 23.46L200.24 23.16L200.6 24.3C200.28 24.74 200.08 25.36 200 26.16C199.96 26.92 199.94 27.7 199.94 28.5L200.12 28.62ZM248.58 49.98C248.58 49.7 248.64 49.18 248.76 48.42C248.92 47.62 249.04 46.92 249.12 46.32L249.06 46.08C248.02 47.92 246.58 49.32 244.74 50.28C242.9 51.2 240.98 51.66 238.98 51.66C236.78 51.66 234.86 51.26 233.22 50.46C231.62 49.66 230.28 48.6 229.2 47.28C228.12 45.96 227.32 44.44 226.8 42.72C226.28 41 226.02 39.22 226.02 37.38C226.02 34.7 226.44 32.42 227.28 30.54C228.16 28.62 229.26 27.08 230.58 25.92C231.9 24.72 233.34 23.86 234.9 23.34C236.5 22.78 238.04 22.5 239.52 22.5C241.32 22.5 243.1 22.92 244.86 23.76C246.62 24.6 248.06 25.98 249.18 27.9L249.3 27.66C249.22 26.5 249.18 25.32 249.18 24.12C249.18 22.88 249.18 21.68 249.18 20.52C249.18 19.28 249.18 18.26 249.18 17.46C249.18 16.62 249.16 15.92 249.12 15.36C249.12 14.8 249.1 14.3 249.06 13.86C249.06 13.42 249.04 12.96 249 12.48C248.96 12.08 248.82 11.7 248.58 11.34C248.34 10.98 248.16 10.74 248.04 10.62C247.48 10.18 246.92 9.9 246.36 9.78C245.84 9.66 245.22 9.6 244.5 9.6L244.26 9.36V7.38L244.5 7.14H247.92C248.84 7.14 249.8 7.14 250.8 7.14C251.84 7.1 252.76 7.02 253.56 6.9L255.66 6.6L256.02 7.74C255.94 7.9 255.86 8.2 255.78 8.64C255.74 9.04 255.7 9.48 255.66 9.96C255.66 10.44 255.64 10.9 255.6 11.34C255.6 11.78 255.6 12.12 255.6 12.36C255.6 12.96 255.58 13.54 255.54 14.1C255.54 14.62 255.54 15.24 255.54 15.96C255.54 16.64 255.52 17.5 255.48 18.54C255.48 19.54 255.48 20.84 255.48 22.44V35.52C255.48 37.2 255.48 38.56 255.48 39.6C255.52 40.6 255.54 41.44 255.54 42.12C255.58 42.8 255.6 43.4 255.6 43.92C255.64 44.4 255.68 45 255.72 45.72C255.8 46.44 255.9 46.96 256.02 47.28C256.18 47.6 256.4 47.86 256.68 48.06C257 48.38 257.44 48.58 258 48.66C258.56 48.7 259.08 48.72 259.56 48.72L259.8 48.96L259.92 51L259.8 51.24C259.12 51.16 258.38 51.1 257.58 51.06C256.78 51.02 256.02 51 255.3 51C254.22 51 253.14 51 252.06 51C250.98 51.04 249.96 51.1 249 51.18L248.58 49.98ZM232.98 37.32C232.98 38.52 233.12 39.7 233.4 40.86C233.72 41.98 234.18 43 234.78 43.92C235.38 44.8 236.14 45.52 237.06 46.08C238.02 46.6 239.14 46.86 240.42 46.86C241.78 46.86 242.98 46.64 244.02 46.2C245.1 45.72 246 45.16 246.72 44.52C247.48 43.84 248.06 43.14 248.46 42.42C248.9 41.7 249.14 41.08 249.18 40.56V33.9C249.1 33.38 248.86 32.76 248.46 32.04C248.1 31.28 247.56 30.56 246.84 29.88C246.16 29.2 245.3 28.62 244.26 28.14C243.22 27.62 241.98 27.36 240.54 27.36C239.22 27.36 238.08 27.66 237.12 28.26C236.16 28.82 235.36 29.56 234.72 30.48C234.12 31.4 233.68 32.46 233.4 33.66C233.12 34.86 232.98 36.08 232.98 37.32ZM276.008 22.5C278.368 22.5 280.468 22.92 282.308 23.76C284.148 24.56 285.688 25.66 286.928 27.06C288.208 28.42 289.168 30 289.808 31.8C290.488 33.6 290.828 35.46 290.828 37.38C290.828 39.22 290.528 41 289.928 42.72C289.328 44.44 288.408 45.96 287.168 47.28C285.928 48.6 284.388 49.66 282.548 50.46C280.708 51.26 278.568 51.66 276.128 51.66C273.608 51.66 271.408 51.24 269.528 50.4C267.648 49.56 266.088 48.46 264.848 47.1C263.648 45.74 262.748 44.2 262.148 42.48C261.548 40.72 261.248 38.92 261.248 37.08C261.248 35.12 261.588 33.26 262.268 31.5C262.948 29.74 263.908 28.2 265.148 26.88C266.428 25.52 267.968 24.46 269.768 23.7C271.608 22.9 273.688 22.5 276.008 22.5ZM276.068 47.52C277.308 47.52 278.388 47.24 279.308 46.68C280.268 46.08 281.068 45.32 281.708 44.4C282.348 43.44 282.808 42.36 283.088 41.16C283.408 39.92 283.568 38.66 283.568 37.38C283.568 36.14 283.388 34.9 283.028 33.66C282.708 32.38 282.208 31.24 281.528 30.24C280.888 29.24 280.088 28.42 279.128 27.78C278.168 27.14 277.068 26.82 275.828 26.82C274.548 26.82 273.428 27.12 272.468 27.72C271.548 28.32 270.788 29.1 270.188 30.06C269.588 31.02 269.128 32.1 268.808 33.3C268.528 34.5 268.388 35.72 268.388 36.96C268.388 38.24 268.548 39.5 268.868 40.74C269.228 41.98 269.728 43.12 270.368 44.16C271.048 45.16 271.868 45.98 272.828 46.62C273.788 47.22 274.868 47.52 276.068 47.52ZM303.997 28.62C304.917 26.86 306.177 25.4 307.777 24.24C309.377 23.08 311.257 22.5 313.417 22.5C314.657 22.5 315.877 22.66 317.077 22.98C318.277 23.3 319.357 23.8 320.317 24.48C321.317 25.16 322.137 26.04 322.777 27.12C323.457 28.16 323.897 29.4 324.097 30.84C324.217 31.88 324.277 32.98 324.277 34.14C324.317 35.3 324.337 36.46 324.337 37.62C324.377 38.98 324.397 40.24 324.397 41.4C324.397 42.52 324.397 43.76 324.397 45.12C324.397 46.04 324.497 46.74 324.697 47.22C324.937 47.66 325.217 47.96 325.537 48.12C325.977 48.36 326.437 48.52 326.917 48.6C327.437 48.68 328.017 48.72 328.657 48.72L328.837 48.96L328.957 51L328.837 51.24C327.997 51.16 327.057 51.1 326.017 51.06C325.017 51.02 324.037 51 323.077 51C322.117 51 321.157 51 320.197 51C319.237 51.04 318.337 51.1 317.497 51.18L317.077 49.98C317.197 49.46 317.297 48.68 317.377 47.64C317.497 46.6 317.577 45.76 317.617 45.12C317.697 43.6 317.757 42.18 317.797 40.86C317.837 39.54 317.857 38.36 317.857 37.32C317.857 36.4 317.837 35.4 317.797 34.32C317.757 33.24 317.617 32.3 317.377 31.5C317.057 30.22 316.397 29.28 315.397 28.68C314.437 28.04 313.317 27.72 312.037 27.72C310.837 27.72 309.737 27.94 308.737 28.38C307.737 28.82 306.877 29.36 306.157 30C305.477 30.6 304.937 31.24 304.537 31.92C304.137 32.6 303.937 33.2 303.937 33.72V39.9C303.937 40.7 303.937 41.36 303.937 41.88C303.937 42.36 303.937 42.78 303.937 43.14C303.977 43.5 303.997 43.84 303.997 44.16C304.037 44.44 304.077 44.76 304.117 45.12C304.197 45.96 304.357 46.6 304.597 47.04C304.877 47.44 305.177 47.78 305.497 48.06C305.817 48.38 306.197 48.58 306.637 48.66C307.077 48.7 307.597 48.72 308.197 48.72L308.497 49.02L308.617 51L308.497 51.24C308.217 51.24 307.797 51.22 307.237 51.18C306.677 51.14 306.077 51.1 305.437 51.06C304.797 51.06 304.197 51.04 303.637 51C303.077 51 302.657 51 302.377 51H299.077C298.797 51 298.357 51 297.757 51C297.197 51.04 296.597 51.06 295.957 51.06C295.357 51.1 294.757 51.14 294.157 51.18C293.597 51.22 293.177 51.24 292.897 51.24L292.837 51L292.957 48.96L293.137 48.72C293.777 48.72 294.337 48.7 294.817 48.66C295.337 48.58 295.757 48.38 296.077 48.06C296.357 47.78 296.617 47.42 296.857 46.98C297.097 46.54 297.257 45.92 297.337 45.12C297.377 44.84 297.397 44.56 297.397 44.28C297.437 44 297.457 43.7 297.457 43.38C297.497 43.06 297.517 42.68 297.517 42.24C297.517 41.8 297.517 41.26 297.517 40.62V34.44C297.517 33.68 297.517 33.04 297.517 32.52C297.517 32 297.497 31.54 297.457 31.14C297.457 30.74 297.437 30.38 297.397 30.06C297.397 29.74 297.377 29.4 297.337 29.04C297.257 28.64 297.137 28.26 296.977 27.9C296.817 27.54 296.677 27.3 296.557 27.18C296.157 26.66 295.657 26.36 295.057 26.28C294.457 26.2 293.837 26.16 293.197 26.16L292.957 25.92V23.88L293.197 23.7H296.257C297.177 23.7 298.157 23.7 299.197 23.7C300.277 23.66 301.217 23.58 302.017 23.46L304.117 23.16L304.477 24.3C304.157 24.74 303.957 25.36 303.877 26.16C303.837 26.92 303.817 27.7 303.817 28.5L303.997 28.62ZM355.817 35.7L354.377 36.78C352.217 36.78 350.077 36.8 347.957 36.84C345.877 36.88 343.737 36.9 341.537 36.9H336.617C336.577 37.18 336.557 37.46 336.557 37.74C336.557 37.98 336.557 38.22 336.557 38.46C336.557 39.5 336.737 40.54 337.097 41.58C337.457 42.62 338.017 43.56 338.777 44.4C339.577 45.2 340.577 45.86 341.777 46.38C342.977 46.86 344.437 47.1 346.157 47.1C347.397 47.1 348.697 46.94 350.057 46.62C351.457 46.26 352.757 45.8 353.957 45.24L354.977 45.66V47.82L354.377 48.48C353.417 49.24 351.997 49.96 350.117 50.64C348.277 51.32 346.277 51.66 344.117 51.66C341.997 51.66 340.057 51.32 338.297 50.64C336.577 49.92 335.077 48.92 333.797 47.64C332.557 46.36 331.577 44.84 330.857 43.08C330.177 41.32 329.837 39.36 329.837 37.2C329.837 35 330.197 33 330.917 31.2C331.637 29.4 332.617 27.86 333.857 26.58C335.137 25.3 336.617 24.3 338.297 23.58C340.017 22.86 341.857 22.5 343.817 22.5C344.857 22.5 346.017 22.64 347.297 22.92C348.617 23.2 349.877 23.74 351.077 24.54C352.277 25.3 353.357 26.4 354.317 27.84C355.277 29.24 355.937 31.1 356.297 33.42L355.817 35.7ZM343.877 27C341.917 27 340.337 27.6 339.137 28.8C337.977 29.96 337.237 31.32 336.917 32.88H339.917C341.317 32.88 342.697 32.86 344.057 32.82C345.417 32.74 346.797 32.7 348.197 32.7C348.717 32.7 349.097 32.56 349.337 32.28C349.577 31.96 349.697 31.64 349.697 31.32C349.697 30.12 349.117 29.1 347.957 28.26C346.797 27.42 345.437 27 343.877 27ZM372.068 34.2C373.748 34.6 375.108 35.14 376.148 35.82C377.188 36.5 377.968 37.24 378.488 38.04C379.048 38.84 379.408 39.66 379.568 40.5C379.768 41.34 379.868 42.12 379.868 42.84C379.868 44.12 379.608 45.3 379.088 46.38C378.568 47.46 377.808 48.4 376.808 49.2C375.848 49.96 374.668 50.56 373.268 51C371.868 51.44 370.288 51.66 368.528 51.66C366.688 51.66 364.968 51.46 363.368 51.06C361.768 50.7 360.508 50.26 359.588 49.74L358.868 48.96L359.768 41.58H361.748L361.928 41.82C361.928 43.58 362.468 44.98 363.548 46.02C364.628 47.02 366.228 47.52 368.348 47.52C369.468 47.52 370.408 47.42 371.168 47.22C371.968 46.98 372.588 46.7 373.028 46.38C373.508 46.02 373.848 45.64 374.048 45.24C374.248 44.8 374.348 44.4 374.348 44.04C374.348 43.76 374.328 43.46 374.288 43.14C374.248 42.82 374.128 42.5 373.928 42.18C373.728 41.82 373.428 41.48 373.028 41.16C372.628 40.8 372.048 40.5 371.288 40.26L365.528 38.82C364.208 38.5 363.128 38.04 362.288 37.44C361.448 36.84 360.768 36.18 360.248 35.46C359.768 34.7 359.428 33.9 359.228 33.06C359.068 32.22 358.988 31.38 358.988 30.54C358.988 29.22 359.248 28.06 359.768 27.06C360.288 26.02 360.988 25.18 361.868 24.54C362.788 23.86 363.848 23.36 365.048 23.04C366.248 22.68 367.548 22.5 368.948 22.5C370.708 22.5 372.328 22.72 373.808 23.16C375.288 23.56 376.428 24 377.228 24.48L378.008 25.2L377.348 31.02H375.488L375.248 30.84C375.248 29.96 375.008 29.24 374.528 28.68C374.088 28.08 373.528 27.62 372.848 27.3C372.208 26.94 371.528 26.7 370.808 26.58C370.088 26.42 369.448 26.34 368.888 26.34C367.288 26.34 366.148 26.68 365.468 27.36C364.788 28.04 364.448 28.8 364.448 29.64C364.448 30.36 364.668 31.06 365.108 31.74C365.588 32.42 366.488 32.92 367.808 33.24L372.068 34.2ZM397.373 51.24C397.093 51.24 396.673 51.22 396.113 51.18C395.553 51.14 394.953 51.1 394.313 51.06C393.673 51.06 393.073 51.04 392.513 51C391.953 51 391.533 51 391.253 51H388.013C387.733 51 387.293 51 386.693 51C386.133 51.04 385.533 51.06 384.893 51.06C384.293 51.1 383.693 51.14 383.093 51.18C382.533 51.22 382.113 51.24 381.833 51.24L381.773 51L381.893 48.96L382.073 48.72C382.673 48.72 383.293 48.7 383.933 48.66C384.573 48.58 385.053 48.38 385.373 48.06C385.653 47.78 385.853 47.42 385.973 46.98C386.093 46.54 386.193 45.92 386.273 45.12C386.313 44.84 386.333 44.56 386.333 44.28C386.373 44 386.393 43.7 386.393 43.38C386.433 43.06 386.453 42.68 386.453 42.24C386.453 41.8 386.453 41.26 386.453 40.62V33.84C386.453 33.08 386.453 32.48 386.453 32.04C386.453 31.56 386.433 31.16 386.393 30.84C386.393 30.52 386.373 30.24 386.333 30C386.333 29.72 386.313 29.4 386.273 29.04C386.193 28.64 386.073 28.26 385.913 27.9C385.753 27.54 385.613 27.3 385.493 27.18C385.093 26.66 384.593 26.36 383.993 26.28C383.393 26.2 382.773 26.16 382.133 26.16L381.893 25.92V23.88L382.133 23.7H385.193C386.113 23.7 387.093 23.7 388.133 23.7C389.173 23.66 390.093 23.58 390.893 23.46L392.993 23.16L393.353 24.3C393.273 24.46 393.193 24.72 393.113 25.08C393.073 25.4 393.033 25.76 392.993 26.16C392.993 26.52 392.973 26.9 392.933 27.3C392.933 27.66 392.933 27.96 392.933 28.2C392.933 28.52 392.913 28.82 392.873 29.1C392.873 29.34 392.873 29.64 392.873 30C392.873 30.32 392.853 30.74 392.813 31.26C392.813 31.78 392.813 32.42 392.813 33.18V39.9C392.813 40.7 392.813 41.36 392.813 41.88C392.853 42.36 392.873 42.78 392.873 43.14C392.913 43.5 392.933 43.84 392.933 44.16C392.973 44.44 393.013 44.76 393.053 45.12C393.133 45.96 393.213 46.6 393.293 47.04C393.413 47.44 393.633 47.78 393.953 48.06C394.273 48.38 394.713 48.58 395.273 48.66C395.873 48.7 396.473 48.72 397.073 48.72L397.373 49.02L397.493 51L397.373 51.24ZM385.193 14.22C385.193 13.74 385.293 13.26 385.493 12.78C385.693 12.3 385.973 11.88 386.333 11.52C386.693 11.12 387.093 10.82 387.533 10.62C388.013 10.38 388.513 10.26 389.033 10.26C390.033 10.26 390.933 10.68 391.733 11.52C392.573 12.32 392.993 13.22 392.993 14.22C392.993 14.74 392.873 15.24 392.633 15.72C392.433 16.16 392.133 16.56 391.733 16.92C391.373 17.28 390.953 17.56 390.473 17.76C389.993 17.96 389.513 18.06 389.033 18.06C387.993 18.06 387.093 17.68 386.333 16.92C385.573 16.16 385.193 15.26 385.193 14.22ZM415.353 50.58C415.473 50.22 415.553 49.7 415.593 49.02C415.673 48.34 415.773 47.72 415.893 47.16L415.833 46.98C415.353 47.58 414.793 48.16 414.153 48.72C413.553 49.28 412.873 49.78 412.113 50.22C411.353 50.66 410.533 51 409.653 51.24C408.813 51.52 407.913 51.66 406.953 51.66C405.513 51.66 404.253 51.44 403.173 51C402.093 50.56 401.193 49.98 400.473 49.26C399.753 48.54 399.193 47.7 398.793 46.74C398.433 45.78 398.253 44.78 398.253 43.74C398.253 42.18 398.593 40.82 399.273 39.66C399.953 38.5 400.853 37.56 401.973 36.84C403.013 36.16 404.233 35.64 405.633 35.28C407.033 34.88 408.393 34.58 409.713 34.38C411.033 34.18 412.233 34.06 413.313 34.02C414.393 33.94 415.113 33.9 415.473 33.9H416.313C416.273 32.66 416.193 31.7 416.073 31.02C415.953 30.3 415.793 29.7 415.593 29.22C415.233 28.42 414.633 27.86 413.793 27.54C412.993 27.18 412.033 27 410.913 27C410.233 27 409.493 27.06 408.693 27.18C407.933 27.26 407.213 27.44 406.533 27.72C405.853 28 405.253 28.4 404.733 28.92C404.253 29.4 403.973 30.04 403.893 30.84L403.653 31.02H401.733L401.193 25.38L401.373 25.02C401.613 24.78 402.073 24.52 402.753 24.24C403.433 23.96 404.253 23.7 405.213 23.46C406.173 23.18 407.213 22.96 408.333 22.8C409.493 22.6 410.653 22.5 411.813 22.5C413.373 22.5 414.833 22.7 416.193 23.1C417.553 23.46 418.713 24.02 419.673 24.78C420.673 25.54 421.453 26.5 422.013 27.66C422.573 28.78 422.853 30.1 422.853 31.62C422.853 33.26 422.833 34.66 422.793 35.82C422.793 36.98 422.773 38.06 422.733 39.06C422.693 40.06 422.653 41.04 422.613 42C422.613 42.92 422.613 43.96 422.613 45.12C422.693 46.04 422.793 46.7 422.913 47.1C423.033 47.5 423.233 47.82 423.513 48.06C423.833 48.38 424.313 48.58 424.953 48.66C425.633 48.7 426.253 48.72 426.813 48.72L426.993 48.96L427.113 51L427.053 51.24C426.373 51.16 425.593 51.1 424.713 51.06C423.833 51.02 423.013 51 422.253 51C421.133 51 420.013 51 418.893 51C417.773 51.04 416.713 51.1 415.713 51.18L415.353 50.58ZM415.353 44.1C415.473 43.9 415.593 43.66 415.713 43.38C415.873 43.1 415.973 42.76 416.013 42.36L416.313 37.26H415.773C414.533 37.26 413.313 37.34 412.113 37.5C410.913 37.66 409.833 37.96 408.873 38.4C407.913 38.84 407.133 39.46 406.533 40.26C405.933 41.06 405.633 42.1 405.633 43.38C405.633 44.46 405.893 45.32 406.413 45.96C406.973 46.6 407.713 46.92 408.633 46.92C409.313 46.92 409.993 46.84 410.673 46.68C411.393 46.48 412.053 46.24 412.653 45.96C413.253 45.68 413.793 45.38 414.273 45.06C414.753 44.7 415.113 44.38 415.353 44.1Z" fill="white"/>
<path d="M16.56 75.06V85.36C16.56 86.5067 16.2067 87.4267 15.5 88.12C14.7933 88.8 13.86 89.14 12.7 89.14C11.5267 89.14 10.5867 88.7933 9.88 88.1C9.17333 87.3933 8.82 86.4333 8.82 85.22H10.64C10.6533 85.9 10.8267 86.4533 11.16 86.88C11.5067 87.3067 12.02 87.52 12.7 87.52C13.38 87.52 13.8867 87.32 14.22 86.92C14.5533 86.5067 14.72 85.9867 14.72 85.36V75.06H16.56ZM23.4655 83.48C23.4655 82.36 23.6921 81.38 24.1455 80.54C24.5988 79.6867 25.2188 79.0267 26.0055 78.56C26.8055 78.0933 27.6921 77.86 28.6655 77.86C29.6255 77.86 30.4588 78.0667 31.1655 78.48C31.8721 78.8933 32.3988 79.4133 32.7455 80.04V78.04H34.5855V89H32.7455V86.96C32.3855 87.6 31.8455 88.1333 31.1255 88.56C30.4188 88.9733 29.5921 89.18 28.6455 89.18C27.6721 89.18 26.7921 88.94 26.0055 88.46C25.2188 87.98 24.5988 87.3067 24.1455 86.44C23.6921 85.5733 23.4655 84.5867 23.4655 83.48ZM32.7455 83.5C32.7455 82.6733 32.5788 81.9533 32.2455 81.34C31.9121 80.7267 31.4588 80.26 30.8855 79.94C30.3255 79.6067 29.7055 79.44 29.0255 79.44C28.3455 79.44 27.7255 79.6 27.1655 79.92C26.6055 80.24 26.1588 80.7067 25.8255 81.32C25.4921 81.9333 25.3255 82.6533 25.3255 83.48C25.3255 84.32 25.4921 85.0533 25.8255 85.68C26.1588 86.2933 26.6055 86.7667 27.1655 87.1C27.7255 87.42 28.3455 87.58 29.0255 87.58C29.7055 87.58 30.3255 87.42 30.8855 87.1C31.4588 86.7667 31.9121 86.2933 32.2455 85.68C32.5788 85.0533 32.7455 84.3267 32.7455 83.5ZM45.5411 89.18C44.7011 89.18 43.9478 89.04 43.2811 88.76C42.6144 88.4667 42.0878 88.0667 41.7011 87.56C41.3144 87.04 41.1011 86.4467 41.0611 85.78H42.9411C42.9944 86.3267 43.2478 86.7733 43.7011 87.12C44.1678 87.4667 44.7744 87.64 45.5211 87.64C46.2144 87.64 46.7611 87.4867 47.1611 87.18C47.5611 86.8733 47.7611 86.4867 47.7611 86.02C47.7611 85.54 47.5478 85.1867 47.1211 84.96C46.6944 84.72 46.0344 84.4867 45.1411 84.26C44.3278 84.0467 43.6611 83.8333 43.1411 83.62C42.6344 83.3933 42.1944 83.0667 41.8211 82.64C41.4611 82.2 41.2811 81.6267 41.2811 80.92C41.2811 80.36 41.4478 79.8467 41.7811 79.38C42.1144 78.9133 42.5878 78.5467 43.2011 78.28C43.8144 78 44.5144 77.86 45.3011 77.86C46.5144 77.86 47.4944 78.1667 48.2411 78.78C48.9878 79.3933 49.3878 80.2333 49.4411 81.3H47.6211C47.5811 80.7267 47.3478 80.2667 46.9211 79.92C46.5078 79.5733 45.9478 79.4 45.2411 79.4C44.5878 79.4 44.0678 79.54 43.6811 79.82C43.2944 80.1 43.1011 80.4667 43.1011 80.92C43.1011 81.28 43.2144 81.58 43.4411 81.82C43.6811 82.0467 43.9744 82.2333 44.3211 82.38C44.6811 82.5133 45.1744 82.6667 45.8011 82.84C46.5878 83.0533 47.2278 83.2667 47.7211 83.48C48.2144 83.68 48.6344 83.9867 48.9811 84.4C49.3411 84.8133 49.5278 85.3533 49.5411 86.02C49.5411 86.62 49.3744 87.16 49.0411 87.64C48.7078 88.12 48.2344 88.5 47.6211 88.78C47.0211 89.0467 46.3278 89.18 45.5411 89.18ZM55.4303 83.48C55.4303 82.36 55.657 81.38 56.1103 80.54C56.5636 79.6867 57.1836 79.0267 57.9703 78.56C58.7703 78.0933 59.657 77.86 60.6303 77.86C61.5903 77.86 62.4236 78.0667 63.1303 78.48C63.837 78.8933 64.3636 79.4133 64.7103 80.04V78.04H66.5503V89H64.7103V86.96C64.3503 87.6 63.8103 88.1333 63.0903 88.56C62.3836 88.9733 61.557 89.18 60.6103 89.18C59.637 89.18 58.757 88.94 57.9703 88.46C57.1836 87.98 56.5636 87.3067 56.1103 86.44C55.657 85.5733 55.4303 84.5867 55.4303 83.48ZM64.7103 83.5C64.7103 82.6733 64.5436 81.9533 64.2103 81.34C63.877 80.7267 63.4236 80.26 62.8503 79.94C62.2903 79.6067 61.6703 79.44 60.9903 79.44C60.3103 79.44 59.6903 79.6 59.1303 79.92C58.5703 80.24 58.1236 80.7067 57.7903 81.32C57.457 81.9333 57.2903 82.6533 57.2903 83.48C57.2903 84.32 57.457 85.0533 57.7903 85.68C58.1236 86.2933 58.5703 86.7667 59.1303 87.1C59.6903 87.42 60.3103 87.58 60.9903 87.58C61.6703 87.58 62.2903 87.42 62.8503 87.1C63.4236 86.7667 63.877 86.2933 64.2103 85.68C64.5436 85.0533 64.7103 84.3267 64.7103 83.5ZM92.278 79.14C92.278 80.3 91.878 81.2667 91.078 82.04C90.2913 82.8 89.0846 83.18 87.458 83.18H84.778V89H82.958V75.06H87.458C89.0313 75.06 90.2246 75.44 91.038 76.2C91.8646 76.96 92.278 77.94 92.278 79.14ZM87.458 81.68C88.4713 81.68 89.218 81.46 89.698 81.02C90.178 80.58 90.418 79.9533 90.418 79.14C90.418 77.42 89.4313 76.56 87.458 76.56H84.778V81.68H87.458ZM108.54 83.1C108.54 83.4467 108.52 83.8133 108.48 84.2H99.72C99.7867 85.28 100.153 86.1267 100.82 86.74C101.5 87.34 102.32 87.64 103.28 87.64C104.067 87.64 104.72 87.46 105.24 87.1C105.773 86.7267 106.147 86.2333 106.36 85.62H108.32C108.027 86.6733 107.44 87.5333 106.56 88.2C105.68 88.8533 104.587 89.18 103.28 89.18C102.24 89.18 101.307 88.9467 100.48 88.48C99.6667 88.0133 99.0267 87.3533 98.56 86.5C98.0933 85.6333 97.86 84.6333 97.86 83.5C97.86 82.3667 98.0867 81.3733 98.54 80.52C98.9933 79.6667 99.6267 79.0133 100.44 78.56C101.267 78.0933 102.213 77.86 103.28 77.86C104.32 77.86 105.24 78.0867 106.04 78.54C106.84 78.9933 107.453 79.62 107.88 80.42C108.32 81.2067 108.54 82.1 108.54 83.1ZM106.66 82.72C106.66 82.0267 106.507 81.4333 106.2 80.94C105.893 80.4333 105.473 80.0533 104.94 79.8C104.42 79.5333 103.84 79.4 103.2 79.4C102.28 79.4 101.493 79.6933 100.84 80.28C100.2 80.8667 99.8333 81.68 99.74 82.72H106.66ZM120.282 77.84C121.616 77.84 122.696 78.2467 123.522 79.06C124.349 79.86 124.762 81.02 124.762 82.54V89H122.962V82.8C122.962 81.7067 122.689 80.8733 122.142 80.3C121.596 79.7133 120.849 79.42 119.902 79.42C118.942 79.42 118.176 79.72 117.602 80.32C117.042 80.92 116.762 81.7933 116.762 82.94V89H114.942V78.04H116.762V79.6C117.122 79.04 117.609 78.6067 118.222 78.3C118.849 77.9933 119.536 77.84 120.282 77.84ZM141.735 83.1C141.735 83.4467 141.715 83.8133 141.675 84.2H132.915C132.982 85.28 133.349 86.1267 134.015 86.74C134.695 87.34 135.515 87.64 136.475 87.64C137.262 87.64 137.915 87.46 138.435 87.1C138.969 86.7267 139.342 86.2333 139.555 85.62H141.515C141.222 86.6733 140.635 87.5333 139.755 88.2C138.875 88.8533 137.782 89.18 136.475 89.18C135.435 89.18 134.502 88.9467 133.675 88.48C132.862 88.0133 132.222 87.3533 131.755 86.5C131.289 85.6333 131.055 84.6333 131.055 83.5C131.055 82.3667 131.282 81.3733 131.735 80.52C132.189 79.6667 132.822 79.0133 133.635 78.56C134.462 78.0933 135.409 77.86 136.475 77.86C137.515 77.86 138.435 78.0867 139.235 78.54C140.035 78.9933 140.649 79.62 141.075 80.42C141.515 81.2067 141.735 82.1 141.735 83.1ZM139.855 82.72C139.855 82.0267 139.702 81.4333 139.395 80.94C139.089 80.4333 138.669 80.0533 138.135 79.8C137.615 79.5333 137.035 79.4 136.395 79.4C135.475 79.4 134.689 79.6933 134.035 80.28C133.395 80.8667 133.029 81.68 132.935 82.72H139.855ZM149.958 79.82C150.278 79.1933 150.731 78.7067 151.318 78.36C151.918 78.0133 152.644 77.84 153.498 77.84V79.72H153.018C150.978 79.72 149.958 80.8267 149.958 83.04V89H148.138V78.04H149.958V79.82ZM161.419 80.08C161.792 79.4267 162.339 78.8933 163.059 78.48C163.779 78.0667 164.599 77.86 165.519 77.86C166.505 77.86 167.392 78.0933 168.179 78.56C168.965 79.0267 169.585 79.6867 170.039 80.54C170.492 81.38 170.719 82.36 170.719 83.48C170.719 84.5867 170.492 85.5733 170.039 86.44C169.585 87.3067 168.959 87.98 168.159 88.46C167.372 88.94 166.492 89.18 165.519 89.18C164.572 89.18 163.739 88.9733 163.019 88.56C162.312 88.1467 161.779 87.62 161.419 86.98V89H159.599V74.2H161.419V80.08ZM168.859 83.48C168.859 82.6533 168.692 81.9333 168.359 81.32C168.025 80.7067 167.572 80.24 166.999 79.92C166.439 79.6 165.819 79.44 165.139 79.44C164.472 79.44 163.852 79.6067 163.279 79.94C162.719 80.26 162.265 80.7333 161.919 81.36C161.585 81.9733 161.419 82.6867 161.419 83.5C161.419 84.3267 161.585 85.0533 161.919 85.68C162.265 86.2933 162.719 86.7667 163.279 87.1C163.852 87.42 164.472 87.58 165.139 87.58C165.819 87.58 166.439 87.42 166.999 87.1C167.572 86.7667 168.025 86.2933 168.359 85.68C168.692 85.0533 168.859 84.32 168.859 83.48ZM178.054 76.26C177.708 76.26 177.414 76.14 177.174 75.9C176.934 75.66 176.814 75.3667 176.814 75.02C176.814 74.6733 176.934 74.38 177.174 74.14C177.414 73.9 177.708 73.78 178.054 73.78C178.388 73.78 178.668 73.9 178.894 74.14C179.134 74.38 179.254 74.6733 179.254 75.02C179.254 75.3667 179.134 75.66 178.894 75.9C178.668 76.14 178.388 76.26 178.054 76.26ZM178.934 78.04V89H177.114V78.04H178.934ZM188.256 79.54V86C188.256 86.5333 188.369 86.9133 188.596 87.14C188.823 87.3533 189.216 87.46 189.776 87.46H191.116V89H189.476C188.463 89 187.703 88.7667 187.196 88.3C186.689 87.8333 186.436 87.0667 186.436 86V79.54H185.016V78.04H186.436V75.28H188.256V78.04H191.116V79.54H188.256ZM196.641 83.48C196.641 82.36 196.868 81.38 197.321 80.54C197.775 79.6867 198.395 79.0267 199.181 78.56C199.981 78.0933 200.868 77.86 201.841 77.86C202.801 77.86 203.635 78.0667 204.341 78.48C205.048 78.8933 205.575 79.4133 205.921 80.04V78.04H207.761V89H205.921V86.96C205.561 87.6 205.021 88.1333 204.301 88.56C203.595 88.9733 202.768 89.18 201.821 89.18C200.848 89.18 199.968 88.94 199.181 88.46C198.395 87.98 197.775 87.3067 197.321 86.44C196.868 85.5733 196.641 84.5867 196.641 83.48ZM205.921 83.5C205.921 82.6733 205.755 81.9533 205.421 81.34C205.088 80.7267 204.635 80.26 204.061 79.94C203.501 79.6067 202.881 79.44 202.201 79.44C201.521 79.44 200.901 79.6 200.341 79.92C199.781 80.24 199.335 80.7067 199.001 81.32C198.668 81.9333 198.501 82.6533 198.501 83.48C198.501 84.32 198.668 85.0533 199.001 85.68C199.335 86.2933 199.781 86.7667 200.341 87.1C200.901 87.42 201.521 87.58 202.201 87.58C202.881 87.58 203.501 87.42 204.061 87.1C204.635 86.7667 205.088 86.2933 205.421 85.68C205.755 85.0533 205.921 84.3267 205.921 83.5ZM220.177 77.84C221.51 77.84 222.59 78.2467 223.417 79.06C224.244 79.86 224.657 81.02 224.657 82.54V89H222.857V82.8C222.857 81.7067 222.584 80.8733 222.037 80.3C221.49 79.7133 220.744 79.42 219.797 79.42C218.837 79.42 218.07 79.72 217.497 80.32C216.937 80.92 216.657 81.7933 216.657 82.94V89H214.837V78.04H216.657V79.6C217.017 79.04 217.504 78.6067 218.117 78.3C218.744 77.9933 219.43 77.84 220.177 77.84ZM247.942 81.82C248.449 81.9 248.909 82.1067 249.322 82.44C249.749 82.7733 250.082 83.1867 250.322 83.68C250.575 84.1733 250.702 84.7 250.702 85.26C250.702 85.9667 250.522 86.6067 250.162 87.18C249.802 87.74 249.275 88.1867 248.582 88.52C247.902 88.84 247.095 89 246.162 89H240.962V75.06H245.962C246.909 75.06 247.715 75.22 248.382 75.54C249.049 75.8467 249.549 76.2667 249.882 76.8C250.215 77.3333 250.382 77.9333 250.382 78.6C250.382 79.4267 250.155 80.1133 249.702 80.66C249.262 81.1933 248.675 81.58 247.942 81.82ZM242.782 81.08H245.842C246.695 81.08 247.355 80.88 247.822 80.48C248.289 80.08 248.522 79.5267 248.522 78.82C248.522 78.1133 248.289 77.56 247.822 77.16C247.355 76.76 246.682 76.56 245.802 76.56H242.782V81.08ZM246.002 87.5C246.909 87.5 247.615 87.2867 248.122 86.86C248.629 86.4333 248.882 85.84 248.882 85.08C248.882 84.3067 248.615 83.7 248.082 83.26C247.549 82.8067 246.835 82.58 245.942 82.58H242.782V87.5H246.002ZM266.948 78.04V89H265.128V87.38C264.781 87.94 264.294 88.38 263.668 88.7C263.054 89.0067 262.374 89.16 261.628 89.16C260.774 89.16 260.008 88.9867 259.328 88.64C258.648 88.28 258.108 87.7467 257.708 87.04C257.321 86.3333 257.128 85.4733 257.128 84.46V78.04H258.928V84.22C258.928 85.3 259.201 86.1333 259.748 86.72C260.294 87.2933 261.041 87.58 261.988 87.58C262.961 87.58 263.728 87.28 264.288 86.68C264.848 86.08 265.128 85.2067 265.128 84.06V78.04H266.948ZM280.14 89L275.84 84.16V89H274.02V74.2H275.84V82.9L280.06 78.04H282.6L277.44 83.5L282.62 89H280.14ZM298.033 78.04V89H296.213V87.38C295.867 87.94 295.38 88.38 294.753 88.7C294.14 89.0067 293.46 89.16 292.713 89.16C291.86 89.16 291.093 88.9867 290.413 88.64C289.733 88.28 289.193 87.7467 288.793 87.04C288.407 86.3333 288.213 85.4733 288.213 84.46V78.04H290.013V84.22C290.013 85.3 290.287 86.1333 290.833 86.72C291.38 87.2933 292.127 87.58 293.073 87.58C294.047 87.58 294.813 87.28 295.373 86.68C295.933 86.08 296.213 85.2067 296.213 84.06V78.04H298.033ZM325.138 89L323.318 87.16C322.638 87.8667 321.912 88.3933 321.138 88.74C320.365 89.0733 319.492 89.24 318.518 89.24C317.558 89.24 316.705 89.0667 315.958 88.72C315.225 88.3733 314.652 87.88 314.238 87.24C313.838 86.6 313.638 85.8533 313.638 85C313.638 84.0267 313.912 83.1733 314.458 82.44C315.018 81.6933 315.838 81.1067 316.918 80.68C316.492 80.1733 316.185 79.7067 315.998 79.28C315.812 78.8533 315.718 78.3867 315.718 77.88C315.718 77.2933 315.865 76.7667 316.158 76.3C316.465 75.82 316.898 75.4467 317.458 75.18C318.018 74.9133 318.665 74.78 319.398 74.78C320.118 74.78 320.745 74.92 321.278 75.2C321.812 75.48 322.212 75.8733 322.478 76.38C322.745 76.8733 322.865 77.4267 322.838 78.04H321.018C321.032 77.4933 320.878 77.0667 320.558 76.76C320.238 76.44 319.825 76.28 319.318 76.28C318.785 76.28 318.352 76.4333 318.018 76.74C317.698 77.0333 317.538 77.4133 317.538 77.88C317.538 78.28 317.645 78.6667 317.858 79.04C318.085 79.4133 318.458 79.8733 318.978 80.42L323.138 84.6L323.498 84.04L324.858 81.76H326.818L325.178 84.6C324.952 85 324.685 85.42 324.378 85.86L327.518 89H325.138ZM318.518 87.68C319.238 87.68 319.885 87.54 320.458 87.26C321.045 86.98 321.598 86.5467 322.118 85.96L318.018 81.84C316.312 82.4933 315.458 83.5267 315.458 84.94C315.458 85.7267 315.738 86.38 316.298 86.9C316.872 87.42 317.612 87.68 318.518 87.68ZM349.576 75.06V85.36C349.576 86.5067 349.222 87.4267 348.516 88.12C347.809 88.8 346.876 89.14 345.716 89.14C344.542 89.14 343.602 88.7933 342.896 88.1C342.189 87.3933 341.836 86.4333 341.836 85.22H343.656C343.669 85.9 343.842 86.4533 344.176 86.88C344.522 87.3067 345.036 87.52 345.716 87.52C346.396 87.52 346.902 87.32 347.236 86.92C347.569 86.5067 347.736 85.9867 347.736 85.36V75.06H349.576ZM366.881 78.04V89H365.061V87.38C364.714 87.94 364.228 88.38 363.601 88.7C362.988 89.0067 362.308 89.16 361.561 89.16C360.708 89.16 359.941 88.9867 359.261 88.64C358.581 88.28 358.041 87.7467 357.641 87.04C357.254 86.3333 357.061 85.4733 357.061 84.46V78.04H358.861V84.22C358.861 85.3 359.134 86.1333 359.681 86.72C360.228 87.2933 360.974 87.58 361.921 87.58C362.894 87.58 363.661 87.28 364.221 86.68C364.781 86.08 365.061 85.2067 365.061 84.06V78.04H366.881ZM375.774 79.82C376.094 79.1933 376.547 78.7067 377.134 78.36C377.734 78.0133 378.461 77.84 379.314 77.84V79.72H378.834C376.794 79.72 375.774 80.8267 375.774 83.04V89H373.954V78.04H375.774V79.82ZM390.755 77.84C392.088 77.84 393.168 78.2467 393.995 79.06C394.822 79.86 395.235 81.02 395.235 82.54V89H393.435V82.8C393.435 81.7067 393.162 80.8733 392.615 80.3C392.068 79.7133 391.322 79.42 390.375 79.42C389.415 79.42 388.648 79.72 388.075 80.32C387.515 80.92 387.235 81.7933 387.235 82.94V89H385.415V78.04H387.235V79.6C387.595 79.04 388.082 78.6067 388.695 78.3C389.322 77.9933 390.008 77.84 390.755 77.84ZM401.528 83.48C401.528 82.36 401.755 81.38 402.208 80.54C402.661 79.6867 403.281 79.0267 404.068 78.56C404.868 78.0933 405.755 77.86 406.728 77.86C407.688 77.86 408.521 78.0667 409.228 78.48C409.935 78.8933 410.461 79.4133 410.808 80.04V78.04H412.648V89H410.808V86.96C410.448 87.6 409.908 88.1333 409.188 88.56C408.481 88.9733 407.655 89.18 406.708 89.18C405.735 89.18 404.855 88.94 404.068 88.46C403.281 87.98 402.661 87.3067 402.208 86.44C401.755 85.5733 401.528 84.5867 401.528 83.48ZM410.808 83.5C410.808 82.6733 410.641 81.9533 410.308 81.34C409.975 80.7267 409.521 80.26 408.948 79.94C408.388 79.6067 407.768 79.44 407.088 79.44C406.408 79.44 405.788 79.6 405.228 79.92C404.668 80.24 404.221 80.7067 403.888 81.32C403.555 81.9333 403.388 82.6533 403.388 83.48C403.388 84.32 403.555 85.0533 403.888 85.68C404.221 86.2933 404.668 86.7667 405.228 87.1C405.788 87.42 406.408 87.58 407.088 87.58C407.768 87.58 408.388 87.42 408.948 87.1C409.521 86.7667 409.975 86.2933 410.308 85.68C410.641 85.0533 410.808 84.3267 410.808 83.5ZM421.544 74.2V89H419.724V74.2H421.544Z" fill="white"/>
</svg>
