<svg width="152" height="152" viewBox="0 0 152 152" fill="none" xmlns="http://www.w3.org/2000/svg">
<path d="M37.9997 12.6667H88.6663L126.666 50.6667V126.667C126.666 130.026 125.332 133.248 122.956 135.623C120.581 137.999 117.359 139.333 114 139.333H37.9997C34.6403 139.333 31.4184 137.999 29.043 135.623C26.6675 133.248 25.333 130.026 25.333 126.667V25.3333C25.333 21.9739 26.6675 18.7521 29.043 16.3766C31.4184 14.0012 34.6403 12.6667 37.9997 12.6667ZM82.333 22.1667V57H117.166L82.333 22.1667ZM44.333 82.3333L53.833 126.667H66.4997L75.9997 107.667L85.4997 126.667H98.1663L107.666 82.3333H114V69.6667H88.6663V82.3333H94.9997L89.2997 108.933L82.333 95H69.6663L62.6997 108.933L56.9997 82.3333H63.333V69.6667H37.9997V82.3333H44.333Z" fill="#2A3FFF"/>
</svg>
