<svg width="401" height="178" viewBox="0 0 401 178" fill="none" xmlns="http://www.w3.org/2000/svg">
<rect x="4" y="4" width="393" height="170" rx="11" fill="white"/>
<rect x="4" y="4" width="393" height="170" rx="11" stroke="#2A3FFF" stroke-width="8"/>
<path d="M51.9997 25.6666H102.666L140.666 63.6666V139.667C140.666 143.026 139.332 146.248 136.956 148.623C134.581 150.999 131.359 152.333 128 152.333H51.9997C48.6403 152.333 45.4184 150.999 43.043 148.623C40.6675 146.248 39.333 143.026 39.333 139.667V38.3333C39.333 34.9739 40.6675 31.7521 43.043 29.3766C45.4184 27.0011 48.6403 25.6666 51.9997 25.6666ZM96.333 35.1666V70H131.166L96.333 35.1666ZM58.333 95.3333L67.833 139.667H80.4997L89.9997 120.667L99.4997 139.667H112.166L121.666 95.3333H128V82.6666H102.666V95.3333H109L103.3 121.933L96.333 108H83.6663L76.6997 121.933L70.9997 95.3333H77.333V82.6666H51.9997V95.3333H58.333Z" fill="#2A3FFF"/>
<path d="M192.353 42.56C194.553 42.56 196.483 42.99 198.143 43.85C199.823 44.71 201.113 45.94 202.013 47.54C202.933 49.12 203.393 50.96 203.393 53.06C203.393 55.16 202.933 57 202.013 58.58C201.113 60.14 199.823 61.35 198.143 62.21C196.483 63.07 194.553 63.5 192.353 63.5H185.033V42.56H192.353ZM192.203 59.93C194.403 59.93 196.103 59.33 197.303 58.13C198.503 56.93 199.103 55.24 199.103 53.06C199.103 50.88 198.503 49.18 197.303 47.96C196.103 46.72 194.403 46.1 192.203 46.1H189.233V59.93H192.203ZM213.917 63.77C212.317 63.77 210.877 63.42 209.597 62.72C208.317 62 207.307 60.99 206.567 59.69C205.847 58.39 205.487 56.89 205.487 55.19C205.487 53.49 205.857 51.99 206.597 50.69C207.357 49.39 208.387 48.39 209.687 47.69C210.987 46.97 212.437 46.61 214.037 46.61C215.637 46.61 217.087 46.97 218.387 47.69C219.687 48.39 220.707 49.39 221.447 50.69C222.207 51.99 222.587 53.49 222.587 55.19C222.587 56.89 222.197 58.39 221.417 59.69C220.657 60.99 219.617 62 218.297 62.72C216.997 63.42 215.537 63.77 213.917 63.77ZM213.917 60.11C214.677 60.11 215.387 59.93 216.047 59.57C216.727 59.19 217.267 58.63 217.667 57.89C218.067 57.15 218.267 56.25 218.267 55.19C218.267 53.61 217.847 52.4 217.007 51.56C216.187 50.7 215.177 50.27 213.977 50.27C212.777 50.27 211.767 50.7 210.947 51.56C210.147 52.4 209.747 53.61 209.747 55.19C209.747 56.77 210.137 57.99 210.917 58.85C211.717 59.69 212.717 60.11 213.917 60.11ZM248.708 46.88L243.848 63.5H239.318L236.288 51.89L233.258 63.5H228.698L223.808 46.88H228.068L231.008 59.54L234.188 46.88H238.628L241.748 59.51L244.688 46.88H248.708ZM260.19 46.64C262.17 46.64 263.77 47.27 264.99 48.53C266.21 49.77 266.82 51.51 266.82 53.75V63.5H262.62V54.32C262.62 53 262.29 51.99 261.63 51.29C260.97 50.57 260.07 50.21 258.93 50.21C257.77 50.21 256.85 50.57 256.17 51.29C255.51 51.99 255.18 53 255.18 54.32V63.5H250.98V46.88H255.18V48.95C255.74 48.23 256.45 47.67 257.31 47.27C258.19 46.85 259.15 46.64 260.19 46.64ZM275.014 41.3V63.5H270.814V41.3H275.014ZM286.544 63.77C284.944 63.77 283.504 63.42 282.224 62.72C280.944 62 279.934 60.99 279.194 59.69C278.474 58.39 278.114 56.89 278.114 55.19C278.114 53.49 278.484 51.99 279.224 50.69C279.984 49.39 281.014 48.39 282.314 47.69C283.614 46.97 285.064 46.61 286.664 46.61C288.264 46.61 289.714 46.97 291.014 47.69C292.314 48.39 293.334 49.39 294.074 50.69C294.834 51.99 295.214 53.49 295.214 55.19C295.214 56.89 294.824 58.39 294.044 59.69C293.284 60.99 292.244 62 290.924 62.72C289.624 63.42 288.164 63.77 286.544 63.77ZM286.544 60.11C287.304 60.11 288.014 59.93 288.674 59.57C289.354 59.19 289.894 58.63 290.294 57.89C290.694 57.15 290.894 56.25 290.894 55.19C290.894 53.61 290.474 52.4 289.634 51.56C288.814 50.7 287.804 50.27 286.604 50.27C285.404 50.27 284.394 50.7 283.574 51.56C282.774 52.4 282.374 53.61 282.374 55.19C282.374 56.77 282.764 57.99 283.544 58.85C284.344 59.69 285.344 60.11 286.544 60.11ZM297.215 55.13C297.215 53.45 297.545 51.96 298.205 50.66C298.885 49.36 299.795 48.36 300.935 47.66C302.095 46.96 303.385 46.61 304.805 46.61C306.045 46.61 307.125 46.86 308.045 47.36C308.985 47.86 309.735 48.49 310.295 49.25V46.88H314.525V63.5H310.295V61.07C309.755 61.85 309.005 62.5 308.045 63.02C307.105 63.52 306.015 63.77 304.775 63.77C303.375 63.77 302.095 63.41 300.935 62.69C299.795 61.97 298.885 60.96 298.205 59.66C297.545 58.34 297.215 56.83 297.215 55.13ZM310.295 55.19C310.295 54.17 310.095 53.3 309.695 52.58C309.295 51.84 308.755 51.28 308.075 50.9C307.395 50.5 306.665 50.3 305.885 50.3C305.105 50.3 304.385 50.49 303.725 50.87C303.065 51.25 302.525 51.81 302.105 52.55C301.705 53.27 301.505 54.13 301.505 55.13C301.505 56.13 301.705 57.01 302.105 57.77C302.525 58.51 303.065 59.08 303.725 59.48C304.405 59.88 305.125 60.08 305.885 60.08C306.665 60.08 307.395 59.89 308.075 59.51C308.755 59.11 309.295 58.55 309.695 57.83C310.095 57.09 310.295 56.21 310.295 55.19ZM317.547 55.13C317.547 53.45 317.877 51.96 318.537 50.66C319.217 49.36 320.137 48.36 321.297 47.66C322.457 46.96 323.747 46.61 325.167 46.61C326.247 46.61 327.277 46.85 328.257 47.33C329.237 47.79 330.017 48.41 330.597 49.19V41.3H334.857V63.5H330.597V61.04C330.077 61.86 329.347 62.52 328.407 63.02C327.467 63.52 326.377 63.77 325.137 63.77C323.737 63.77 322.457 63.41 321.297 62.69C320.137 61.97 319.217 60.96 318.537 59.66C317.877 58.34 317.547 56.83 317.547 55.13ZM330.627 55.19C330.627 54.17 330.427 53.3 330.027 52.58C329.627 51.84 329.087 51.28 328.407 50.9C327.727 50.5 326.997 50.3 326.217 50.3C325.437 50.3 324.717 50.49 324.057 50.87C323.397 51.25 322.857 51.81 322.437 52.55C322.037 53.27 321.837 54.13 321.837 55.13C321.837 56.13 322.037 57.01 322.437 57.77C322.857 58.51 323.397 59.08 324.057 59.48C324.737 59.88 325.457 60.08 326.217 60.08C326.997 60.08 327.727 59.89 328.407 59.51C329.087 59.11 329.627 58.55 330.027 57.83C330.427 57.09 330.627 56.21 330.627 55.19ZM182.642 87.56V90.95H177.062V108.5H172.862V90.95H167.282V87.56H182.642ZM201.157 99.83C201.157 100.43 201.117 100.97 201.037 101.45H188.887C188.987 102.65 189.407 103.59 190.147 104.27C190.887 104.95 191.797 105.29 192.877 105.29C194.437 105.29 195.547 104.62 196.207 103.28H200.737C200.257 104.88 199.337 106.2 197.977 107.24C196.617 108.26 194.947 108.77 192.967 108.77C191.367 108.77 189.927 108.42 188.647 107.72C187.387 107 186.397 105.99 185.677 104.69C184.977 103.39 184.627 101.89 184.627 100.19C184.627 98.47 184.977 96.96 185.677 95.66C186.377 94.36 187.357 93.36 188.617 92.66C189.877 91.96 191.327 91.61 192.967 91.61C194.547 91.61 195.957 91.95 197.197 92.63C198.457 93.31 199.427 94.28 200.107 95.54C200.807 96.78 201.157 98.21 201.157 99.83ZM196.807 98.63C196.787 97.55 196.397 96.69 195.637 96.05C194.877 95.39 193.947 95.06 192.847 95.06C191.807 95.06 190.927 95.38 190.207 96.02C189.507 96.64 189.077 97.51 188.917 98.63H196.807ZM224.862 91.64C226.902 91.64 228.542 92.27 229.782 93.53C231.042 94.77 231.672 96.51 231.672 98.75V108.5H227.472V99.32C227.472 98.02 227.142 97.03 226.482 96.35C225.822 95.65 224.922 95.3 223.782 95.3C222.642 95.3 221.732 95.65 221.052 96.35C220.392 97.03 220.062 98.02 220.062 99.32V108.5H215.862V99.32C215.862 98.02 215.532 97.03 214.872 96.35C214.212 95.65 213.312 95.3 212.172 95.3C211.012 95.3 210.092 95.65 209.412 96.35C208.752 97.03 208.422 98.02 208.422 99.32V108.5H204.222V91.88H208.422V93.89C208.962 93.19 209.652 92.64 210.492 92.24C211.352 91.84 212.292 91.64 213.312 91.64C214.612 91.64 215.772 91.92 216.792 92.48C217.812 93.02 218.602 93.8 219.162 94.82C219.702 93.86 220.482 93.09 221.502 92.51C222.542 91.93 223.662 91.64 224.862 91.64ZM239.858 94.28C240.398 93.52 241.138 92.89 242.078 92.39C243.038 91.87 244.128 91.61 245.348 91.61C246.768 91.61 248.048 91.96 249.188 92.66C250.348 93.36 251.258 94.36 251.918 95.66C252.598 96.94 252.938 98.43 252.938 100.13C252.938 101.83 252.598 103.34 251.918 104.66C251.258 105.96 250.348 106.97 249.188 107.69C248.048 108.41 246.768 108.77 245.348 108.77C244.128 108.77 243.048 108.52 242.108 108.02C241.188 107.52 240.438 106.89 239.858 106.13V116.42H235.658V91.88H239.858V94.28ZM248.648 100.13C248.648 99.13 248.438 98.27 248.018 97.55C247.618 96.81 247.078 96.25 246.398 95.87C245.738 95.49 245.018 95.3 244.238 95.3C243.478 95.3 242.758 95.5 242.078 95.9C241.418 96.28 240.878 96.84 240.458 97.58C240.058 98.32 239.858 99.19 239.858 100.19C239.858 101.19 240.058 102.06 240.458 102.8C240.878 103.54 241.418 104.11 242.078 104.51C242.758 104.89 243.478 105.08 244.238 105.08C245.018 105.08 245.738 104.88 246.398 104.48C247.078 104.08 247.618 103.51 248.018 102.77C248.438 102.03 248.648 101.15 248.648 100.13ZM260.19 86.3V108.5H255.99V86.3H260.19ZM263.26 100.13C263.26 98.45 263.59 96.96 264.25 95.66C264.93 94.36 265.84 93.36 266.98 92.66C268.14 91.96 269.43 91.61 270.85 91.61C272.09 91.61 273.17 91.86 274.09 92.36C275.03 92.86 275.78 93.49 276.34 94.25V91.88H280.57V108.5H276.34V106.07C275.8 106.85 275.05 107.5 274.09 108.02C273.15 108.52 272.06 108.77 270.82 108.77C269.42 108.77 268.14 108.41 266.98 107.69C265.84 106.97 264.93 105.96 264.25 104.66C263.59 103.34 263.26 101.83 263.26 100.13ZM276.34 100.19C276.34 99.17 276.14 98.3 275.74 97.58C275.34 96.84 274.8 96.28 274.12 95.9C273.44 95.5 272.71 95.3 271.93 95.3C271.15 95.3 270.43 95.49 269.77 95.87C269.11 96.25 268.57 96.81 268.15 97.55C267.75 98.27 267.55 99.13 267.55 100.13C267.55 101.13 267.75 102.01 268.15 102.77C268.57 103.51 269.11 104.08 269.77 104.48C270.45 104.88 271.17 105.08 271.93 105.08C272.71 105.08 273.44 104.89 274.12 104.51C274.8 104.11 275.34 103.55 275.74 102.83C276.14 102.09 276.34 101.21 276.34 100.19ZM289.562 95.33V103.37C289.562 103.93 289.692 104.34 289.952 104.6C290.232 104.84 290.692 104.96 291.332 104.96H293.282V108.5H290.642C287.102 108.5 285.332 106.78 285.332 103.34V95.33H283.352V91.88H285.332V87.77H289.562V91.88H293.282V95.33H289.562ZM311.752 99.83C311.752 100.43 311.712 100.97 311.632 101.45H299.482C299.582 102.65 300.002 103.59 300.742 104.27C301.482 104.95 302.392 105.29 303.472 105.29C305.032 105.29 306.142 104.62 306.802 103.28H311.332C310.852 104.88 309.932 106.2 308.572 107.24C307.212 108.26 305.542 108.77 303.562 108.77C301.962 108.77 300.522 108.42 299.242 107.72C297.982 107 296.992 105.99 296.272 104.69C295.572 103.39 295.222 101.89 295.222 100.19C295.222 98.47 295.572 96.96 296.272 95.66C296.972 94.36 297.952 93.36 299.212 92.66C300.472 91.96 301.922 91.61 303.562 91.61C305.142 91.61 306.552 91.95 307.792 92.63C309.052 93.31 310.022 94.28 310.702 95.54C311.402 96.78 311.752 98.21 311.752 99.83ZM307.402 98.63C307.382 97.55 306.992 96.69 306.232 96.05C305.472 95.39 304.542 95.06 303.442 95.06C302.402 95.06 301.522 95.38 300.802 96.02C300.102 96.64 299.672 97.51 299.512 98.63H307.402ZM334.806 104.51H326.466L325.086 108.5H320.676L328.206 87.53H333.096L340.626 108.5H336.186L334.806 104.51ZM333.666 101.15L330.636 92.39L327.606 101.15H333.666ZM357.661 90.26H347.941V95.39C348.361 94.87 348.961 94.45 349.741 94.13C350.521 93.79 351.351 93.62 352.231 93.62C353.831 93.62 355.141 93.97 356.161 94.67C357.181 95.37 357.921 96.27 358.381 97.37C358.841 98.45 359.071 99.61 359.071 100.85C359.071 103.15 358.411 105 357.091 106.4C355.791 107.8 353.931 108.5 351.511 108.5C349.231 108.5 347.411 107.93 346.051 106.79C344.691 105.65 343.921 104.16 343.741 102.32H347.821C348.001 103.12 348.401 103.76 349.021 104.24C349.661 104.72 350.471 104.96 351.451 104.96C352.631 104.96 353.521 104.59 354.121 103.85C354.721 103.11 355.021 102.13 355.021 100.91C355.021 99.67 354.711 98.73 354.091 98.09C353.491 97.43 352.601 97.1 351.421 97.1C350.581 97.1 349.881 97.31 349.321 97.73C348.761 98.15 348.361 98.71 348.121 99.41H344.101V86.57H357.661V90.26Z" fill="#EB6727"/>
<path d="M195.05 127.936V135.712C195.05 136.564 195.272 137.218 195.716 137.674C196.16 138.118 196.784 138.34 197.588 138.34C198.404 138.34 199.034 138.118 199.478 137.674C199.922 137.218 200.144 136.564 200.144 135.712V127.936H202.682V135.694C202.682 136.762 202.448 137.668 201.98 138.412C201.524 139.144 200.906 139.696 200.126 140.068C199.358 140.44 198.5 140.626 197.552 140.626C196.616 140.626 195.764 140.44 194.996 140.068C194.24 139.696 193.64 139.144 193.196 138.412C192.752 137.668 192.53 136.762 192.53 135.694V127.936H195.05ZM211.021 140.5L207.637 136.252V140.5H205.117V127.18H207.637V134.758L210.985 130.528H214.261L209.869 135.532L214.297 140.5H211.021ZM225.043 130.528V140.5H222.505V139.24C222.181 139.672 221.755 140.014 221.227 140.266C220.711 140.506 220.147 140.626 219.535 140.626C218.755 140.626 218.065 140.464 217.465 140.14C216.865 139.804 216.391 139.318 216.043 138.682C215.707 138.034 215.539 137.266 215.539 136.378V130.528H218.059V136.018C218.059 136.81 218.257 137.422 218.653 137.854C219.049 138.274 219.589 138.484 220.273 138.484C220.969 138.484 221.515 138.274 221.911 137.854C222.307 137.422 222.505 136.81 222.505 136.018V130.528H225.043ZM230.049 132.076C230.373 131.548 230.793 131.134 231.309 130.834C231.837 130.534 232.437 130.384 233.109 130.384V133.03H232.443C231.651 133.03 231.051 133.216 230.643 133.588C230.247 133.96 230.049 134.608 230.049 135.532V140.5H227.529V130.528H230.049V132.076ZM234.158 135.478C234.158 134.47 234.356 133.576 234.752 132.796C235.16 132.016 235.706 131.416 236.39 130.996C237.086 130.576 237.86 130.366 238.712 130.366C239.456 130.366 240.104 130.516 240.656 130.816C241.22 131.116 241.67 131.494 242.006 131.95V130.528H244.544V140.5H242.006V139.042C241.682 139.51 241.232 139.9 240.656 140.212C240.092 140.512 239.438 140.662 238.694 140.662C237.854 140.662 237.086 140.446 236.39 140.014C235.706 139.582 235.16 138.976 234.752 138.196C234.356 137.404 234.158 136.498 234.158 135.478ZM242.006 135.514C242.006 134.902 241.886 134.38 241.646 133.948C241.406 133.504 241.082 133.168 240.674 132.94C240.266 132.7 239.828 132.58 239.36 132.58C238.892 132.58 238.46 132.694 238.064 132.922C237.668 133.15 237.344 133.486 237.092 133.93C236.852 134.362 236.732 134.878 236.732 135.478C236.732 136.078 236.852 136.606 237.092 137.062C237.344 137.506 237.668 137.848 238.064 138.088C238.472 138.328 238.904 138.448 239.36 138.448C239.828 138.448 240.266 138.334 240.674 138.106C241.082 137.866 241.406 137.53 241.646 137.098C241.886 136.654 242.006 136.126 242.006 135.514ZM252.532 130.384C253.72 130.384 254.68 130.762 255.412 131.518C256.144 132.262 256.51 133.306 256.51 134.65V140.5H253.99V134.992C253.99 134.2 253.792 133.594 253.396 133.174C253 132.742 252.46 132.526 251.776 132.526C251.08 132.526 250.528 132.742 250.12 133.174C249.724 133.594 249.526 134.2 249.526 134.992V140.5H247.006V130.528H249.526V131.77C249.862 131.338 250.288 131.002 250.804 130.762C251.332 130.51 251.908 130.384 252.532 130.384ZM267.533 140.626C266.657 140.626 265.865 140.476 265.157 140.176C264.461 139.876 263.909 139.444 263.501 138.88C263.093 138.316 262.883 137.65 262.871 136.882H265.571C265.607 137.398 265.787 137.806 266.111 138.106C266.447 138.406 266.903 138.556 267.479 138.556C268.067 138.556 268.529 138.418 268.865 138.142C269.201 137.854 269.369 137.482 269.369 137.026C269.369 136.654 269.255 136.348 269.027 136.108C268.799 135.868 268.511 135.682 268.163 135.55C267.827 135.406 267.359 135.25 266.759 135.082C265.943 134.842 265.277 134.608 264.761 134.38C264.257 134.14 263.819 133.786 263.447 133.318C263.087 132.838 262.907 132.202 262.907 131.41C262.907 130.666 263.093 130.018 263.465 129.466C263.837 128.914 264.359 128.494 265.031 128.206C265.703 127.906 266.471 127.756 267.335 127.756C268.631 127.756 269.681 128.074 270.485 128.71C271.301 129.334 271.751 130.21 271.835 131.338H269.063C269.039 130.906 268.853 130.552 268.505 130.276C268.169 129.988 267.719 129.844 267.155 129.844C266.663 129.844 266.267 129.97 265.967 130.222C265.679 130.474 265.535 130.84 265.535 131.32C265.535 131.656 265.643 131.938 265.859 132.166C266.087 132.382 266.363 132.562 266.687 132.706C267.023 132.838 267.491 132.994 268.091 133.174C268.907 133.414 269.573 133.654 270.089 133.894C270.605 134.134 271.049 134.494 271.421 134.974C271.793 135.454 271.979 136.084 271.979 136.864C271.979 137.536 271.805 138.16 271.457 138.736C271.109 139.312 270.599 139.774 269.927 140.122C269.255 140.458 268.457 140.626 267.533 140.626ZM277.098 132.598V137.422C277.098 137.758 277.176 138.004 277.332 138.16C277.5 138.304 277.776 138.376 278.16 138.376H279.33V140.5H277.746C275.622 140.5 274.56 139.468 274.56 137.404V132.598H273.372V130.528H274.56V128.062H277.098V130.528H279.33V132.598H277.098ZM280.494 135.478C280.494 134.47 280.692 133.576 281.088 132.796C281.496 132.016 282.042 131.416 282.726 130.996C283.422 130.576 284.196 130.366 285.048 130.366C285.792 130.366 286.44 130.516 286.992 130.816C287.556 131.116 288.006 131.494 288.342 131.95V130.528H290.88V140.5H288.342V139.042C288.018 139.51 287.568 139.9 286.992 140.212C286.428 140.512 285.774 140.662 285.03 140.662C284.19 140.662 283.422 140.446 282.726 140.014C282.042 139.582 281.496 138.976 281.088 138.196C280.692 137.404 280.494 136.498 280.494 135.478ZM288.342 135.514C288.342 134.902 288.222 134.38 287.982 133.948C287.742 133.504 287.418 133.168 287.01 132.94C286.602 132.7 286.164 132.58 285.696 132.58C285.228 132.58 284.796 132.694 284.4 132.922C284.004 133.15 283.68 133.486 283.428 133.93C283.188 134.362 283.068 134.878 283.068 135.478C283.068 136.078 283.188 136.606 283.428 137.062C283.68 137.506 284.004 137.848 284.4 138.088C284.808 138.328 285.24 138.448 285.696 138.448C286.164 138.448 286.602 138.334 287.01 138.106C287.418 137.866 287.742 137.53 287.982 137.098C288.222 136.654 288.342 136.126 288.342 135.514ZM298.868 130.384C300.056 130.384 301.016 130.762 301.748 131.518C302.48 132.262 302.846 133.306 302.846 134.65V140.5H300.326V134.992C300.326 134.2 300.128 133.594 299.732 133.174C299.336 132.742 298.796 132.526 298.112 132.526C297.416 132.526 296.864 132.742 296.456 133.174C296.06 133.594 295.862 134.2 295.862 134.992V140.5H293.342V130.528H295.862V131.77C296.198 131.338 296.624 131.002 297.14 130.762C297.668 130.51 298.244 130.384 298.868 130.384ZM304.594 135.478C304.594 134.47 304.792 133.576 305.188 132.796C305.596 132.016 306.148 131.416 306.844 130.996C307.54 130.576 308.314 130.366 309.166 130.366C309.814 130.366 310.432 130.51 311.02 130.798C311.608 131.074 312.076 131.446 312.424 131.914V127.18H314.98V140.5H312.424V139.024C312.112 139.516 311.674 139.912 311.11 140.212C310.546 140.512 309.892 140.662 309.148 140.662C308.308 140.662 307.54 140.446 306.844 140.014C306.148 139.582 305.596 138.976 305.188 138.196C304.792 137.404 304.594 136.498 304.594 135.478ZM312.442 135.514C312.442 134.902 312.322 134.38 312.082 133.948C311.842 133.504 311.518 133.168 311.11 132.94C310.702 132.7 310.264 132.58 309.796 132.58C309.328 132.58 308.896 132.694 308.5 132.922C308.104 133.15 307.78 133.486 307.528 133.93C307.288 134.362 307.168 134.878 307.168 135.478C307.168 136.078 307.288 136.606 307.528 137.062C307.78 137.506 308.104 137.848 308.5 138.088C308.908 138.328 309.34 138.448 309.796 138.448C310.264 138.448 310.702 138.334 311.11 138.106C311.518 137.866 311.842 137.53 312.082 137.098C312.322 136.654 312.442 136.126 312.442 135.514ZM316.793 135.478C316.793 134.47 316.991 133.576 317.387 132.796C317.795 132.016 318.341 131.416 319.025 130.996C319.721 130.576 320.495 130.366 321.347 130.366C322.091 130.366 322.739 130.516 323.291 130.816C323.855 131.116 324.305 131.494 324.641 131.95V130.528H327.179V140.5H324.641V139.042C324.317 139.51 323.867 139.9 323.291 140.212C322.727 140.512 322.073 140.662 321.329 140.662C320.489 140.662 319.721 140.446 319.025 140.014C318.341 139.582 317.795 138.976 317.387 138.196C316.991 137.404 316.793 136.498 316.793 135.478ZM324.641 135.514C324.641 134.902 324.521 134.38 324.281 133.948C324.041 133.504 323.717 133.168 323.309 132.94C322.901 132.7 322.463 132.58 321.995 132.58C321.527 132.58 321.095 132.694 320.699 132.922C320.303 133.15 319.979 133.486 319.727 133.93C319.487 134.362 319.367 134.878 319.367 135.478C319.367 136.078 319.487 136.606 319.727 137.062C319.979 137.506 320.303 137.848 320.699 138.088C321.107 138.328 321.539 138.448 321.995 138.448C322.463 138.448 322.901 138.334 323.309 138.106C323.717 137.866 324.041 137.53 324.281 137.098C324.521 136.654 324.641 136.126 324.641 135.514ZM332.16 132.076C332.484 131.548 332.904 131.134 333.42 130.834C333.948 130.534 334.548 130.384 335.22 130.384V133.03H334.554C333.762 133.03 333.162 133.216 332.754 133.588C332.358 133.96 332.16 134.608 332.16 135.532V140.5H329.64V130.528H332.16V132.076Z" fill="#4D4C4C"/>
</svg>
