<svg width="401" height="178" viewBox="0 0 401 178" fill="none" xmlns="http://www.w3.org/2000/svg">
<rect x="4" y="4" width="393" height="170" rx="11" fill="white"/>
<rect x="4" y="4" width="393" height="170" rx="11" stroke="#2A3FFF" stroke-width="8"/>
<path d="M51.9997 25.6666H102.666L140.666 63.6666V139.667C140.666 143.026 139.332 146.248 136.956 148.623C134.581 150.999 131.359 152.333 128 152.333H51.9997C48.6403 152.333 45.4184 150.999 43.043 148.623C40.6675 146.248 39.333 143.026 39.333 139.667V38.3333C39.333 34.9739 40.6675 31.7521 43.043 29.3766C45.4184 27.0011 48.6403 25.6666 51.9997 25.6666ZM96.333 35.1666V70H131.166L96.333 35.1666ZM58.333 95.3333L67.833 139.667H80.4997L89.9997 120.667L99.4997 139.667H112.166L121.666 95.3333H128V82.6666H102.666V95.3333H109L103.3 121.933L96.333 108H83.6663L76.6997 121.933L70.9997 95.3333H77.333V82.6666H51.9997V95.3333H58.333Z" fill="#2A3FFF"/>
<path d="M192.353 42.56C194.553 42.56 196.483 42.99 198.143 43.85C199.823 44.71 201.113 45.94 202.013 47.54C202.933 49.12 203.393 50.96 203.393 53.06C203.393 55.16 202.933 57 202.013 58.58C201.113 60.14 199.823 61.35 198.143 62.21C196.483 63.07 194.553 63.5 192.353 63.5H185.033V42.56H192.353ZM192.203 59.93C194.403 59.93 196.103 59.33 197.303 58.13C198.503 56.93 199.103 55.24 199.103 53.06C199.103 50.88 198.503 49.18 197.303 47.96C196.103 46.72 194.403 46.1 192.203 46.1H189.233V59.93H192.203ZM213.917 63.77C212.317 63.77 210.877 63.42 209.597 62.72C208.317 62 207.307 60.99 206.567 59.69C205.847 58.39 205.487 56.89 205.487 55.19C205.487 53.49 205.857 51.99 206.597 50.69C207.357 49.39 208.387 48.39 209.687 47.69C210.987 46.97 212.437 46.61 214.037 46.61C215.637 46.61 217.087 46.97 218.387 47.69C219.687 48.39 220.707 49.39 221.447 50.69C222.207 51.99 222.587 53.49 222.587 55.19C222.587 56.89 222.197 58.39 221.417 59.69C220.657 60.99 219.617 62 218.297 62.72C216.997 63.42 215.537 63.77 213.917 63.77ZM213.917 60.11C214.677 60.11 215.387 59.93 216.047 59.57C216.727 59.19 217.267 58.63 217.667 57.89C218.067 57.15 218.267 56.25 218.267 55.19C218.267 53.61 217.847 52.4 217.007 51.56C216.187 50.7 215.177 50.27 213.977 50.27C212.777 50.27 211.767 50.7 210.947 51.56C210.147 52.4 209.747 53.61 209.747 55.19C209.747 56.77 210.137 57.99 210.917 58.85C211.717 59.69 212.717 60.11 213.917 60.11ZM248.708 46.88L243.848 63.5H239.318L236.288 51.89L233.258 63.5H228.698L223.808 46.88H228.068L231.008 59.54L234.188 46.88H238.628L241.748 59.51L244.688 46.88H248.708ZM260.19 46.64C262.17 46.64 263.77 47.27 264.99 48.53C266.21 49.77 266.82 51.51 266.82 53.75V63.5H262.62V54.32C262.62 53 262.29 51.99 261.63 51.29C260.97 50.57 260.07 50.21 258.93 50.21C257.77 50.21 256.85 50.57 256.17 51.29C255.51 51.99 255.18 53 255.18 54.32V63.5H250.98V46.88H255.18V48.95C255.74 48.23 256.45 47.67 257.31 47.27C258.19 46.85 259.15 46.64 260.19 46.64ZM275.014 41.3V63.5H270.814V41.3H275.014ZM286.544 63.77C284.944 63.77 283.504 63.42 282.224 62.72C280.944 62 279.934 60.99 279.194 59.69C278.474 58.39 278.114 56.89 278.114 55.19C278.114 53.49 278.484 51.99 279.224 50.69C279.984 49.39 281.014 48.39 282.314 47.69C283.614 46.97 285.064 46.61 286.664 46.61C288.264 46.61 289.714 46.97 291.014 47.69C292.314 48.39 293.334 49.39 294.074 50.69C294.834 51.99 295.214 53.49 295.214 55.19C295.214 56.89 294.824 58.39 294.044 59.69C293.284 60.99 292.244 62 290.924 62.72C289.624 63.42 288.164 63.77 286.544 63.77ZM286.544 60.11C287.304 60.11 288.014 59.93 288.674 59.57C289.354 59.19 289.894 58.63 290.294 57.89C290.694 57.15 290.894 56.25 290.894 55.19C290.894 53.61 290.474 52.4 289.634 51.56C288.814 50.7 287.804 50.27 286.604 50.27C285.404 50.27 284.394 50.7 283.574 51.56C282.774 52.4 282.374 53.61 282.374 55.19C282.374 56.77 282.764 57.99 283.544 58.85C284.344 59.69 285.344 60.11 286.544 60.11ZM297.215 55.13C297.215 53.45 297.545 51.96 298.205 50.66C298.885 49.36 299.795 48.36 300.935 47.66C302.095 46.96 303.385 46.61 304.805 46.61C306.045 46.61 307.125 46.86 308.045 47.36C308.985 47.86 309.735 48.49 310.295 49.25V46.88H314.525V63.5H310.295V61.07C309.755 61.85 309.005 62.5 308.045 63.02C307.105 63.52 306.015 63.77 304.775 63.77C303.375 63.77 302.095 63.41 300.935 62.69C299.795 61.97 298.885 60.96 298.205 59.66C297.545 58.34 297.215 56.83 297.215 55.13ZM310.295 55.19C310.295 54.17 310.095 53.3 309.695 52.58C309.295 51.84 308.755 51.28 308.075 50.9C307.395 50.5 306.665 50.3 305.885 50.3C305.105 50.3 304.385 50.49 303.725 50.87C303.065 51.25 302.525 51.81 302.105 52.55C301.705 53.27 301.505 54.13 301.505 55.13C301.505 56.13 301.705 57.01 302.105 57.77C302.525 58.51 303.065 59.08 303.725 59.48C304.405 59.88 305.125 60.08 305.885 60.08C306.665 60.08 307.395 59.89 308.075 59.51C308.755 59.11 309.295 58.55 309.695 57.83C310.095 57.09 310.295 56.21 310.295 55.19ZM317.547 55.13C317.547 53.45 317.877 51.96 318.537 50.66C319.217 49.36 320.137 48.36 321.297 47.66C322.457 46.96 323.747 46.61 325.167 46.61C326.247 46.61 327.277 46.85 328.257 47.33C329.237 47.79 330.017 48.41 330.597 49.19V41.3H334.857V63.5H330.597V61.04C330.077 61.86 329.347 62.52 328.407 63.02C327.467 63.52 326.377 63.77 325.137 63.77C323.737 63.77 322.457 63.41 321.297 62.69C320.137 61.97 319.217 60.96 318.537 59.66C317.877 58.34 317.547 56.83 317.547 55.13ZM330.627 55.19C330.627 54.17 330.427 53.3 330.027 52.58C329.627 51.84 329.087 51.28 328.407 50.9C327.727 50.5 326.997 50.3 326.217 50.3C325.437 50.3 324.717 50.49 324.057 50.87C323.397 51.25 322.857 51.81 322.437 52.55C322.037 53.27 321.837 54.13 321.837 55.13C321.837 56.13 322.037 57.01 322.437 57.77C322.857 58.51 323.397 59.08 324.057 59.48C324.737 59.88 325.457 60.08 326.217 60.08C326.997 60.08 327.727 59.89 328.407 59.51C329.087 59.11 329.627 58.55 330.027 57.83C330.427 57.09 330.627 56.21 330.627 55.19ZM183.741 87.56V90.95H178.161V108.5H173.961V90.95H168.381V87.56H183.741ZM202.255 99.83C202.255 100.43 202.215 100.97 202.135 101.45H189.985C190.085 102.65 190.505 103.59 191.245 104.27C191.985 104.95 192.895 105.29 193.975 105.29C195.535 105.29 196.645 104.62 197.305 103.28H201.835C201.355 104.88 200.435 106.2 199.075 107.24C197.715 108.26 196.045 108.77 194.065 108.77C192.465 108.77 191.025 108.42 189.745 107.72C188.485 107 187.495 105.99 186.775 104.69C186.075 103.39 185.725 101.89 185.725 100.19C185.725 98.47 186.075 96.96 186.775 95.66C187.475 94.36 188.455 93.36 189.715 92.66C190.975 91.96 192.425 91.61 194.065 91.61C195.645 91.61 197.055 91.95 198.295 92.63C199.555 93.31 200.525 94.28 201.205 95.54C201.905 96.78 202.255 98.21 202.255 99.83ZM197.905 98.63C197.885 97.55 197.495 96.69 196.735 96.05C195.975 95.39 195.045 95.06 193.945 95.06C192.905 95.06 192.025 95.38 191.305 96.02C190.605 96.64 190.175 97.51 190.015 98.63H197.905ZM225.961 91.64C228.001 91.64 229.641 92.27 230.881 93.53C232.141 94.77 232.771 96.51 232.771 98.75V108.5H228.571V99.32C228.571 98.02 228.241 97.03 227.581 96.35C226.921 95.65 226.021 95.3 224.881 95.3C223.741 95.3 222.831 95.65 222.151 96.35C221.491 97.03 221.161 98.02 221.161 99.32V108.5H216.961V99.32C216.961 98.02 216.631 97.03 215.971 96.35C215.311 95.65 214.411 95.3 213.271 95.3C212.111 95.3 211.191 95.65 210.511 96.35C209.851 97.03 209.521 98.02 209.521 99.32V108.5H205.321V91.88H209.521V93.89C210.061 93.19 210.751 92.64 211.591 92.24C212.451 91.84 213.391 91.64 214.411 91.64C215.711 91.64 216.871 91.92 217.891 92.48C218.911 93.02 219.701 93.8 220.261 94.82C220.801 93.86 221.581 93.09 222.601 92.51C223.641 91.93 224.761 91.64 225.961 91.64ZM240.957 94.28C241.497 93.52 242.237 92.89 243.177 92.39C244.137 91.87 245.227 91.61 246.447 91.61C247.867 91.61 249.147 91.96 250.287 92.66C251.447 93.36 252.357 94.36 253.017 95.66C253.697 96.94 254.037 98.43 254.037 100.13C254.037 101.83 253.697 103.34 253.017 104.66C252.357 105.96 251.447 106.97 250.287 107.69C249.147 108.41 247.867 108.77 246.447 108.77C245.227 108.77 244.147 108.52 243.207 108.02C242.287 107.52 241.537 106.89 240.957 106.13V116.42H236.757V91.88H240.957V94.28ZM249.747 100.13C249.747 99.13 249.537 98.27 249.117 97.55C248.717 96.81 248.177 96.25 247.497 95.87C246.837 95.49 246.117 95.3 245.337 95.3C244.577 95.3 243.857 95.5 243.177 95.9C242.517 96.28 241.977 96.84 241.557 97.58C241.157 98.32 240.957 99.19 240.957 100.19C240.957 101.19 241.157 102.06 241.557 102.8C241.977 103.54 242.517 104.11 243.177 104.51C243.857 104.89 244.577 105.08 245.337 105.08C246.117 105.08 246.837 104.88 247.497 104.48C248.177 104.08 248.717 103.51 249.117 102.77C249.537 102.03 249.747 101.15 249.747 100.13ZM261.289 86.3V108.5H257.089V86.3H261.289ZM264.358 100.13C264.358 98.45 264.688 96.96 265.348 95.66C266.028 94.36 266.938 93.36 268.078 92.66C269.238 91.96 270.528 91.61 271.948 91.61C273.188 91.61 274.268 91.86 275.188 92.36C276.128 92.86 276.878 93.49 277.438 94.25V91.88H281.668V108.5H277.438V106.07C276.898 106.85 276.148 107.5 275.188 108.02C274.248 108.52 273.158 108.77 271.918 108.77C270.518 108.77 269.238 108.41 268.078 107.69C266.938 106.97 266.028 105.96 265.348 104.66C264.688 103.34 264.358 101.83 264.358 100.13ZM277.438 100.19C277.438 99.17 277.238 98.3 276.838 97.58C276.438 96.84 275.898 96.28 275.218 95.9C274.538 95.5 273.808 95.3 273.028 95.3C272.248 95.3 271.528 95.49 270.868 95.87C270.208 96.25 269.668 96.81 269.248 97.55C268.848 98.27 268.648 99.13 268.648 100.13C268.648 101.13 268.848 102.01 269.248 102.77C269.668 103.51 270.208 104.08 270.868 104.48C271.548 104.88 272.268 105.08 273.028 105.08C273.808 105.08 274.538 104.89 275.218 104.51C275.898 104.11 276.438 103.55 276.838 102.83C277.238 102.09 277.438 101.21 277.438 100.19ZM290.66 95.33V103.37C290.66 103.93 290.79 104.34 291.05 104.6C291.33 104.84 291.79 104.96 292.43 104.96H294.38V108.5H291.74C288.2 108.5 286.43 106.78 286.43 103.34V95.33H284.45V91.88H286.43V87.77H290.66V91.88H294.38V95.33H290.66ZM312.851 99.83C312.851 100.43 312.811 100.97 312.731 101.45H300.581C300.681 102.65 301.101 103.59 301.841 104.27C302.581 104.95 303.491 105.29 304.571 105.29C306.131 105.29 307.241 104.62 307.901 103.28H312.431C311.951 104.88 311.031 106.2 309.671 107.24C308.311 108.26 306.641 108.77 304.661 108.77C303.061 108.77 301.621 108.42 300.341 107.72C299.081 107 298.091 105.99 297.371 104.69C296.671 103.39 296.321 101.89 296.321 100.19C296.321 98.47 296.671 96.96 297.371 95.66C298.071 94.36 299.051 93.36 300.311 92.66C301.571 91.96 303.021 91.61 304.661 91.61C306.241 91.61 307.651 91.95 308.891 92.63C310.151 93.31 311.121 94.28 311.801 95.54C312.501 96.78 312.851 98.21 312.851 99.83ZM308.501 98.63C308.481 97.55 308.091 96.69 307.331 96.05C306.571 95.39 305.641 95.06 304.541 95.06C303.501 95.06 302.621 95.38 301.901 96.02C301.201 96.64 300.771 97.51 300.611 98.63H308.501ZM334.945 97.76C336.125 97.98 337.095 98.57 337.855 99.53C338.615 100.49 338.995 101.59 338.995 102.83C338.995 103.95 338.715 104.94 338.155 105.8C337.615 106.64 336.825 107.3 335.785 107.78C334.745 108.26 333.515 108.5 332.095 108.5H323.065V87.56H331.705C333.125 87.56 334.345 87.79 335.365 88.25C336.405 88.71 337.185 89.35 337.705 90.17C338.245 90.99 338.515 91.92 338.515 92.96C338.515 94.18 338.185 95.2 337.525 96.02C336.885 96.84 336.025 97.42 334.945 97.76ZM327.265 96.2H331.105C332.105 96.2 332.875 95.98 333.415 95.54C333.955 95.08 334.225 94.43 334.225 93.59C334.225 92.75 333.955 92.1 333.415 91.64C332.875 91.18 332.105 90.95 331.105 90.95H327.265V96.2ZM331.495 105.08C332.515 105.08 333.305 104.84 333.865 104.36C334.445 103.88 334.735 103.2 334.735 102.32C334.735 101.42 334.435 100.72 333.835 100.22C333.235 99.7 332.425 99.44 331.405 99.44H327.265V105.08H331.495ZM356.562 90.26H346.842V95.39C347.262 94.87 347.862 94.45 348.642 94.13C349.422 93.79 350.252 93.62 351.132 93.62C352.732 93.62 354.042 93.97 355.062 94.67C356.082 95.37 356.822 96.27 357.282 97.37C357.742 98.45 357.972 99.61 357.972 100.85C357.972 103.15 357.312 105 355.992 106.4C354.692 107.8 352.832 108.5 350.412 108.5C348.132 108.5 346.312 107.93 344.952 106.79C343.592 105.65 342.822 104.16 342.642 102.32H346.722C346.902 103.12 347.302 103.76 347.922 104.24C348.562 104.72 349.372 104.96 350.352 104.96C351.532 104.96 352.422 104.59 353.022 103.85C353.622 103.11 353.922 102.13 353.922 100.91C353.922 99.67 353.612 98.73 352.992 98.09C352.392 97.43 351.502 97.1 350.322 97.1C349.482 97.1 348.782 97.31 348.222 97.73C347.662 98.15 347.262 98.71 347.022 99.41H343.002V86.57H356.562V90.26Z" fill="#EB6727"/>
<path d="M169.685 127.936V135.712C169.685 136.564 169.907 137.218 170.351 137.674C170.795 138.118 171.419 138.34 172.223 138.34C173.039 138.34 173.669 138.118 174.113 137.674C174.557 137.218 174.779 136.564 174.779 135.712V127.936H177.317V135.694C177.317 136.762 177.083 137.668 176.615 138.412C176.159 139.144 175.541 139.696 174.761 140.068C173.993 140.44 173.135 140.626 172.187 140.626C171.251 140.626 170.399 140.44 169.631 140.068C168.875 139.696 168.275 139.144 167.831 138.412C167.387 137.668 167.165 136.762 167.165 135.694V127.936H169.685ZM185.656 140.5L182.272 136.252V140.5H179.752V127.18H182.272V134.758L185.62 130.528H188.896L184.504 135.532L188.932 140.5H185.656ZM199.677 130.528V140.5H197.139V139.24C196.815 139.672 196.389 140.014 195.861 140.266C195.345 140.506 194.781 140.626 194.169 140.626C193.389 140.626 192.699 140.464 192.099 140.14C191.499 139.804 191.025 139.318 190.677 138.682C190.341 138.034 190.173 137.266 190.173 136.378V130.528H192.693V136.018C192.693 136.81 192.891 137.422 193.287 137.854C193.683 138.274 194.223 138.484 194.907 138.484C195.603 138.484 196.149 138.274 196.545 137.854C196.941 137.422 197.139 136.81 197.139 136.018V130.528H199.677ZM204.684 132.076C205.008 131.548 205.428 131.134 205.944 130.834C206.472 130.534 207.072 130.384 207.744 130.384V133.03H207.078C206.286 133.03 205.686 133.216 205.278 133.588C204.882 133.96 204.684 134.608 204.684 135.532V140.5H202.164V130.528H204.684V132.076ZM208.793 135.478C208.793 134.47 208.991 133.576 209.387 132.796C209.795 132.016 210.341 131.416 211.025 130.996C211.721 130.576 212.495 130.366 213.347 130.366C214.091 130.366 214.739 130.516 215.291 130.816C215.855 131.116 216.305 131.494 216.641 131.95V130.528H219.179V140.5H216.641V139.042C216.317 139.51 215.867 139.9 215.291 140.212C214.727 140.512 214.073 140.662 213.329 140.662C212.489 140.662 211.721 140.446 211.025 140.014C210.341 139.582 209.795 138.976 209.387 138.196C208.991 137.404 208.793 136.498 208.793 135.478ZM216.641 135.514C216.641 134.902 216.521 134.38 216.281 133.948C216.041 133.504 215.717 133.168 215.309 132.94C214.901 132.7 214.463 132.58 213.995 132.58C213.527 132.58 213.095 132.694 212.699 132.922C212.303 133.15 211.979 133.486 211.727 133.93C211.487 134.362 211.367 134.878 211.367 135.478C211.367 136.078 211.487 136.606 211.727 137.062C211.979 137.506 212.303 137.848 212.699 138.088C213.107 138.328 213.539 138.448 213.995 138.448C214.463 138.448 214.901 138.334 215.309 138.106C215.717 137.866 216.041 137.53 216.281 137.098C216.521 136.654 216.641 136.126 216.641 135.514ZM227.166 130.384C228.354 130.384 229.314 130.762 230.046 131.518C230.778 132.262 231.144 133.306 231.144 134.65V140.5H228.624V134.992C228.624 134.2 228.426 133.594 228.03 133.174C227.634 132.742 227.094 132.526 226.41 132.526C225.714 132.526 225.162 132.742 224.754 133.174C224.358 133.594 224.16 134.2 224.16 134.992V140.5H221.64V130.528H224.16V131.77C224.496 131.338 224.922 131.002 225.438 130.762C225.966 130.51 226.542 130.384 227.166 130.384ZM244.958 134.056C245.666 134.188 246.248 134.542 246.704 135.118C247.16 135.694 247.388 136.354 247.388 137.098C247.388 137.77 247.22 138.364 246.884 138.88C246.56 139.384 246.086 139.78 245.462 140.068C244.838 140.356 244.1 140.5 243.248 140.5H237.83V127.936H243.014C243.866 127.936 244.598 128.074 245.21 128.35C245.834 128.626 246.302 129.01 246.614 129.502C246.938 129.994 247.1 130.552 247.1 131.176C247.1 131.908 246.902 132.52 246.506 133.012C246.122 133.504 245.606 133.852 244.958 134.056ZM240.35 133.12H242.654C243.254 133.12 243.716 132.988 244.04 132.724C244.364 132.448 244.526 132.058 244.526 131.554C244.526 131.05 244.364 130.66 244.04 130.384C243.716 130.108 243.254 129.97 242.654 129.97H240.35V133.12ZM242.888 138.448C243.5 138.448 243.974 138.304 244.31 138.016C244.658 137.728 244.832 137.32 244.832 136.792C244.832 136.252 244.652 135.832 244.292 135.532C243.932 135.22 243.446 135.064 242.834 135.064H240.35V138.448H242.888ZM258.81 130.528V140.5H256.272V139.24C255.948 139.672 255.522 140.014 254.994 140.266C254.478 140.506 253.914 140.626 253.302 140.626C252.522 140.626 251.832 140.464 251.232 140.14C250.632 139.804 250.158 139.318 249.81 138.682C249.474 138.034 249.306 137.266 249.306 136.378V130.528H251.826V136.018C251.826 136.81 252.024 137.422 252.42 137.854C252.816 138.274 253.356 138.484 254.04 138.484C254.736 138.484 255.282 138.274 255.678 137.854C256.074 137.422 256.272 136.81 256.272 136.018V130.528H258.81ZM267.201 140.5L263.817 136.252V140.5H261.297V127.18H263.817V134.758L267.165 130.528H270.441L266.049 135.532L270.477 140.5H267.201ZM281.222 130.528V140.5H278.684V139.24C278.36 139.672 277.934 140.014 277.406 140.266C276.89 140.506 276.326 140.626 275.714 140.626C274.934 140.626 274.244 140.464 273.644 140.14C273.044 139.804 272.57 139.318 272.222 138.682C271.886 138.034 271.718 137.266 271.718 136.378V130.528H274.238V136.018C274.238 136.81 274.436 137.422 274.832 137.854C275.228 138.274 275.768 138.484 276.452 138.484C277.148 138.484 277.694 138.274 278.09 137.854C278.486 137.422 278.684 136.81 278.684 136.018V130.528H281.222ZM290.482 127.936V135.712C290.482 136.564 290.704 137.218 291.148 137.674C291.592 138.118 292.216 138.34 293.02 138.34C293.836 138.34 294.466 138.118 294.91 137.674C295.354 137.218 295.576 136.564 295.576 135.712V127.936H298.114V135.694C298.114 136.762 297.88 137.668 297.412 138.412C296.956 139.144 296.338 139.696 295.558 140.068C294.79 140.44 293.932 140.626 292.984 140.626C292.048 140.626 291.196 140.44 290.428 140.068C289.672 139.696 289.072 139.144 288.628 138.412C288.184 137.668 287.962 136.762 287.962 135.694V127.936H290.482ZM311.295 140.5H308.775L303.069 131.878V140.5H300.549V127.918H303.069L308.775 136.558V127.918H311.295V140.5ZM316.305 129.97V133.12H320.535V135.118H316.305V138.448H321.075V140.5H313.785V127.918H321.075V129.97H316.305ZM327.703 140.626C326.827 140.626 326.035 140.476 325.327 140.176C324.631 139.876 324.079 139.444 323.671 138.88C323.263 138.316 323.053 137.65 323.041 136.882H325.741C325.777 137.398 325.957 137.806 326.281 138.106C326.617 138.406 327.073 138.556 327.649 138.556C328.237 138.556 328.699 138.418 329.035 138.142C329.371 137.854 329.539 137.482 329.539 137.026C329.539 136.654 329.425 136.348 329.197 136.108C328.969 135.868 328.681 135.682 328.333 135.55C327.997 135.406 327.529 135.25 326.929 135.082C326.113 134.842 325.447 134.608 324.931 134.38C324.427 134.14 323.989 133.786 323.617 133.318C323.257 132.838 323.077 132.202 323.077 131.41C323.077 130.666 323.263 130.018 323.635 129.466C324.007 128.914 324.529 128.494 325.201 128.206C325.873 127.906 326.641 127.756 327.505 127.756C328.801 127.756 329.851 128.074 330.655 128.71C331.471 129.334 331.921 130.21 332.005 131.338H329.233C329.209 130.906 329.023 130.552 328.675 130.276C328.339 129.988 327.889 129.844 327.325 129.844C326.833 129.844 326.437 129.97 326.137 130.222C325.849 130.474 325.705 130.84 325.705 131.32C325.705 131.656 325.813 131.938 326.029 132.166C326.257 132.382 326.533 132.562 326.857 132.706C327.193 132.838 327.661 132.994 328.261 133.174C329.077 133.414 329.743 133.654 330.259 133.894C330.775 134.134 331.219 134.494 331.591 134.974C331.963 135.454 332.149 136.084 332.149 136.864C332.149 137.536 331.975 138.16 331.627 138.736C331.279 139.312 330.769 139.774 330.097 140.122C329.425 140.458 328.627 140.626 327.703 140.626ZM333.722 134.2C333.722 132.964 333.998 131.86 334.55 130.888C335.114 129.904 335.876 129.142 336.836 128.602C337.808 128.05 338.894 127.774 340.094 127.774C341.498 127.774 342.728 128.134 343.784 128.854C344.84 129.574 345.578 130.57 345.998 131.842H343.1C342.812 131.242 342.404 130.792 341.876 130.492C341.36 130.192 340.76 130.042 340.076 130.042C339.344 130.042 338.69 130.216 338.114 130.564C337.55 130.9 337.106 131.38 336.782 132.004C336.47 132.628 336.314 133.36 336.314 134.2C336.314 135.028 336.47 135.76 336.782 136.396C337.106 137.02 337.55 137.506 338.114 137.854C338.69 138.19 339.344 138.358 340.076 138.358C340.76 138.358 341.36 138.208 341.876 137.908C342.404 137.596 342.812 137.14 343.1 136.54H345.998C345.578 137.824 344.84 138.826 343.784 139.546C342.74 140.254 341.51 140.608 340.094 140.608C338.894 140.608 337.808 140.338 336.836 139.798C335.876 139.246 335.114 138.484 334.55 137.512C333.998 136.54 333.722 135.436 333.722 134.2ZM353.982 140.626C352.806 140.626 351.726 140.35 350.742 139.798C349.758 139.246 348.978 138.484 348.402 137.512C347.826 136.528 347.538 135.418 347.538 134.182C347.538 132.958 347.826 131.86 348.402 130.888C348.978 129.904 349.758 129.136 350.742 128.584C351.726 128.032 352.806 127.756 353.982 127.756C355.17 127.756 356.25 128.032 357.222 128.584C358.206 129.136 358.98 129.904 359.544 130.888C360.12 131.86 360.408 132.958 360.408 134.182C360.408 135.418 360.12 136.528 359.544 137.512C358.98 138.484 358.206 139.246 357.222 139.798C356.238 140.35 355.158 140.626 353.982 140.626ZM353.982 138.376C354.738 138.376 355.404 138.208 355.98 137.872C356.556 137.524 357.006 137.032 357.33 136.396C357.654 135.76 357.816 135.022 357.816 134.182C357.816 133.342 357.654 132.61 357.33 131.986C357.006 131.35 356.556 130.864 355.98 130.528C355.404 130.192 354.738 130.024 353.982 130.024C353.226 130.024 352.554 130.192 351.966 130.528C351.39 130.864 350.94 131.35 350.616 131.986C350.292 132.61 350.13 133.342 350.13 134.182C350.13 135.022 350.292 135.76 350.616 136.396C350.94 137.032 351.39 137.524 351.966 137.872C352.554 138.208 353.226 138.376 353.982 138.376Z" fill="#4D4C4C"/>
</svg>
